<?xml version="1.0" encoding="utf-8"?>
<!-- Generator: Adobe Illustrator 21.1.0, SVG Export Plug-In . SVG Version: 6.00 Build 0)  -->
<svg version="1.1" id="Layer_1" xmlns="http://www.w3.org/2000/svg" xmlns:xlink="http://www.w3.org/1999/xlink" x="0px" y="0px"
	 width="163.2px" height="37.7px" viewBox="0 0 163.2 37.7" style="enable-background:new 0 0 163.2 37.7;" xml:space="preserve">
<style type="text/css">
	.st0{fill:#FFFFFF;}
	.st1{fill:none;}
</style>
<g>
	<g>
		<circle class="st0" cx="5" cy="32.7" r="5"/>
		<circle class="st0" cx="18.9" cy="32.7" r="5"/>
		<circle class="st0" cx="18.9" cy="18.9" r="5"/>
		<circle class="st0" cx="32.7" cy="32.7" r="5"/>
		<circle class="st0" cx="32.7" cy="18.9" r="5"/>
		<circle class="st0" cx="32.7" cy="5" r="5"/>
	</g>
	<polygon class="st0" points="33.5,9.9 32.7,13.9 32,9.9 	"/>
	<line class="st1" x1="29.3" y1="8.5" x2="22.4" y2="15.4"/>
	<polygon class="st0" points="29.7,9 22.4,15.4 28.8,8 	"/>
	<polygon class="st0" points="16.3,22.5 8.5,29.3 15.3,21.5 	"/>
	<polygon class="st0" points="33.5,23.2 32.7,28.2 32,23.2 	"/>
	<polygon class="st0" points="22.2,29.3 28.9,21.6 29.9,22.6 	"/>
	<polygon class="st0" points="19.6,23.2 18.9,28.2 18.2,23.2 	"/>
</g>
<path class="st0" d="M83.2,37.2c-1.4-3.8-2.7-7.3-3.9-10.6c-1.2-3.2-2.4-6.3-3.6-9.2s-2.3-5.7-3.5-8.4c-1.1-2.6-2.4-5.3-3.6-7.9
	l-0.1-0.3h-5.3l-0.1,0.3c-1.2,2.6-2.5,5.3-3.6,7.9s-2.3,5.5-3.5,8.4s-2.4,6-3.6,9.3c-1.2,3.2-2.5,6.7-3.9,10.5l-0.2,0.6h6.3l3.3-9
	h15.7c0.5,1,1,2.8,1.5,4.2c0.5,1.6,1.1,3,1.7,4.5l0.1,0.2h6.6L83.2,37.2z M71.7,23.7h-12c1-3,2-5.6,3-8.2c0.9-2.5,2-4.9,3-7.2
	c1,2.3,2,4.8,3,7.2C69.7,18.2,70.7,20.7,71.7,23.7z"/>
<rect x="87" y="0.7" class="st0" width="6" height="37"/>
<path class="st0" d="M125.4,37.1c-0.6-1.4-1.4-2.8-2.3-4.3s-1.8-2.9-2.7-4.3c-0.9-1.4-1.8-2.6-2.6-3.8c-0.6-0.9-1.2-1.6-1.7-2.2
	c2.2-0.9,4-2.1,5.2-3.7c1.3-1.8,2-3.9,2-6.4c0-3.9-1.4-6.9-4.2-8.9c-2.7-2-6.7-3-11.9-3c-1.5,0-3.1,0.1-4.9,0.2s-3,0.4-4.4,0.7H98
	v36.3h6v-14h4.6c0.4,0,0.8,0,1.2,0c0.6,0.8,1.3,1.6,2,2.6c0.8,1.1,1.6,2.2,2.5,3.4c0.8,1.2,1.7,2.5,2.5,3.9c0.8,1.3,1.6,2.6,2.3,3.9
	l0.1,0.2h6.6L125.4,37.1z M116.3,15.6c-0.5,0.8-1.1,1.4-2,1.9s-2,0.8-3.4,1s-2.9,0.3-4.6,0.3H104V6c1-0.1,2.2-0.1,4-0.1
	c1.3,0,2.4,0.1,3.5,0.3c1.1,0.2,2,0.5,2.9,1c0.8,0.5,1.4,1.1,1.9,2c0.5,0.8,0.7,1.9,0.7,3.1C117,13.7,116.7,14.8,116.3,15.6z"/>
<path class="st0" d="M162.9,37.2c-1.4-3.8-2.7-7.3-3.9-10.6s-2.4-6.4-3.6-9.2c-1.2-2.9-2.3-5.7-3.5-8.4c-1.1-2.6-2.3-5.3-3.6-7.9
	l-0.1-0.3H143l-0.1,0.3c-1.2,2.6-2.5,5.3-3.6,7.9c-1.1,2.7-2.3,5.5-3.5,8.4c-1.1,2.9-2.4,6-3.6,9.3c-1.2,3.2-2.5,6.7-3.9,10.5
	l-0.2,0.6h6.3l3.3-9h15.7c0.5,1,1,2.8,1.5,4.2c0.5,1.5,1.1,3,1.7,4.5l0.1,0.2h6.6L162.9,37.2z M151.5,23.7h-12c1-3,2-5.6,3-8.2
	c1-2.5,2-4.9,3-7.2c1,2.3,2,4.8,3,7.2C149.4,18.2,150.5,20.7,151.5,23.7z"/>
</svg>
