<?xml version="1.0" encoding="utf-8"?>
<!-- Generator: Adobe Illustrator 21.0.2, SVG Export Plug-In . SVG Version: 6.00 Build 0)  -->
<svg version="1.1" id="Layer_1" xmlns="http://www.w3.org/2000/svg" xmlns:xlink="http://www.w3.org/1999/xlink" x="0px" y="0px"
	 width="35px" height="35px" viewBox="0 0 35 35" style="enable-background:new 0 0 35 35;" xml:space="preserve">
<style type="text/css">
	.st0{fill:#41A9DF;}
</style>
<g>
	<g>
		<g>
			<circle class="st0" cx="4.6" cy="30.4" r="4.6"/>
			<circle class="st0" cx="17.5" cy="30.4" r="4.6"/>
			<circle class="st0" cx="17.5" cy="17.5" r="4.6"/>
			<circle class="st0" cx="30.4" cy="30.4" r="4.6"/>
			<circle class="st0" cx="30.4" cy="17.5" r="4.6"/>
			<circle class="st0" cx="30.4" cy="4.6" r="4.6"/>
		</g>
		<polygon class="st0" points="31,9.2 30.4,12.9 29.7,9.2 		"/>
		<g>
			<line class="st0" x1="27.1" y1="7.9" x2="20.8" y2="14.3"/>
			<polygon class="st0" points="27.6,8.3 20.8,14.3 26.7,7.4 			"/>
		</g>
		<polygon class="st0" points="15.1,20.9 7.9,27.2 14.2,20 		"/>
		<polygon class="st0" points="31,21.5 30.4,26.2 29.7,21.5 		"/>
		<polygon class="st0" points="20.6,27.2 26.8,20 27.8,21 		"/>
		<polygon class="st0" points="18.2,21.5 17.5,26.2 16.8,21.5 		"/>
	</g>
</g>
</svg>
