<?xml version="1.0" encoding="utf-8"?><svg width="205" height="575" viewBox="0 0 205 575" xmlns="http://www.w3.org/2000/svg" xmlns:xlink="http://www.w3.org/1999/xlink"><svg id="earth" width="205" height="172.4" viewBox="0 0 205 172.4" xmlns="http://www.w3.org/2000/svg"><style>.ast0{fill:none;stroke:#000;stroke-width:.5;stroke-miterlimit:10}.ast1{opacity:.23}.ast1,.ast2,.ast3{fill:#1da7eb;enable-background:new}.ast2{opacity:.2}.ast3{opacity:.1}.ast4{opacity:.67}.ast5{fill:#c3e86a}.ast6{fill:#656666}.ast7{display:none;fill:#1da7eb;fill-opacity:8e-2}.ast8{fill:#2b2b2b}</style><path class="ast0" d="M67.6 17.7l36-6.8 16.5 3.1 26.8 10L169 46.1l7.1 11.3 9.5 39-16.6 40.5-30.4 29.3-35.2 5.9-13.5-2-25.4-8-20.7-19.8-9.4-11.8-12-36L30.5 60l4.4-9.3 4.5-4.6z"/><path class="ast1" d="M169.2 46.3L147 24l-26.5-9.6 13 33.1L103.2 92 48 94.7 36.4 53.3l28.4-32.8-29.9 30.2-4.3 9.3-8.2 34.6 11.8 35.9 9.6 11.8L64.4 162l25.6 8.2 13.3 1.9 35.2-5.9 30.6-29.4 16.4-40.5-9.4-38.9z"/><path class="ast2" d="M159.5 49.5l26 46.8-21.7-.1 5.3 40.6-30.7 29.3-48.4 4.1-46.2-27.9L48 94.7l29.1 45.6 52 8 34.8-52.1z"/><path class="ast3" d="M36.4 53.3l31.2-35.6 36-6.8 16.5 3.1 13.4 33.5L103.2 92 48 94.7z"/><g class="ast4"><path class="ast5" d="M165.4 42.6l3.6 3.5 7.1 11.3 9.5 39-2-2.5-1.5-1.3-.8-7-1.7-3.3-4.7-2.7-2.2-2.5 2 6.7 2.2-1.2 2.2 2.8-7.5 7.7-.8-5.4-6-11.4-.5 2.6 2.8 6.6.5 3.3 2.7 3.9.2 2.3 4.3-.6-1.1 4.7-6.9 11.2.6 7.7-4.6 5.1.3 3.5-7.9 9.9-5.8 1.4-2-7.5-1.5-8.8 2.8-4.6-3-7.7-1.7-1.6 1.7-4.6-1.9-1.7-2.2.5-1.9-2.4-12 2.6-7.7-6.9 1.3-3.6-2.9 2.1-.2-2.7 3.1-1 1.6-1.6-.3-3.1 1.9-.9 1.5-5.2 1.6-1.2-2.6-.1-2 5.9-2.4 1.4.7 3.1-2 1.3-1-6.5 4.6-6.7 2.8-1.2.4-3.4 4.4-3.5 2.8.4 11.3-1.2.2 3.6 8.2 4.1 1.7-2.2 9.4 2.4.9-5.9-5.5-.9-1.3-3.4 1.6-.2v-1.2l-4.8.3.1 2.5-2-1.4-.3-2.9-6.9-4.6.3 2 5.3 4.8-.3 1.8-4.5.8 2-3.2-6.1-5.1-2.7 1.3-2.2-.3-3.6 5.5-4.5 1.8-3.5-1.8.1-6.7 6.8.1.5-4.2-3.4-1.3 4.6-1.6 4.8-3.4 2.3-.1-.7-3.1 1.6-.1.3 2.7 4.5.9 1.1-.7 2.7.6.4-3 2.1 1.4-1-2.6 3.2.6.7-1.4-5.7-.6-.8-3.5 1.8-1.1-.3-1.1h-2.3l-1.2 1.5-1.9 1.1.7 2.1 2.1.6-1.4 1.3v1.7l-2.2 1.2-3.3-4.7-3 .8-1.7-4.1 3.8-2.1 6.1-4.4 4.4 1.7 8.1 5.4.3 1-3.9-1.8 3.5 3.6 1.8-.8 3.8 1.4 2.9 2.8m3.6 70.4l-2.5 3.9-1.6 6.5 3.4-4.8z"/><path class="ast5" d="M129.8 41.1l-.3.9 1.9.6-.7 1.3 4.6 5.1-.7 1.5H130v-.3l1.5-.5-1.8-.8 1.6-2.3-2-1.9.1-.6-1.1-1.9zm-2.2 3.9l-1.7.2-1.5 1.2.9.7-.6 1.7 3-.7zm-17.4-13.5l1.9.4-.7.5.8 1.3 3.1.5 4.1-1.7-2.2-1.3-3.7.7-1.7-.9zM80.1 21.1l2.9-.9h1.2l.4-1.5 7.8-1.6.6-.7 3.8-1 2.7 1.1h1l1.2-.9 2 1.7 5.9 3.5.3-.6.6 1.1-3.1.4.1.7 6 .9v.5l-3.5-.1-1.2 1 1.5.7 2.3-.7 1.1.1-1.5 2-4.2 1.5-1.5 2.5-2.8.5-2.6 1.9.5 1.5-1.8 2.3.8.3-.8 3.4-1.7.4-1.5-1.3-1.5.1-2.1.1-2.2-1.4-2.1-2.2 1.8-.9-1.2-.6-1.3.6-.7-1.6 2.5-4.8-.5-2.2-1.4-.5-1.8.5.8-1.3-2.1-3-2-.3-3.2.7.3-.6 2.4-.7z"/><path class="ast5" d="M89.2 28.3l-1.6-.4-.7.2-.9 1.4 2.2-.3-1-.8.7-.2zm-5.5-9.5l-3 .7-2 1.5-6.8 2.5 1.5.5-5.7 2.8H70l-6.7 1.7-.2-.4 3.5-1.2-1.5-.7 2.8-.7-1.2-.6 5.1-2-.1-.5-4.6 1.4.4-.7 9.9-3.5 3.3-.6zm-18.9 7l-2.5-.1-1.6 1.2 1 .1-.4.8zm2.9 2.6l-7.3 2-.6-.4v1.2l7.8-2.1zm-8 5.6l2.9-2.6-.2 2.7.6.3.5-.7v-1.2l1.7-1.4 1.5-.3-.1 1.6 4.1-1.3.6.8 4.5.6-.6.6 1.2.3-.4 1.3 5.8 2-.7.3-1.5 1.4-1.6-.6-1.1-.9-1.1 1.2 2.3 1.9.1 1.6-3.2-.8-.1.5 2.3 1.3h-3L72.4 41l-1.6-.7-1.6.3-1.9.4-.2-.5 2.1-.9h1.4l1.8-3-.3-.8-5.2-2.4-.3.5.8.6-7.3 1.1 1.2-1zm-.2-1.4l-2.3.4-.9 1.5 1.7-.8zm-7.1 3.3h.7l1.1-1.3 1.3.9-3 .9z"/><path class="ast5" d="M54.6 37.4l1.7-1.9.8.1.3 1.3 1.2 1.3 1-.9.2 1.7h.8l1.8-1.8 1.1-1.6.9.4-.2 1.1.2 1.2-.9 1L62 39l-.8.7-1.1.5-.3.9-2.4-.1v.4l2 .8-2.1 1.3-2.4.6 1.1.5-2.3 1.9-1.3 3.2 1.4 1.9 7.5 1.9.1 2.5 1.7 1.6 1.4-.7V55l-.3-1.5 2.9-2.4-.1-1.3-1.3-1.4 1.3-2.1-.4-2.1 1.4-.6h1l1-.2 1.6.4 2.2 1.7-.5 1.8 2 .4 2-.8 1.1-1.9 2 3.2.2 1.8 3.4 2-2.1 1.2.4.4 2.4-.9 1.6.8-.5 1.6-2.9 1.5-2.4.8-3.8.1-3.2 1.4-1.4 2 3.2-1.6 2.3.3-1.5 1 1.3 1.6 1 .9 2.2-.1-.3.6-4.6 2.5.2-1.4 2-1-2-.1-4.8 2.5v2.4l-2.3.5-2.9 4.3-.8-1.5.4 3.3-.8 1.9-4.3 3.3v2.3l1 2.6-.3 2.4-.9.3-1.8-5.4-5.6-.4-.1.9-1.5.1h-2.7l-2 3-.2 2.3-.2 2.8 1.8 3.2 2.4.6 1.6-.6.5-2.1 1-.6 1.3.5-1.2 5.6h3.4l1.3 1.4-.4 2.9 1.9 2.6 2.7-.2 1.4.9.7 1.5.2 2.5.7-.4.2-1.8 5.6 1.2 1.7-.2 1.7.8.4 1 5.3 3.3 3.2.8 2.9 3.9-2.2 2.7 1.9.6 2.2-.1 1.4-.8 3.3 1.9 4.8.8 2.5 1.5 1.4.3.7 3-3.3 4.3-1.5 2.9v3.1l-2.5 3-6 1.9-.2 1.7.2 1.2-4.4 4.3-1.6.5-2.8-.9.1.6.7.2.8 2.1-1.8.6-2.5-.4-.1 1.3h-1.6l-.2 2.2-1.2 1 1.2 1.1-1.5 1.1v.9l-.5.3-1.4-.4-1.9-2.1-.5-2 .2-2.3-1.4-1.3-.3-3.1.8-2-.8-11.4-1.3-2-3.3-1.8-1.7-2.2-1.8-3.7-2.8-3.7.2-1.8 1.1-.8-1.7-1.1.9-1.6 1.6-2.5.4-2.4-.7-1.8 2.4-3.5 2.2-.6-1.7-1.9-1.4 1.3-2.8-1.5-1.9-2.1-.7-1.7-2.9-1.4-1.3-.4-1.6-1.6-1.4-.4-1 .3-5.3-3-1.3-2.5-1.4-3.9-2-4.2-1.6-2-.5.3 1.4 3.8 1.2 3.5-1.1-1.4-.4-2.2-1.5-2.9-.9-3.4-2-3.8 1.3-8.9.8-.2.1-1.4-1.2-1.5-.4-5.3-1.1.3 3.2-7.2.6-1.1 4.3-4.3 4.6-1.8 2.8-.8.4-1.4 2.3-.7h1.7l2.8-1.1.1.6 2.8-3.4z"/><path class="ast5" d="M47.6 37.8h1.2l.7-.8.4.6.2 1 .6.2.8-.3-.3.7-4.6 2.1-1 1-2 .3 2.4-1.7-1.5.2zm12.6 5.5l.6-2.1.9-.3 2.3 1.8-1.4-.4zm26.3 12.3l-1.4.9-2.2 3.8 6.2.7-1.1-2.4-2.6-.8zM57.6 90.7l3.7.3-1.5-1zm9.4 4.4l1.4-.2-.5-1.7 4.4 1.4-.1.5-5.1.3z"/></g><path class="ast6" d="M169 46.4l-9.4 3.1h-.1l-12.8-25.2 12.9 25.1h-.1l9.4-3.2c.1 0 .1 0 .2.1 0 0 0 .1-.1.1z"/><path class="ast6" d="M159.7 49.3l25.8 46.9v.2h-.1l-21.5-.2.1-.1 5 40.9c0 .1 0 .1-.1.1l-39.8 11-39.3 22h-.1l-45.8-27.8L22 94.7v-.1l20.3.1h5.1c1.7 0 3.4-.1 5.1-.2l10.1-.5 40.5-2 60.8 4.1-.1.1-4.3-46.7-39.2-35.2.1-.1 13.2 33.4L164 96.1v.1l-34.9 51.9-51.2-7.5-33.9 1.7 4-47.5 31.2-53L120.1 14l-52.5 3.6 9 18.6 8.9 18.6L103.2 92l30.4-44.5 26 1.9 16.2 8.1-16.2-8.1-26-1.9L103.2 92 85.4 54.8l-8.9-18.6-9-18.6L120 14 79.2 41.8 48 94.7l-4 47.5 33.9-1.7L129 148l34.9-51.9v.1l-30.3-48.6-13.3-33.4v-.1h.1l39.3 35.2c0 .1 0 .1 0 0l4.3 46.8s0 .1-.1.1l-60.8-4.1-40.5 2-10.1.5c-1.7.1-3.4.2-5.1.2h-5.1L22 94.7l.1-.1L44 142.2 89.8 170h-.1l39.3-22 39.8-11-.1.1-4.9-40.9c0-.1 0-.1.1-.1l21.5.2-.1.2-25.8-46.9v-.2c0-.1.2-.1.2-.1z"/><path class="ast6" d="M30.5 59.9l37-42.3-36.8 42.5c0 .1-.1.1-.2 0s0-.1 0-.2z"/><path class="ast6" d="M78 140.5L89.8 170l-.1-.1 48.8-4.1-.1.1-9.5-18.1-8.6-18.6L103.1 92h.1L78 140.5l-.1.1-30-45.9-11.5-41.4 42.7-11.5 54.4 5.8-54.4-5.8-42.6 11.5L48 94.7l30 45.8h-.2L103.1 92s.1-.1.1 0l17.2 37.2 8.6 18.6 9.5 18.1v.1l-48.8 4.2c-.1 0-.1 0-.1-.1l-11.9-29.5c0-.1 0-.1.1-.2.1 0 .1 0 .2.1z"/><path class="ast0" d="M67.6 17.7l36-6.8 16.5 3.1 26.8 10L169 46.1l7.1 11.3 9.5 39-16.6 40.5-30.4 29.3-35.2 5.9-13.5-2-25.4-8-20.7-19.8-9.4-11.8-12-36L30.5 60l4.4-9.3 4.5-4.6z"/><path class="ast7" d="M67.6 17.7l36-6.8 16.5 3.1 26.8 10L169 46.1l7.1 11.3 9.5 39-16.6 40.5-30.4 29.3-35.2 5.9-13.5-2-25.4-8-20.7-19.8-9.4-11.8-12-36L30.5 60l4.4-9.3 4.5-4.6z"/><path class="ast6" d="M8.4 74.2c14.6-2.1 29.1-4.3 43.7-6.3h.1l.1.1 18.1 25.3-.4-.1 29.2-15.5c9.7-5.2 19.5-10.3 29.3-15.4l.2-.1.2.1 33.4 23.1-.4.2 5.6-29.7v-.1h.1l15.5-7.8v.2l-14-1.2 14 1.1h.3l-.3.1-15.4 8 .1-.1-5.5 29.7-.1.4-.3-.2-33.5-22.9h.3c-9.7 5.2-19.5 10.3-29.3 15.4L70.2 93.6l-.2.2-.1-.2-18-25.4.2.1c-14.6 2-29.2 3.9-43.7 5.9z"/><path class="ast6" d="M44.3 40.3l-27.8 5.9.1-.1 31.5 35 .1.1-.1.1-12.7 27.8-.2-.4 44.2 10.9-.3.2 22.6-37.1 22.7-37.1.2-.2.2.1L188.4 81l-.3.3-28.8-30.7-.1-.1v-.1l12.5-22.2.1-.2.1.1 8.8 10.7-8.5 11.7 8.4-11.7v.1l-8.8-10.6h.1l-12.3 22.3v-.2L188.4 81l1.1 1.1-1.4-.7L124.5 46l.4-.1-22.6 37.2-22.7 37-.1.2h-.2l-44.2-11-.4-.1.2-.3 12.8-27.8.1.3-31.4-35.2-.1-.1.2-.1z"/><path class="ast6" d="M137.6 19.5L123.1 1.3h.2l-14.9 9.9-15 9.8.1-.3.5 12.2v.2l-.2.1-49.4 19.7.3-.5 7 24.3-.4-.3c13.8 2 27.6 4.1 41.4 6.1l41.4 6.2-.3.1 17.8-16 .1-.1h.1l22.1-3.8 18.2-1.2h.2l-.1.2-9.6 16 9.4-16.1.1.2-18.1 1.2-22.1 4 .1-.1-17.8 16.1-.1.1h-.2l-41.5-6c-13.8-2-27.6-4-41.5-6h-.3l-.1-.3-6.9-24.3-.1-.4.4-.1 49.5-19.4-.2.3-.2-12.3v-.2l.1-.1 15-9.7 15-9.7.1-.1.1.1 14.3 18.4zM191 120.1c-12.7-5.6-25.5-11.2-38.2-16.9h.2l-69.6 33.6-1.7.8 1.1-1.5c2.6-3.6 5.3-7.1 7.9-10.7l.1.6-53.7-49.4h.4C27.7 82.4 18 88.1 8.2 93.8v-.3l19.4 16.4L7.9 93.7l-.2-.2.3-.1c9.7-5.8 19.5-11.5 29.2-17.3l.2-.1.2.2 54 49.1.3.3-.2.3c-2.6 3.6-5.2 7.2-7.9 10.7l-.6-.7 69.8-33.3.1-.1.1.1c12.6 5.8 25.2 11.6 37.8 17.5z"/><path class="ast6" d="M.6 28.5l40.1-1h.1l.1.2 19.3 35 .1.1-.1.2-7.3 18.2-.5-.5 40.1-11.2.2-.1.2.2 31.3 30.4-.6.2 6.1-21.3.1-.4.4.2 33.7 21.4-.3-.1 20.5-8.8 20.4-8.8-20.3 9.1-20.4 9-.1.1-.1-.1-33.8-21.1.6-.3-6 21.3-.2.7-.5-.5-31.4-30.3.4.1-40.1 11-.8.3.3-.8 7.5-18.2v.3L40.5 27.9l.2.2z"/><circle class="ast8" cx="183.4" cy="47.9" r="1"/><circle class="ast8" cx="167.8" cy="55.9" r=".8"/><circle class="ast8" cx="128.7" cy="62.7" r="1.2"/><circle class="ast8" cx="70" cy="92.9" r="1.5"/><circle class="ast8" cx="52.1" cy="68.1" r="1.1"/><circle class="ast8" cx="8.7" cy="74.1" r=".6"/><circle class="ast8" cx="162.4" cy="85.3" r="1.9"/><circle class="ast8" cx="180.5" cy="38.9" r=".8"/><circle class="ast8" cx="159.8" cy="50.3" r="1.5"/><circle class="ast8" cx="188.7" cy="81.6" r="1"/><circle class="ast8" cx="192.1" cy="67.9" r=".7"/><circle class="ast8" cx="204.3" cy="82.5" r=".7"/><circle class="ast8" cx="173.9" cy="68.8" r="1.2"/><circle class="ast8" cx="152.6" cy="72.4" r="2.3"/><circle class="ast8" cx="130" cy="78.6" r="2"/><circle class="ast8" cx="108.5" cy="85.2" r="1.8"/><circle class="ast8" cx="123.8" cy="100.2" r="1.5"/><circle class="ast8" cx="90.9" cy="82.3" r="2.5"/><circle class="ast8" cx="52.2" cy="82" r="2.1"/><circle class="ast8" cx="51" cy="76.8" r="1.4"/><circle class="ast8" cx="59.8" cy="62.8" r="1.4"/><circle class="ast8" cx="44.1" cy="52.6" r="1.9"/><circle class="ast8" cx="93.7" cy="32.7" r="2.9"/><circle class="ast8" cx="93.5" cy="20.3" r="1.8"/><circle class="ast8" cx="123.2" cy="1.3" r="1.3"/><circle class="ast8" cx="137.1" cy="18.8" r=".8"/><circle class="ast8" cx="43.9" cy="40.2" r=".6"/><circle class="ast8" cx="16.5" cy="46.2" r="1.4"/><circle class="ast8" cx=".5" cy="28.5" r=".5"/><circle class="ast8" cx="47.8" cy="81.1" r="1.4"/><circle class="ast8" cx="37.2" cy="76.5" r="1.4"/><circle class="ast8" cx="8.2" cy="93.6" r="1.4"/><circle class="ast8" cx="35.2" cy="108.9" r="1.4"/><circle class="ast8" cx="79.2" cy="119.8" r="1.4"/><circle class="ast8" cx="91.1" cy="125.7" r="1.8"/><circle class="ast8" cx="153" cy="103.3" r="1.8"/><circle class="ast8" cx="180.2" cy="124.8" r="2.7"/><circle class="ast8" cx="166.7" cy="115.3" r="4.2"/><circle class="ast8" cx="190.3" cy="114.1" r="1.8"/><circle class="ast8" cx="198.6" cy="116.7" r="1.2"/><circle class="ast8" cx="203.7" cy="108.9" r=".9"/><circle class="ast8" cx="190.7" cy="120" r="1"/><circle class="ast8" cx="83.3" cy="136.4" r="2.7"/><circle class="ast8" cx="40.6" cy="27.8" r="1.4"/><circle class="ast8" cx="37.5" cy="33.8" r="2.3"/><circle class="ast8" cx="9.9" cy="32.5" r="1.2"/><circle class="ast8" cx="19.5" cy="37" r="2"/><circle class="ast8" cx="48.7" cy="33.7" r="1.2"/><circle class="ast8" cx="41.6" cy="36.8" r="1.5"/><circle class="ast8" cx="34.4" cy="38.8" r=".7"/><circle class="ast8" cx="24.7" cy="25.8" r="1"/><circle class="ast8" cx="100.2" cy="77.4" r="1.3"/><circle class="ast8" cx="92.5" cy="70.4" r="3.8"/><circle class="ast8" cx="134.2" cy="88.5" r="1.4"/><circle class="ast8" cx="124.7" cy="45.6" r="1.9"/><circle class="ast8" cx="148.5" cy="76" r="1.2"/><circle class="ast8" cx="176.7" cy="68.8" r=".6"/><circle class="ast8" cx="168.2" cy="70" r=".7"/><circle class="ast8" cx="165.4" cy="68" r="1.2"/><circle class="ast8" cx="165" cy="70.7" r="1"/><circle class="ast8" cx="171.9" cy="28.2" r="1.2"/></svg><svg id="man" width="170" height="211.6" viewBox="0 0 170 211.6" y="173" xmlns="http://www.w3.org/2000/svg"><style>.bst0{opacity:.21;fill:#e7ed00;enable-background:new}.bst1{fill:#2b2b2b}.bst2{fill:#656666}.bst3{opacity:.69}.bst4{opacity:.24}.bst5{fill:#249100}.bst6,.bst7{enable-background:new}.bst6{fill:#249100;opacity:.24}.bst7{opacity:.1}.bst8{fill:none;stroke:#2b2b2b;stroke-width:.25;stroke-linecap:round;stroke-linejoin:round;stroke-miterlimit:10}.bst9{opacity:.24;fill:#fff;enable-background:new}.bst10{display:none;fill:none}</style><g id="bHuman_-__x3C_Group_x3E__1_"><path class="bst0" d="M10 90.4l.8 4.1 3.4-.1 3.3-.4-2.9.8-3.2 1.7.6 6.8 1 .6 2.9-.6-2.2 1.8-2.4 1.3 2.3 3-2.2 1.1 9.8 8.3 4 4 2.8-.2 2.6.3 1.8 1.4 2.8-.1 3.3-.6-1.4 1.8 3.1 1.8 2.2 1.8-2.9 3.1 4.2.6-3.2 5.1.9 5.2 1.2 7.8-1.2 5.5-2.1 4-.4.7-8.7 5.4-4 2.3-3.7 1.2-4.9 8.3-2.6 4.6-6.7 10.3-8.2 7.6 26.6-4.7 18.4-2.6 10-7.3-7.2-14.7L59 177v-11.4l17-1.7-1.4 14.3 14-11.4-12.6-2.9 5.2-10.2 13.7 4.2.7-9.6 15.8.8-8.8 11.9 6.2 11.5-17.4 9.8 10.9 10.6 11.8-.8-9.3 19.4 22.6-13.9 5.9-10 36.6 21-5.5-21.7-2.3.3 1-1.9-8.9-3.8-1.8-4.5-11.1-11.6-10.1-3.1.1-2.1-6.7-8.8-4.9-.4 1.1-3.1-7.7 2.2 6.4-5.1-5.3-3.7-4.1-3.5-1.2-10.6-1.7-5.8-1.6-2.7-.2-2.1 1.9-3.8-3.1-2.5 2.6-2.7 1.1-2.6.4-3.4 1-4.1.2-2.7 4.1-3.9-.8-3.2 2.8-1.3-.6-2.3 1.5-1.4 4.1-5v-5.1l1.2-8.5-.1-10.8-.7-6.8-.9-12.9-2.6-3-2.1-3.7-3.2-4.9-5.7-3.1-3.6-4.8-6.3-3.7-6.8-3.9-3.1.4-1.2-2.6-2.9 2.2-.6-4.1-4.9 2.4-.4-2.6-3.3 2.3L68.9 2 63 1.6h-4.4L53.1 1l-8 3.6-3.7 1.5-1.9.9-2.2.2-2.8 2-5 4.3-1 1.7-5.1 4.5-1.6 3.2-1.5 5.5-3.6 2.5 1.2 3.9-1.6 3.8.2 2.6-.4 2.8-.9 3.5.2 3.7 1.6 4.2-2.7 3.2-1.7 3.6-2.8 1.4-1.6 3.9-2.8 2.8-1.3 2-1.4 1.9 1.5 5 1.6.9 1.2-.3-.3 2.1 2.6.9.8 2.3-.3.9 2 1.9z"/><path class="bst1" d="M10 90.4l.8 4.2 3.4-.1 3.3-.4-2.9.8-3.2 1.8.5 6.8 1.1.6 2.9-.7-2.2 1.8-2.4 1.3v-.1l2.3 3v.1l-2.1 1v-.1l7 6 1.8 1.5.9.8c.3.3.6.5.8.8l3.3 3.3 2.8-.2 2.6.3 1.8 1.4 2.8-.1 3.3-.6h.1l-1.4 1.8v-.1l3.1 1.7 2.2 1.8v.1l-2.9 3.1v-.1l4.2.6s.1 0 .1.1l-3.2 5.1c.4 2.2.8 4.3 1.1 6.5l1 6.5-1.2 5.5-1.2 2.3-.6 1.2c-.2.4-.4.8-.6 1.1l-6.3 3.9c-1.1.6-2.1 1.3-3.2 2l-3.2 1.9-3.7 1.1h.1l-3.5 5.9c-1.2 1.9-2.3 3.9-3.4 5.9-.3.5-.5 1-.9 1.5l-.9 1.4-1.9 2.8-3.7 5.7-8.1 7.7-.1-.2 22.5-4 2.8-.5 1.4-.2 1.4-.2 5.6-.8 11.3-1.6h-.1l10-7.3v.1l-7.2-14.8c0-.1 0-.1.1-.1h.1l11.1 5.6-.2.1v-11.3c0-.1 0-.1.1-.1l17-1.7c.1 0 .1 0 .1.1L75.1 178l-.1-.1 14-11.4v.1L76 164s-.1 0-.1-.1l5.1-10.3h.1l13.8 4.2-.1.1.6-9.6s0-.1.1-.1l15.9.8v.1l-8.9 11.9 6.3 11.5v.1l-17.4 9.8v-.1l10.9 10.7 11.8-.9s.1 0 .1.1l-9.3 19.4-.1-.1 22.6-13.9 5.9-10s.1-.1.1 0l36.6 21-.2.1-5.5-21.7.1.1-2.3.3c-.1 0-.1 0-.1-.1v-.1l.9-1.9.1.2-8.8-3.8s-.1 0-.1-.1l-1.9-4.5-11.1-11.6h.1l-10.1-3.1c-.1 0-.1-.1-.1-.1l.1-2.1v.1l-6.6-8.9.1.1-4.9-.4c-.1 0-.1-.1-.1-.1l1-3.1.2.2-7.7 2.2c-.1 0-.1 0-.2-.1v-.1l6.4-5.1v.2l-5.3-3.7-4.1-3.5v-.1l-1.2-10.7-1.7-5.8-1.6-2.7v-.1l-.2-2v-.1l1.9-3.9v.2l-3.1-2.5c-.1 0-.1-.1 0-.2l2.6-2.6 1.1-2.7.4-3.4 1.1-4.1.1-2.7v-.1l4.2-3.9v.1l-.9-3.3c0-.1 0-.1.1-.2l2.9-1.3-.1.2-.6-2.3v-.1l1.5-1.4 4.1-5v.1-5.1l1.3-8.5-.1-10.8-.5-4.9c-.2-1.6-.3-3.3-.4-4.9l-.7-9.8v.1l-2.6-3.1-1.3-2.2c-.4-.7-.8-1.5-1.3-2.2l-2.9-4h.1l-5.7-3.1-3.6-4.7-13.1-7.6h.1l-3.1.4c-.1 0-.1 0-.1-.1l-1.2-2.7h.2l-2.9 2.3h-.2v-.1l-.6-4.1.2.1-4.9 2.4h-.1l-.4-2.6.2.1-3.3 2.3h-.1l-4.4-2.5-5.1-.4c-.9-.1-1.7-.1-2.6-.1h-2.6L53.2 1l-6.7 3.1c-1.1.5-2.3 1-3.4 1.4-.6.2-1.2.4-1.7.7l-1.7.8-2.2.2-2.8 2-5 4.3-1 1.7-5.1 4.4-1.5 3.2-1.5 5.5-3.6 2.4v-.1l1.3 3.9-1.6 3.8.2 2.6-.8 3.1-.9 3.5.2 3.6 1.6 4.2-2.7 3.2-1.7 3.5-2.8 1.4-1.6 3.9L5.4 70l-1.2 2.1-1.5 1.8 1.5 5L5.8 80l1.2-.2-.4 2.1 2.6.9.8 2.3-.2.9 2 1.9-1.8 2.5zm0 0l1.8-2.5-2-1.9.2-.9-.8-2.3-2.6-.9.4-2.1-1.2.2-1.6-.9-1.5-5 1.5-1.8 1.2-2.1 2.8-2.7 1.6-3.9 2.8-1.4 1.7-3.5 2.7-3.2-1.6-4.2-.2-3.6.8-3.7.4-2.8-.2-2.6 1.6-3.8-1.3-3.9v-.1l3.6-2.5 1.5-5.5 1.5-3.2 5.1-4.4 1-1.7 5-4.3L37 7.1l2.2-.2 1.7-.8c.6-.3 1.1-.5 1.7-.7C44 5 45.2 4.5 46.3 4L53 .9l5.6.6h2.6c.9 0 1.7 0 2.6.1L69 2l4.4 2.4h-.1l3.3-2.3h.2l.4 2.6H77l5-2.4c.1 0 .1 0 .2.1l.6 4.1-.2-.1 2.9-2.3h.2l1.2 2.7-.1-.1 3.1-.4h.1l13 7.7 3.6 4.7 5.7 3.1h.1l2.8 4.2c.5.7.9 1.4 1.3 2.2l1.3 2.2 2.6 3.1v.1l.7 9.8c.1 1.6.2 3.3.4 4.9l.5 4.9.1 10.8-1.3 8.5v5.2l-4.1 5-1.5 1.4V84l.6 2.3c0 .1 0 .1-.1.2l-2.9 1.3.1-.2.9 3.3v.1l-4.2 3.9v-.1l-.1 2.7-1.1 4.1-.4 3.4-1.1 2.7-2.6 2.6v-.2l3.1 2.5c.1 0 .1.1 0 .2l-1.9 3.9v-.1l.2 2v-.1l1.6 2.7 1.7 5.8 1.2 10.7v-.1l4.1 3.5 5.3 3.7c.1 0 .1.1 0 .2l-6.4 5.1-.1-.2 7.7-2.2c.1 0 .1 0 .2.1v.1l-1 3.1-.1-.2 4.9.4s.1 0 .1.1l6.6 8.9v.1l-.1 2.1-.1-.1 10.1 3.1h.1l11.1 11.6 1.9 4.5-.1-.1 8.8 3.8c.1 0 .1.1.1.2l-.9 1.9-.1-.2 2.3-.3c.1 0 .1 0 .1.1l5.4 21.7c0 .1 0 .1-.1.1h-.1l-36.6-21.1h.1l-5.9 10-22.6 13.9h-.1v-.1L114 192l.1.1-11.8.9h-.1l-10.9-10.7v-.1l17.4-9.8v.1l-6.3-11.5 8.9-11.9v.1l-15.9-.8.1-.1-.6 9.6s0 .1-.1.1L81 153.8h.1l-5 10.2v-.1l12.6 2.9.1.1-14 11.4h-.1v-.1l1.4-14.3-.1.1-17 1.7.1-.1v11.3c0 .1 0 .1-.1.1l-11.1-5.6.1-.1 7.3 14.8v.1l-10 7.3h-.1l-11.3 1.6-5.6.8-1.4.2-1.4.2-2.8.5-22.5 4c-.1 0-.1 0-.1-.1v-.1l8.2-7.7 3.7-5.7 1.9-2.8.9-1.4.9-1.5c1.1-2 2.2-3.9 3.4-5.9l3.5-5.9h.1l3.7-1.1 3.2-1.9c1.1-.6 2.1-1.3 3.2-1.9l6.3-3.9c.2-.4.4-.7.6-1.1l.6-1.2 1.2-2.3 1.3-5.5-1-6.5c-.3-2.2-.7-4.3-1.1-6.5l3.2-5.1v.1l-4.2-.6s-.1 0-.1-.1l2.9-3.1v.1l-2.2-1.8-3.1-1.7v-.1l1.4-1.8.1.1-3.3.6-2.8.1-1.8-1.4-2.6-.3-2.8.2-3.3-3.3-.8-.8-.9-.8-1.8-1.5-7-6v-.1l2.1-1v.1l-2.3-3 2.4-1.3 2.2-1.8v.1l-2.9.7-1.1-.6-.5-6.8 3.2-1.8 2.9-.8-3.3.4-3.4.1-.9-4.4z"/><path class="bst2" d="M161.4 190.2l4.3 9.2 2.1 4.6c.7 1.5 1.4 3.1 2.1 4.6-.7-1.5-1.4-3-2.2-4.6l-2.1-4.6-4.2-9.2z"/><path class="bst2" d="M164.3 187l-2.9 3.2-28.1-2.6 19-10.5v.1l-13.6 3.7 13.6-3.7h.1v.1l-19 10.5v-.1l28.1 2.7 2.8-3.4z"/><path class="bst2" d="M154.2 181.5l-20.9 6-6.2-6.3h.1L114.1 192v-.1l13.4 5.4h-.1l-.2-16.3.3 16.3v.1l-13.4-5.4v-.1l13.1-10.8h.1l6.1 6.3 20.8-5.9zm7.9 5.8l-.3 1.5c-.1.5-.2 1-.4 1.5l.3-1.5.4-1.5zm-48.1 4.8l-2.4-11.2h.1l-4.6 6c-.8 1-1.6 2-2.3 3l-2.3 3 2.3-3c.8-1 1.5-2 2.3-3l4.7-6h.1l2.1 11.2z"/><path class="bst2" d="M138.7 180.7l2.5-15.3h.1c-3 4.5-5.9 9.1-8.9 13.5l-5.3 2.3 5.2-2.3c2.9-4.5 5.9-9 8.9-13.6h.1l-2.6 15.4z"/><path class="bst2" d="M133.3 187.5l5.4-6.8-11.6.5-15.4-.4 5.4-16.2 10.1 16.7h-.1l4.1-18.9.1.1-14.1 2.3-8.2 7.9 2.8 8.3-20.2 1.4 20.2-1.5-2.9-8.3 8.2-7.9 14.1-2.3h.1l-4.1 18.9h-.1L117 164.6h.1l-5.4 16.2 15.4.4 11.6-.5-5.4 6.8z"/><path class="bst2" d="M131.2 160.3l-14.2 4.4h-.1l3.8-6.6 3.8-6.6-3.7 6.6-3.8 6.6-.1-.1 14.3-4.3z"/><path class="bst2" d="M113.1 150.1l-1.6-1 2.8-7.7-1.2 8.7-10.5 10.9v-.1l14.5 3.6h-.1l2.7-13.6v.1l-6.6-.9 4 14.5-4-14.5c-.1 0-.1 0 0 0l6.7.8s.1 0 0 .1l-2.7 13.6h-.1l-14.5-3.6 10.6-10.9 1.2-8.7-2.8 7.6 1.6 1.1zm18.1 12.2l1.2 16.6v-.1l3.2.9 3.2.9-3.2-.9-3.2-.9v-.1l-1.2-16.4z"/><path class="bst2" d="M111.4 149.1l-1.4-11.2-14.5 10.4-14.5 5.4-11.8.8v-.1l6.7 9.4-6.8-9.4v-.1l11.8-.8 14.5-5.4 14.5-10.3 1.5 11.3zM27 195.9l1.2-15.9h.1l7.6 1.1 7.6 1.2-7.6-1.1-7.6-1.1h.1L27 195.9s0 .1 0 0c0 .1 0 0 0 0z"/><path class="bst2" d="M14.9 182.9l13.3-2.9-19.9 13.1v-.1l18.7 2.8 16.5-13.7 1.6 11.1-1.7-11.1h.1L27 196l-18.7-2.9 20-13.1-13.4 2.9z"/><path class="bst2" d="M43.4 182.2l-10.8-12.9h.1L28.3 180h-.1l-10.5-1.9v-.1l9.1-5.1-9 5.2v-.1l10.5 1.9h-.1l4.5-10.6 10.7 12.9z"/><path class="bst2" d="M28.2 180l-1.5-7 5.9-3.6v.1c-2.2-.2-4.4-.4-6.5-.6v-.1l.5 4.2-.6-4.2v-.1c2.2.2 4.4.4 6.5.6v.1l-6 3.6 1.7 7z"/><path class="bst2" d="M22.5 169.9l2.1 1.5c.7.5 1.4 1 2.1 1.6-.7-.5-1.5-1-2.1-1.5l-2.1-1.6zm16.4-8.9l5.1 1.6-6.9 1.9c-2.3.7-4.6 1.3-6.9 1.9 2.3-.7 4.6-1.3 6.9-2l6.9-1.9v.1l-5.1-1.6zm9 10.3l-3.9-8.7-10.7 4.6v-.1l14.6 4.2s0 .1 0 0c-5.1-.6-10.1-1.2-15.2-1.9l.6-2.1-3.1-.8 2.5 2.9-2.5-2.9 3.1.8-.6 2.1c5.1.5 10.1 1.2 15.2 1.9l-14.6-4 10.7-4.6 3.9 8.6z"/><path class="bst2" d="M59 165.6l-15-3 .3-5.6-2.9-.6v-.1l2.6 6.3h-.1l10-5.9h.1l5 8.9zm0 0l-5-8.9h.1l-10 5.9H44l-2.6-6.3v-.1l2.9.6-.3 5.6 15 3.2z"/><path class="bst2" d="M69.2 154.5l4-10.5 9.4.4-1.5 9.2-7.9-9.7h.1l-9.4 8.2v-.1l5.3 2.5c.1 0 .1 0 0 0L59 165.7l-11.1 5.7-4.5 10.9 11.6 3.9-11.6-3.8 4.4-10.9 11.1-5.7 10.3-11.3-5.5-2.3v-.1l9.5-8.2h.1l7.8 9.7H81l1.5-9.2-9.4-.5-3.9 10.6zm33.3-21.4l3.8 2.4c1.3.8 2.5 1.6 3.7 2.4-1.3-.8-2.5-1.5-3.8-2.4l-3.7-2.4z"/><path class="bst2" d="M82.6 144.4l-2.9-3.2-10.9-.2 9.2-10.3 15.6 6.3v.1l-11 7.3 13 3.8-.1.1-1.9-11.3v-.1l8.9-3.8-7.1 15.1 7-15.2-8.9 3.9v-.1l1.9 11.3v.1l-12.8-3.8c-.1.1-.1 0 0 0-.1 0-.1 0 0 0l11.1-7.5v.1L78 130.7 68.8 141l10.8.3 3 3.1zM54 156.7l-3.3-16h.1l-4.7 10.9v-.1l7.9 5.2zm0 .1l-7.9-5.1v-.1l4.7-10.8h.1l3.1 16z"/><path class="bst2" d="M59 165.6l4.7-13.4-9.7 4.6-9.8.2s-.1 0-.1-.1l1.9-5.4v.1l-3.5-.7 1.6 6.1-1.7-6.1 3.5.7v.1l-1.8 5.4-.1-.1 9.8-.2 9.8-4.5-4.6 13.3z"/><path class="bst2" d="M45.5 145.2l5.3-4.5-5.1 1-.2 3.5c0 .1 0 .1 0 0l-2.3 2h-.1l-1.8-4.1v-.1l4.2 2.2c.1 0 .1 0 0 0l.7 6.3v.1l-2.9-4.4-.6 3.7.5-3.7 2.9 4.4H46l-.5-6.4-4.1-2.2.1-.1 1.8 4.1h-.1l2.3-1.8.1-3.5 5.1-1-5.2 4.5c0 .1 0 .1 0 0 0 .1 0 0 0 0z"/><path class="bst2" d="M41.4 143l4.3-1.3-.4-4.7-1.5-.2-3.2 1v-.1l5.1 3.9-.1.1-1.8-4.9 1.9 4.9v.1l-5.1-3.9v-.1l3.2-1 1.5.2.4 4.7-4.3 1.3zm17.6-3.7l4.3-6.4 5.5 8.1-9.8-1.7 4.9 12.9h-.1l5-11.2h.1l4.4 3 6.4-2.7-6.4 2.7-4.4-3h.1l-5 11.2h-.1L59 139.3c-.1 0-.1 0 0 0l9.8 1.6-5.5-8.1-4.3 6.5z"/><path class="bst2" d="M75.8 128.6l-3.5 6.2c-1.1 2.1-2.3 4.1-3.6 6.1 1.1-2.1 2.3-4.1 3.5-6.2l3.6-6.1c.1 0 .1 0 0 0zm26.7 4.5l-14.3-12.5v-.1l17.2-1.9h.1l-3 14.5zm0 0l2.9-14.4.1.1-17.2 1.8v-.1l14.2 12.6z"/><path class="bst2" d="M108.8 127.3l-6.2 5.8h-.1l2.3-5.9c.8-2 1.6-3.9 2.4-5.8-.7 2-1.5 3.9-2.3 5.9l-2.4 5.8h-.1l6.4-5.8zm-65 9.5l-.1-4.1 1.6 4.3 5.5 3.7 8.2-12.2h.1l-.1 10.8v.1l-8.2 1.4v-.1l12.9 11.5-13-11.4v-.1l8.2-1.4v.1l.1-10.7h.1l-8.2 12.2-5.5-3.7-1.6-4.3v3.9zm23.7-13l11-4.9-2.6 9.7h-.1l-8.3-4.8-4.1 9.1 4.1-9.1c-.1 0 0 0 0 0l8.4 4.7h-.1l2.7-9.7-11 5c0 .1 0 .1 0 0zm39.7-11l-2.6-1.3c-.9-.4-1.7-.9-2.6-1.3l-5.3-2.5-13.7.1-9.4 1.2-8.8 4.6-10.3 2.1-7.3 3.6-7.6.1-3.5 2.3-5.4 1.3 3.9-6.3-6-.9 6 .8-3.9 6.4v-.1l5.4-1.3 3.5-2.3 7.6-.1 7.3-3.6 10.3-2.1 8.8-4.6 9.4-1.1 13.7-.2 5.3 2.5c.9.4 1.8.9 2.6 1.3l2.6 1.4zm-1.8 3.9l-8.5 1.9-4.3.9c-1.4.3-2.8.6-4.3.9 1.4-.3 2.8-.7 4.3-1l4.3-.9 8.5-1.8z"/><path class="bst2" d="M83 107.8l-9.2 7.2v-.1c.8.7 1.6 1.3 2.4 2s1.6 1.4 2.4 2c-.8-.7-1.6-1.3-2.4-2s-1.6-1.3-2.4-2v-.1l9.2-7z"/><path class="bst2" d="M73.7 115l-6.3 8.9-8.4 4.7 4.3 4.3 12.5-4.3 2.2 2 1.6 10.6h-.1l14-4.3v.1l-5.4-16.4h.1L78 130.7l.5-11.7-.4 11.7 10.2-10.1h.1l5.4 16.4v.1l-14 4.3h-.1L78 130.6l-2.2-2-12.5 4.3-4.3-4.4 8.4-4.7 6.3-8.8c0-.1 0-.1 0 0 0-.1 0-.1 0 0zm-21.6 8.3l-4.9-4h.1l-2.1 7.1-.1-.1c2.2-1 4.6-2 7-3zm0 0c-2.3 1-4.6 2.1-7 3.1H45l2.1-7.1 5 4z"/><path class="bst2" d="M45.3 137l13.7-8.5v.1l-15.3 4.1h-.1l1.4-6.3h.1l-2.7 2.7v-.1l1.3 3.6h-.1l8.4-9.4-8.3 9.4h-.1l-1.3-3.6v-.1l2.7-2.7h.1l-1.4 6.3-.1-.1 15.3-4.1-13.6 8.7z"/><path class="bst2" d="M45.1 126.4l-4.8.8-1.7-3.5v-.1c1.1.5 2.2.9 3.3 1.4l3.2 1.4zm-.1 0l-3.3-1.4c-1.1-.4-2.2-.9-3.2-1.4l.1-.1 1.7 3.5 4.7-.6z"/><path class="bst2" d="M45 126.4l-5.5-7h.1l-1.1 4.3h-.1c-.8-.7-1.6-1.3-2.4-2h.1l-.8 2.6.8-2.6c.8.7 1.6 1.3 2.5 2h-.1l1.1-4.3h.1l5.3 7c.1 0 .1 0 0 0 .1 0 .1 0 0 0zm75.6-48.7l-4-1.7-5.5 3.1-6.7 5.5-10.5 4-6.4 5.4-13.6 3.6-9.3 7.8-8.1 1.4-7.9-.2-11 4.1-5.3-.9-3.7 1.9-1.9.9-1.8 1h-3.1l-2.4-.9-4.6-.8-3.1-1.5 3.1 1.5 4.6.8 2.4.9h3.1l1.8-1 1.9-.9 3.7-1.9 5.4.9 11-4.1 7.9.2 8.1-1.4 9.3-7.8L87.6 94l6.4-5.3 10.5-4 6.7-5.5 5.5-3.1 3.9 1.6c0-.1 0 0 0 0zm-12.7 27.2l-3.1-1.5-8.1 4.2-8.3 12.9-9.8-1.5 4.4-11.2h.1l5.3 12.7h-.1l14.8-9.8 2.3 6-2.3-6-14.8 9.9h-.1l-5.3-12.7h.1L78.6 119v-.1l9.8 1.5 8.4-12.9 8.1-4.2 3 1.6z"/><path class="bst2" d="M93.1 96.5l8.2-.3 3.1-11.7 5 10.3v.1l-8.1 1.4-4.6 11.3h-.1l-3.5-11.1 3.6 11.1h-.1l4.6-11.4 8.1-1.4v.1l-5-10.3h.1l-3.1 11.7-8.2.2z"/><path class="bst2" d="M106.8 107.6l-2.1-4.2-.6 6.9-1.1.4 1.6-7.3-3.5-7.2v-.1h.1l6.9 5.4-3.5 1.7 3.5-1.8-6.9-5.4.1-.1 3.5 7.2-1.7 7.3 1.1-.4.6-6.9 2 4.5z"/><path class="bst2" d="M109.3 97.5l-8-1.2-7.5-7.7h.1l-.7 8h-.1L87.5 94l.1-.1 1.5 8.8H89l4.1-6.1-4 6.2H89L87.5 94v-.1l5.6 2.7H93l.8-8 7.4 7.7 8.1 1.2zm-4.9-12.9l7.9-1c.9.2 1.8.3 2.7.5-.9-.1-1.8-.3-2.7-.4l-7.9.9z"/><path class="bst2" d="M113.6 90.8l-9.2-6.3 8.4 3.1-.5-4-1.2-4.6v-.1l5.4 3.6h-.1l.1-6.7 3.9-3.3v.1l-7.1-.2 7.1.1-3.8 3.4-.1 6.7s0 .1-.1.1l-5.4-3.6.1-.1 1.1 4.6.5 4-8.4-3.1 9.3 6.3zm-17 16.8l-7.7-4.9-15.1-5.2.1-.1c3.1 3.4 6.1 6.8 9.2 10.3H83l6-5-5.9 5.1H83c-3.1-3.4-6.1-6.9-9.2-10.3v-.1l15.1 5.2 7.7 5c.1 0 .1 0 0 0 .1 0 0 0 0 0zm-23 1.3l-9.1-3.7.3 8.3-8.4-6.9h.1l-1.9 9-2.4 7.6v-.1l7 5.3-.1.1-4.5-12.9v-.1l12.9 8.3-13-8.2.1-.1 4.6 12.9v.1h-.1l-7-5.3v-.1l2.4-7.6 1.9-9 8.4 6.9-.3-8.3 9.1 3.8z"/><path class="bst2" d="M54.5 115.6l-6.1-9.1-1.3 12.8-9.8-8.6.1-.1 2.2 8.7v.1l-5.1-2.8 1.5 5.1-1.6-5.1 5.1 2.8-.1.1-2.2-8.7v-.1l9.8 8.6h-.1l1.3-12.8 6.3 9.1z"/><path class="bst2" d="M28.5 115.7l-2.3 2.2-1 4.9 2.5-1.6 3 1.6h-.1l-2.2-4.6-2.3-.3-1.6-4.3v-.1l4 2.2c0-.1 0-.1 0 0v2.6l6-1.7-6 1.8v-2.7l-3.9-2.1.1-.1 1.5 4.3 2.3.4 2.1 4.6-3-1.6-2.5 1.6 1-4.9 2.4-2.2z"/><path class="bst2" d="M27.6 121.2l.2.6c.1.2.1.4.2.6-.1-.2-.2-.4-.2-.6l-.2-.6zm-1.4-3.3l-5.1.9 3.5-5.2-3.6-3.9h.1l.4 3.9-.4 5.1H21l-2-6-5.5-3.2.1-.1.9 2.5 6.5 6.8-6.6-6.7-1-2.5v-.1l5.5 3.3 2 6h-.1l.4-5.1-.4-3.9 3.5 3.9-3.5 5.2 5.4-.9z"/><path class="bst2" d="M19.1 112.7l2-3-7.5-.2s-.1 0-.1-.1c.7-.5 1.4-1.1 2.2-1.6.7-.5 1.4-1.1 2.2-1.6-.7.6-1.4 1.1-2.1 1.6-.7.5-1.4 1.1-2.1 1.6v-.1l7.5.2-2.1 3.2zm2-3l2.7 1.4c.9.5 1.8.9 2.7 1.5-.9-.4-1.8-.9-2.7-1.4l-2.7-1.5zm11 .1l-3.6-1.6 5-1.7h.1c-.6 1.1-1.1 2.2-1.5 3.3zm-.1 0c.5-1.1.9-2.2 1.4-3.3l.1.1-5 1.7v-.1l3.5 1.6zm24.4-3.1l-5-8.7 12.2-.1s.1 0 .1.1c-2.5 2.8-4.9 5.7-7.3 8.7zm0-.1c2.4-3 4.8-5.9 7.2-8.8v.1H51.4l5 8.7z"/><path class="bst2" d="M64.5 105.3l-.9-7.4 10.2-.4-.2 8.7c0 1.5-.1 2.9 0 4.4l.1 4.4s0 .1-.1.1l-8.9-1.4.1-.1 2.6 10.3-2.7-10.3v-.1l8.9 1.4-.1.1-.1-4.4c-.1-1.5 0-2.9 0-4.4l.2-8.7-10.2.3 1.1 7.5zm39.9-20.7l-7.8-3.3 6.8-6.2h.1c.3 3.2.5 6.3.9 9.5zm0 0c-.4-3.2-.8-6.3-1.1-9.5h.1l-6.8 6.1v-.1l7.8 3.5z"/><path class="bst2" d="M111.1 79l-7.8-3.9 10-2.7h.1l-2.3 6.6zm0 0l2.2-6.7.1.1-10 2.7V75l7.7 4z"/><path class="bst2" d="M116.6 75.9l-3.3-3.5c-.3-2-.6-4.1-.8-6.1l-.7-6.1c-.1-1-.2-2-.3-3.1l-.2-3.1-.4-6.2-1.8-6.5L107 36l-5.4-1.9-1.9-4.7-6-7.5c-1-1.3-1.9-2.6-2.8-3.9l-2.8-3.9-8.5 1.4-7 .4-4.1-2.1-7 .2-5.1 1.9-8.2 3.9-1 .5c-.3.2-.7.4-1 .6l-2 1.1-4 2.2-6.6 5.4-1.9 7.1 9 10.4v.1l-2.8 6 1.2 7.8-2.7 3.3v-.1l2 6-.6 5.8-2.1 7.4-4.3 6.8-.8 6.8-3.8 4.3-5.4 4-3.5.9-4.2-1.1-.1 4.3.1-4.3 4.2 1.1 3.5-.9 5.4-4 3.8-4.3.8-6.9 4.3-6.8 2.1-7.4.8-5.8-2-6V64l2.7-3.3-1.3-7.6 2.8-6v.1l-9-10.4 1.9-7.1 6.6-5.4 4-2.2 2-1.1c.3-.2.7-.4 1-.6l1-.5 8.2-3.9 5.1-1.9 7.1-.1 4.1 2.1 7-.4 8.5-1.4 2.8 3.9c.9 1.3 1.8 2.6 2.8 3.9l5.9 7.5 1.9 4.7L107 36l2.1 5.3 1.8 6.5.4 6.2.2 3.1c.1 1 .2 2 .3 3.1l.7 6.1c.2 2.1.5 4.1.8 6.1l3.3 3.5z"/><path class="bst2" d="M91.1 55.1l3.9.9 4.3-.7 1.8-.9 1.4 1.4-.5 3.8-1.4 6.7-5.3 1.7-6.1 9.1-4.6-.6-1.6-2v-.1l4.8-9.6 3.3-9.7zm.1 0l-3.3 9.8-4.7 9.7v-.1l1.6 2 4.6.6 6.1-9.1 5.4-1.6 1.4-6.7.5-3.8-1.4-1.4-1.8.9-4.5.6-3.9-.9zm-70.1 54.6l.3-4.3 7.1 2.9-1.7-6.9 6.7 5.2h-.1L30.5 97v-.1l8.5 4.8h-.1l6.7-8.2h.1l1.4 10.2-1.4-10.2h.1l-6.7 8.2H39L30.5 97l.1-.1 2.9 9.5-6.7-5.2 1.7 6.9-7.1-2.9-.3 4.5z"/><path class="bst2" d="M51.4 97.9l-5.7-4.4-6.4.3.1-.1c-.1 2.7-.2 5.3-.3 8 .1-2.7.1-5.3.2-8l.1-.1 6.4-.2 5.6 4.5z"/><path class="bst2" d="M45.7 93.5l8.4-7.9h.1l2.5 7v.1c-1.8.1-3.6.3-5.5.4l-5.5.4zm0 0l5.4-.5c1.8-.2 3.6-.3 5.4-.4v.1l-2.4-7h.1l-8.5 7.8z"/><path class="bst2" d="M56.6 92.7l-5.2 5.2 6.5-4.1 5.9-7.3 10 10.9h-.1l4.5-10.3v.1l-14.6-.6-.2 11.3h-.1l-5.7-4-1-1.2c-.1 0-.1 0 0 0l7.2-6.2v.1l-9.6-.9-3.6-3.6-8.2-.6-6.6 1.9 3.6 10.4-3.6-10.4 6.6-1.9 8.2.6 3.6 3.6 9.6.9s.1 0 .1.1l-7.3 6 1.3 1.1 5.7 4h-.1l.2-11.3 14.5.6-4.5 10.3-10-10.9-5.9 7.3-6.5 4 5.3-5.1z"/><path class="bst2" d="M54.1 85.7L60 75l3.8 11.6h-.1l6.8-17.7h.1l8 5.3v.1L63.9 86.6l14.7-12.4v.1l-8-5.3h.1l-6.8 17.7L60 75l-5.9 10.7z"/><path class="bst2" d="M39.3 93.8l3-12.3 3.5 12.1L50.5 82l9.5-7.1 10.6-6.1 5.9.7 6.6 5v.1l-4.5-.4-2.1-4.6v-.1l11.3-4.7v.1l-2.4-2.2c-.8-.7-1.6-1.4-2.4-2.2L78.4 56l-6.6 1.3-6.7 2.7-3.1 4.2-8 8.1h-9.2l-6.3-2.1 8.4-7.5-8.4 7.5 6.3 2.1H54l8-8.1 3.1-4.2 6.8-2.7 6.6-1.3 4.6 4.6c.7.8 1.6 1.5 2.4 2.2l2.4 2.2v.1l-11.3 4.7v-.1l2.1 4.6 4.5.4v.1l-6.6-5-5.9-.7L60 75l-9.5 7-4.8 11.5-3.5-12.1-2.9 12.4zm41.6-7.9l.9-6.9 4.9 2.9c1.6 1 3.3 1.9 4.9 2.9-1.7-.9-3.3-1.9-5-2.9L81.7 79h.1l-.9 6.9s0 .1 0 0c0 .1 0 0 0 0z"/><path class="bst2" d="M78.6 74.2l3.3 4.9-3.5 8.2h-.1l.1-6.5.2-6.6-.1 6.5-.1 6.5h-.1l3.5-8.2-3.2-4.8z"/><path class="bst2" d="M91.7 84.9L80.9 86l-2.6 1.3 9.1 6.7h-.1l4.4-9.1c0-.1 0-.1 0 0 0-.1 0-.1 0 0l2.2 3.6h-.1l2.7-7.3.1.1-4.9 3.6-2.1-3.4-5.1-4.9h.1l-2.8 2.5 1.2-4.5 2.9.6-2.9-.6-1.1 4.4 2.7-2.5h.1l5.1 4.9 1.9 3.5 4.8-3.7h.1l-2.7 7.3h-.1l-2.1-3.6-4.2 9-9.1-6.7 2.6-1.3 10.7-1z"/><path class="bst2" d="M81.9 79l7.8 2.3-.4-4.3 7.4 4.1v.1h-7.1l7-.1v.1L89.2 77h.1l.4 4.3-7.8-2.3zM61.4 53.5l2.2 3.9c.7 1.3 1.5 2.6 2.3 3.9l4.7 7.6h-.1l1.3-11.6h.1l4.6 12.3h-.1l2-13.6-.1-4 .1 4-2 13.6s0 .1-.1 0l-4.6-12.3h.1l-1.3 11.6-4.7-7.6c-.8-1.3-1.5-2.6-2.3-3.9l-2.1-3.9z"/><path class="bst2" d="M70.6 68.9L62 64.2 60 75l-6-2.7h.1L50.5 82h-.1l-5.6-9.8h.1l-2.6 9.2h-.1L37.8 76l7.1-3.7-7.1 3.7 4.5 5.5h-.1l2.6-9.2h.1l5.6 9.8h-.1l3.5-9.8 6 2.7 2-10.8 8.7 4.7z"/><path class="bst2" d="M44.8 72.3l2.1-9.7 4.5-4.6 10-4.5 6.8-4.4 1.7-1.1c.6-.4 1.1-.7 1.7-1.1l3.5-2 10.5-7.2L99 35.6h.1l-.8 4.8.2 7 2.7 7.1.1 1.4-.1-1.4-2.8-7.1-.2-7 .8-4.8.1.1-13.4 2.1L75.2 45l-3.5 2c-.6.3-1.2.7-1.7 1.1l-1.7 1.1-6.8 4.4-10 4.5-4.5 4.6-2.2 9.6c.1 0 .1 0 0 0z"/><path class="bst2" d="M78.5 55.9l4.5-4.5.8 9.7 7.4-6.1v.1L83 51.5l-4.6.4-6.5 5.3h-.1l-10.5-3.7h.1l-4.2 8.8 7.9-2.4-7.9 2.4 4.2-8.9h.1L72 57.1h-.1l6.5-5.3 4.6-.4 8.2 3.6-7.4 6.1-.8-9.7-4.5 4.5zm5.3 5.3l-3.6 4.2c-1.2 1.4-2.4 2.8-3.7 4.1l3.6-4.2 3.7-4.1z"/><path class="bst2" d="M82.9 51.5l6.5-4.6 5.3 1.4v.1l-3.6 6.8H91l-1.6-8 1.7 8H91l3.6-6.8v.1l-5.3-1.4-6.4 4.4zm6.6-4.6l-.8-1.7c-.3-.5-.5-1.1-.7-1.7.3.5.6 1.1.8 1.7l.7 1.7zm11.9 8.9l.8 3.8-4.3-.8-2.1 4.5h-.1L95 56s0-.1.1-.1l2.7 2.9h-.1l1.7-3.6-1.6 3.6L95 56h.1l.6 7.4h-.1l2.1-4.5 4.3.8-.6-3.9c-.1 0-.1 0 0 0-.1 0 0 0 0 0z"/><path class="bst2" d="M95.7 63.4l-3.8 1-4 .6-1 5-.9 5.1 3.2 1.9-3.3-1.9.9-5.1.9-5.1 4-.6 4-.9c0-.1 0 0 0 0z"/><path class="bst2" d="M87.8 64.9l7.5 3.1-4.7 3.6c-1.6 1.2-3.1 2.4-4.7 3.6l-1.4 1.3 1.3-1.4c1.6-1.2 3.1-2.4 4.7-3.6l4.7-3.6v.1l-7.4-3.1zm13.4-10.5l3.8-6.3-2.4 7.7h-1.3l-3.6 3.1 3 7.5v.1l-5.1-3h.1l-.3 4.5s0 .1-.1 0l-3.5-3.7v-.1l3.3-8.3-.3-7.7.3 7.7-3.2 8.3v-.1l3.5 3.7h-.1l.4-4.6h.1l5.1 3-.1.1-2.9-7.5 3.6-3h1.3l2.4-7.7-4 6.3z"/><path class="bst2" d="M102.6 55.8l8.9 1.4-9.4 2.5 3.2 7.8h-.1l6.1-10.2v.1l-6.5-9.1v-.1l5.9-.3 4.3-4.6 3.3.2-3.3-.2-4.3 4.6-5.9.4v-.1l6.5 9.2v.1l-6.2 10.2h-.1l-3.2-7.8 9.4-2.4-8.6-1.7z"/><path class="bst2" d="M96.6 81.2L95.3 68l8 7.1h-.1l-2.6-8.7v-.1l4.6 1.1 7.5.9h4v.1l-5.3-11.1v-.1h.1l9.8 6.2-4.5 5 4.5-5-9.8-6.1.1-.1 5.3 11.1v.1h-4l-7.5-1-4.6-1.1v-.1l2.6 8.7-8-7.1 1.2 13.4z"/><path class="bst2" d="M116.8 68.4l2.5.4 2.6-4.8-.6-.6c.1-3.4.2-6.8.4-10.1 0 3.4-.2 6.8-.3 10.1l.6.6-2.6 4.8-2.6-.4z"/><path class="bst2" d="M119.3 68.8l1.2 3.7-3.7-4.1-3.4 4h-.1l-8-4.9h.1l-2 7.6 1.9-7.6h.1l8 4.9h-.1l3.4-4 3.7 4.2-1.1-3.8zm-10.2-27.5l6.1 1.8.8 5.4v.1c-.9-.1-1.7-.3-2.6-.4l-2.6-.4 2.6.4c.9.1 1.7.3 2.6.4l-.1.1-.8-5.4-6-2z"/><path class="bst2" d="M116 48.6l-4.6 8.7 6.4-3 3.7-1-5.5-4.7 2.5-5.3-3-4.8-3.3-2.3-5.2-.2.8-4.2-3.9-7-2.8-2.1-7.6-1.2-5.5 1.1-7.5-1-6-1.6-5.9-2.7-8.2.1-3.8-1.5-2.6-2.5h.1l-5 .9c-.8.1-1.7.2-2.5.3l-2.5.4-6 3.3-6.4 2.7-6.6 3.5-4.7 3.8 3.1 2.4 4.7 2.6-4.7-2.6-3.1-2.4 4.7-3.8 6.6-3.6 6.3-2.8 6-3.3 2.5-.3c.8-.1 1.7-.2 2.5-.3l5-.9h.1l2.4 2.5 3.8 1.6 8.2-.1 5.9 2.7 6 1.6 7.5 1 5.5-1.1 7.6 1.2 2.8 2.1 3.9 7-.7 4.2 5.2.2 3.3 2.3 3 4.8-2.5 5.3 5.6 4.7-3.7 1-6.4 3 4.5-8.7z"/><path class="bst2" d="M121.2 63.4l-2.7-7.4-.7-1.8-.6-1.9-1.2-3.7 4.8-2.3-2.3-2.9 1.5-9.7h.1l-4.5 4.9-6.4 2.7-4.1 6.8h-.1l-6.5-.8-3.7.9v-.1l4.6 7-.8-7.8.9 7.8-4.7-7V48l3.7-1 6.5.8h-.1L109 41l6.4-2.7 4.5-4.9h.1l-1.5 9.7 2.3 2.9-4.8 2.3 1.2 3.7.6 1.9.7 1.8 2.7 7.7z"/><path class="bst2" d="M115.2 43.2l.3-4.6 1.8-7.9-5.1 5.5-3.1 5.1-10.8-.9-3.5 7.9h-.1L88 43.6h.1L83 51.5h-.1l-7.7-6.6.1-.1 3.1 7v.1L71 47.3l.9 9.9-1-9.9 7.4 4.5-.1.1-3.1-7v-.1h.1l7.7 6.6h-.1l5.1-7.9h.1l6.8 4.7h-.1l3.5-7.9 10.8.9 3.1-5.1 5.1-5.5-1.8 7.9-.2 4.7z"/><path class="bst2" d="M105 48.1l-6.8-7.7v-.1l4.4-2.2c1.5-.7 2.9-1.4 4.4-2.1-1.4.8-2.9 1.5-4.3 2.2l-4.4 2.2v-.1l6.7 7.8zm-3.5-14l6.2-2.3 2.4-.4 2.4-.3c.8-.1 1.6-.1 2.4-.2l2.4-.2-2.4.3c-.8.1-1.6.2-2.4.2l-2.4.3-2.4.3-6.2 2.3z"/><path class="bst2" d="M112.2 31.2l-4.1-6-.3 6.6 4.4 4.4v-5l3.2-4.3-7.3-1.7 1.1-4.7h.1l-3 3.2-2.7-3.1-1.7-1.1c-.6-.4-1.2-.7-1.7-1l-3.5-2-3.8-3.1-3.9-2-6.1-.4-4.1-2.1L72.1 7l-5.8-1.2-5.1-.2-4.2-.7-3-.1c-1 0-2-.1-3-.1h-5.9l-4.7 6.2-4.9 2.6-7.2 1.8v-.1l3.3 5.7-8.3-1.3 1.6 4.9-3.3-1.7 3.3 1.7-1.6-4.9 8.3 1.3-3.3-5.7v-.1l7.2-1.8 4.9-2.6 4.7-6.2H51c1 0 2 .1 3 .1l3 .1 4.1.6 5.1.2L72 6.7l6.7 1.9 4.1 2.1 6.1.4 3.8 1.9 3.8 3.1 3.5 2c.6.3 1.2.7 1.7 1l1.7 1.1 2.7 3.2 3-3.1-1.2 4.7 7.3 1.7-3 4.5v5.1l-4.4-4.4.3-6.6 4.1 5.9z"/><path class="bst2" d="M103.8 24.8l4.3.3v.1l-1.8-1.5h.1c-.9.4-1.7.7-2.6 1.1zm0 0l2.4-1.2h.1l1.8 1.5v.1l-4.3-.4zm8.3-2.8l-2 1.6c-.6.6-1.3 1.1-2 1.6.6-.6 1.3-1.1 2-1.6l2-1.6c0-.1 0-.1 0 0zm-8.5-1.5l-.9-6.5-6 2.3-.2-6-3.7 2.9-3-6.7-.8 4.7-.9 2.9-.2 8.4.9 7-8.4-8h.1l-1.8 13.4h-.1L74.3 20h.1l-6 13-6.4 9.2h-.1l-11.5-1.4h.1L49.1 47l-11 6 13.4 5-13.4-4.9 11-6.1 1.4-6.3h.1L62 42.1h-.1l6.4-9.2 6-13h.1L78.7 35h-.1l1.8-13.4 8.4 8h-.1l-.9-7 .2-8.4.9-2.9.8-4.7 3 6.7 3.7-2.9.2 6 6-2.2 1 6.3zm4.2 11.3l-8.1-2.4-.6 6.2H99l2.5-1.5h.1v.1l-1.7 3.1-1.7 3.1 1.6-3.2 1.6-3.1.1.1-2.5 1.5h-.1l.6-6.2 8.3 2.3z"/><path class="bst2" d="M96.8 16.3l4.3 6.4h-.1l2.6-2.2 2.8-1.7h.1c-.1 1.6-.1 3.2-.2 4.8 0-1.6.1-3.2.1-4.8l.1.1-2.8 1.7-2.6 2.2h-.1l-4.2-6.5z"/><path class="bst2" d="M103.8 24.8l-4.1 4.6h-.1c.4-2.2.9-4.5 1.4-6.7-.4 2.2-.9 4.5-1.4 6.7h-.1l4.3-4.6z"/><path class="bst2" d="M99.7 29.4l-10.9.2-3.1 8.1-7-2.6-10.1 5.5-6.6 1.6-.6 11.3s0 .1-.1 0l-9.5-4.3h.1l-.4 8.8 5.8 4.3 4.8 1.8-4.8-1.8-5.8-4.3.4-8.9s0-.1.1-.1l9.5 4.3h-.1l.6-11.1 6.5-1.5 10.1-5.5 7 2.6 3.1-8.1 11-.3z"/><path class="bst2" d="M88.8 29.6l-10.1 5.5-3.4 9.8L88 43.5l10.2-3.2v.1l-12.5-2.7 2.3 5.9-2.3-5.8 12.6 2.6v.1L88 43.6l-12.8 1.3 3.4-9.8 10.2-5.5z"/><path class="bst2" d="M78.6 35.1L68.4 33l.1 7.6c1.1.7 2.2 1.4 3.4 2.2l3.3 2.2-3.4-2.1c-1.1-.7-2.3-1.4-3.4-2.1V33l10.2 2.1c.1 0 .1 0 0 0 .1 0 .1 0 0 0z"/><path class="bst2" d="M68.5 40.6l2.4 6.7-8.9-5.1-10.2 7h-.1c-.5-2.8-.9-5.6-1.4-8.4l-7.6-1.2 7.6 1.1c.5 2.8.9 5.6 1.4 8.4h-.1l10.2-7 8.9 5.2-2.2-6.7z"/><path class="bst2" d="M51.9 49.2l-2.8-2.1 1.2 5.5c.4 1.8.8 3.7 1.1 5.5-.4-1.8-.8-3.7-1.2-5.5L49.1 47l2.8 2.2zM31.8 36.6l11.1 3 6.8-8.6 9.1.9L62 42.2l-3.3-10.3-9.1-.9-6.6 8.7-11.2-3.1c0 .1 0 0 0 0z"/><path class="bst2" d="M68.4 33l-9.6-1.1-1.6-11.4 11.2-3.2V33L57.2 20.5h.1L52 26.4l-4.4 3.1-4 1.7-2 .8c-.7.3-1.3.6-2 .9l-7.8 3.7-7-.4-6.9-1.5s-.1 0 0-.1l5.6-4 1.6-6.2h.1l8.6 5.1-5.5 3.8-3.3-8.7 3.2 8.8 5.5-3.8-8.7-5h.1l-1.6 6.2-5.6 4v-.1l6.9 1.5 7 .4 7.8-3.7c.7-.3 1.3-.6 2-.9l2-.8 4-1.7 4.4-3.1 5.3-5.9h.1l11 12.5V17.3l-11.2 3.2 1.5 11.4 9.7 1.1zM49.1 47l-6.2-7.4h.1L40.9 47h8.2zm0 0c-2.7 0-5.5.1-8.2.1 0 0-.1 0-.1-.1l2.1-7.4 6.2 7.4z"/><path class="bst2" d="M49.7 31l.8 9.7h-.1l8.3-8.9v.1l-3.4-2.7-3.4-2.8h.1L49.7 31zm0 0l2.2-4.6 3.4 2.7 3.4 2.8v.1l-8.3 8.9-.7-9.9z"/><path class="bst2" d="M42.9 39.6l-1.7-7.5 8.5-1.1v.1l-9.4-6.8h.1l1 7.9v.1l-7.5-2.6-2-8.6 2.1 8.6 7.5 2.5-.1.1-.9-7.9v-.1l9.4 6.8-8.5 1.1 1.5 7.4z"/><path class="bst2" d="M47.5 29.5l-.5-9.1v-.1l2.4 3 2.4 3c-.8-1-1.6-2-2.5-3l-2.4-3h.1l.5 9.2zM58.4 1.6L57 4.9l.8 4 3.7 5.1 6.9 3.3h-.1l.1-3.4 3.5-3 6.8-2 3.8-2.3.3 4.3-.3-4.3-3.8 2.3-6.8 2-3.5 3-.1 3.4-6.8-3.3-3.7-5.1-.8-4 1.4-3.3zm40.6 34l-10.3-6 3.8-6.7c.6-1.1 1.3-2.2 2-3.3l2.1-3.3v.1L88 14.3l-7.7 7.5h-.1l-.8-6.1 3.3-4.6-3.3 4.6.8 6.1h-.1l7.7-7.5 8.6 2.1v.1l-2.1 3.3c-.7 1.1-1.4 2.2-2 3.3l-3.9 6.7L99 35.6c.1 0 .1 0 0 0 .1 0 .1 0 0 0zM68.4 17.3l2.1-.7c.7-.3 1.4-.5 2.1-.6-.7.3-1.4.5-2.1.7l-2.1.6z"/><path class="bst2" d="M72.1 10.9l3.8 2.3c1.3.8 2.5 1.6 3.7 2.4-1.3-.7-2.5-1.5-3.8-2.3l-3.7-2.4c0-.1 0-.1 0 0zm16.9.4L86.7 7h.1L83 11v-.1c1.8 1.1 3.5 2.2 5.2 3.3-1.8-1-3.5-2.1-5.3-3.2v-.1l3.8-4 2.3 4.4z"/><path class="bst2" d="M86.7 6.9l-4-.3-5.5-1.7 1.8 4 .8 6.7-5.2 4.4h-.1l-1.7-4-.8-5.1.1-3.9 1.2-2.4L77 5l-3.7-.4L72.2 7v3.9l.6 5.1 1.7 4h-.1l5.2-4.4-.7-6.7-1.7-4 5.5 1.7 4 .3z"/><path class="bst2" d="M77.1 4.9L72.2 7l-2.8-2.6v-.1c1.3.1 2.7.1 4 .2-1.3 0-2.7-.1-4-.1v-.1l2.8 2.6 4.9-2z"/><path class="bst2" d="M68.6 13.9L64 9.6l8.1 1.2v.1l-5.8-5.1-1.2-1.7V4l3.6-2h.1l.6 2.3v.1l-3.1 1.4-1.2 2c-.4.7-.8 1.4-1.2 2L61.6 14l-1.3 3.4-3 3.1 3-3.1 1.2-3.4 2.3-4.2c.4-.7.8-1.4 1.2-2l1.2-2 3.1-1.4v.1L68.7 2h.1l-3.6 2v-.1l1.2 1.7 5.8 5.1L64 9.6l4.6 4.3z"/><path class="bst2" d="M64 9.6l-2.8-4.1 4-1.5L63 1.6l-5.9 3.3-4-3.9h.1l-1.7 3.7-.6 4.3 3.3 4.5h-.1L57.9 9l6.1.6zm0 0l-6.2-.7-3.8 4.5h-.1L50.8 9l.6-4.3L53.1 1h.1l3.9 3.9L63 1.6 65.2 4l-4 1.4L64 9.6z"/><path class="bst2" d="M62.9 1.6l-1.7 3.9-3.4 3.4-7 .1-10.3 1.9-2.5 7.4h-.1l-2.4-4.8h.1L31.7 21v-.1l8.6 3.3-2.2-6 2.2 6-8.6-3.2v-.1l3.9-7.5h.1l2.4 4.8H38l2.5-7.4 10.3-1.9h7l3.4-3.4 1.7-3.9z"/><path class="bst2" d="M57.1 4.9L50.8 9h-.1L48 6.8c-.9-.7-1.9-1.4-2.8-2.2 1 .7 1.9 1.4 2.8 2.1l2.8 2.1h-.1l6.4-3.9zM49 14.4l3.8.7c1.3.2 2.5.5 3.7.8-1.3-.2-2.5-.4-3.8-.7l-3.7-.8z"/><path class="bst2" d="M47.1 20.4l-3-5.4 6.7-6-1 2.8c-.3.9-.6 1.9-.9 2.8l-1.8 5.8 10.1.1-.1.1-.8-4.6 1.4-7-1.3 7 .8 4.6v.1l-10.1-.3 1.7-5.8c.3-1 .6-1.9 1-2.8l1-2.8h.1l-6.7 6 2.9 5.4zm-3-5.5l-3.6-4.1c.3-1.6.6-3.1.9-4.7-.2 1.6-.5 3.2-.8 4.7l3.5 4.1z"/><path class="bst2" d="M39.6 7l1 3.8v.1l-3.3-3.6 3.3 3.6h-.1L39.6 7c-.1 0-.1 0 0 0-.1 0 0 0 0 0z"/><path class="bst2" d="M40.5 10.8l-6.1-1.6 1.2 4.2v.1h-6c1 0 2-.1 3-.1h3l-.1.1-1.2-4.2 6.2 1.5zm60.8 45.1l-1-.2c-.3-.1-.6-.2-1-.3.3 0 .7.1 1 .2l1 .3c.1-.1.1-.1 0 0 .1-.1 0 0 0 0zM17.9 34.8l3.4 4.7 3.5-3.2 3.3 5.1H28l3.7-4.7v.1l-3.6-3.3h.1l-3.4 2.9h-.1l-1.3-5.5h-6.8l6.8-.1 1.3 5.5h-.1l3.4-2.9h.1l3.6 3.3v.1L28 41.5h-.1l-3.3-5.1-3.5 3.2-3.2-4.8z"/><path class="bst2" d="M16.3 38.5l5.1.9 6.8 1.8 3.7 6.2h-.1V36.5c0 3.6.1 7.3.1 10.9 0 0 0 .1-.1.1l-3.7-6.2-6.8-1.9-5-.9z"/><path class="bst2" d="M46.9 62.6L40.8 56c-1-1.1-2-2.2-3.1-3.3l-3.2-3.2-2.6-2-1.9 4.9-2-4.4.1-6.6-6.9 1.8 2.1 8.1-4.5-3.6-3.7-.2v-.1l3.8 1.3-3.5 2.3v-.1l2.6 1-1 3.3 5.3.3 2.5 1.1 2.1 3.5h-.1l1-4.1h-1.2l2.9-2.5 1.8-.8 2.3 2.1-2.1 3.1-2.8-.6.5 1.5.9 2.2 4 1.9v.1l-5 2.3-2.8 5.2 2 4.9-4.7 7.6L22 93l1.4 4.1-.2 3.2-1.8 5.1h-.1l-3.6-3.7h.1l.1 4.6 3.2 3.4 7.4-1.5h.1l-2 4.3v-.1l2 3.1h-.1l3.6-5.9h.1l2.5 6.7h-.1l2.9-5.9v.1l-3.9-4.1v-.1l5.6-4.7 8.1 1.9 1.3 2.8h-.1l3-8.6-4.3 5.8-9.7 6.9 1.6-8.9-1.6 8.9 9.7-6.9 4.3-5.8-3 8.6-1.3-2.8-8.1-1.9-5.6 4.7v-.1l3.9 4.1v.1l-2.9 5.9h-.1l-2.5-6.7h.1l-3.6 5.9h-.1l-2-3.1v-.1l2-4.3.1.1-7.4 1.5-3.2-3.4-.1-4.6s0-.1.1-.1l3.6 3.7h-.1l1.8-5.1.2-3.2-1.4-3.9 1.7-9.9 4.7-7.6-2-4.9 2.8-5.2 5-2.3v.1l-4-1.9-.9-2.2-.5-1.5 2.8.6 2.1-3.1-2.3-2.1-1.8.8-2.9 2.4v-.1h1.2l-1 4.1-2.1-3.5-2.5-1.1-5.2-.2 1-3.3-2.6-1 3.5-2.3-3.8-1.3 3.7.2 4.5 3.6-2.1-8.1 6.9-1.8L28 48l2 4.4 1.8-4.8 2.6 2 3.2 3.2c1.1 1.1 2.1 2.2 3.1 3.3l6.2 6.5z"/><path class="bst2" d="M18.8 47.6l2.4-4.5v.1c-1.7.2-3.4.5-5.2.6 1.7-.3 3.4-.5 5.2-.7h.1l-2.5 4.5zm2.5-8.1l-2.4 1-2.4.9c.8-.4 1.6-.7 2.4-1l2.4-.9zM19 48.8L18 52l4.2 3.6h-.1l1.1-4.4h.1l1.5 5.5h-.1l1.9-.6v.1l-3.3-4.9 3.4 4.9v.1l-1.9.6h-.1l-1.5-5.5h.1l-1.1 4.4L18 52l1-3.2c-.1 0-.1 0 0 0z"/><path class="bst2" d="M23.3 51.2l6.7 1.1-.4 1.3-6.3-2.4c-1.8.3-3.5.6-5.3.8 1.8-.3 3.6-.5 5.3-.8l6.3 2.4h-.1l.4-1.3-6.6-1.1zm6.7 1.2l1.4.5.2-2.7c.1-.9.1-1.8.2-2.7 0 .9-.1 1.8-.1 2.7l-.2 2.7-1.5-.5zm-2.2 4.3l-1.1-.5.2 4.1h-.1l1.8-2.7.7-2.9.2-.9h.1c-.6.8-1.1 1.6-1.7 2.4l.8 1.5-.9-1zm0 0l.9.9-.8-1.5c.5-.8 1.1-1.6 1.7-2.5h.1v.1l-.2.9-.7 2.9-1.8 2.7-.2-4.1 1 .6z"/><path class="bst2" d="M34.4 49.5l6.4-2.5-9 .5-3.8.5-4.7 3.2-4.3-2.4-.2-1.1-2.7-3.8v-.1l5.2-4.3h.1l-.1 3.7L28 48l-6.8-4.8v-3.7h.1l-5.2 4.3v-.1l2.7 3.8.2 1.1 4.4 2.5L28 48l3.8-.5 9-.4-6.4 2.4zm-6.5 6.6l1.5-1.5 2.1 3.5 4 3.3 1.5-3.5 1-4.8.1.1-4.3 1.9h-.1l.7-5.5h.1l-3 3.3-2 1.8 4.3.4-4.3-.3 2-1.8 3-3.3h.1l-.8 5.3h-.1l4.3-2h.1l-1 4.8-1.5 3.5-4-3.3-2.1-3.5-1.6 1.6c.1 0 0 0 0 0z"/><path class="bst2" d="M37.1 57.9l1.1 1.4c.4.5.7 1 1.1 1.5-.4-.5-.8-.9-1.1-1.4l-1.1-1.5c-.1 0-.1 0 0 0z"/><path class="bst2" d="M33.7 55l3.3 2.9-5.5.2-1.4 3.1 5.4.2 3.7-.6 7.7 1.8 10.3-.3-3.2 9.9h-.1l-7.1-9.7L36.4 64l-1-2.7-1.4 1.6 1.4-1.6 1 2.7 10.4-1.6 7.1 9.7h-.1l3.2-9.9v.1l-10.3.3-7.7-1.8-3.7.6-5.4-.2 1.4-3.1 5.5-.2-3.1-2.9z"/><path class="bst2" d="M34.2 63.1l2.4 1-7.4 1.3 9.4 4.7-12.2.5-8.4-.4h.1l-1 7.2-.1-.1 11.4-1.9 9.4.5-9.5-.4-11.4 1.9h-.1l1.1-7.2h.1l8.4.5 12.2-.5v.1l-9.3-4.7 7.4-1.3-2.5-1.2z"/><path class="bst2" d="M38.6 70.1l-10.2 5.4 7.4 7.8-12-.3v-.1l7.7 7 8 3.7v.1L30.6 97l-7.2.1s-.1 0-.1-.1l8-7 .1.1-9.5 2.9-1.4 4.5-2.7 4.2-4.1-2.8-1.8 4.5 1.7-4.5 4.1 2.8 2.7-4.2 1.4-4.5 9.4-2.9h.1v.1l-8 7v-.1l7.2-.1 8.7-3.2v.1l-8-3.7-7.7-7.1 12 .3-7.4-7.9 10.5-5.4z"/><path class="bst2" d="M11.5 96.6l2.3 2.2h-.1l.5-2c.1-.3.2-.7.3-1s.2-.7.3-1c-.1.3-.1.7-.2 1-.1.3-.1.7-.2 1l-.5 2-2.4-2.2c-.1 0-.1 0 0 0-.1 0 0 0 0 0zm4.5 6.7l1 1.4.9 1.5c-.4-.5-.7-.9-1-1.4l-.9-1.5z"/><path class="bst2" d="M23.2 100.2l-2.7-2.8-6.8 1.4 2.3 4.5h-.1l1.8-1.7 5.5-1.4 3.6 1-.1.1-3.4-4.3-2.8.3 2.8-.4 3.4 4.2v.1h-.1l-3.4-1-5.3 1.5-1.8 1.7H16l-2.3-4.5 6.8-1.4 2.7 2.7z"/><path class="bst2" d="M20.5 97.5l-3-3.5-3.7 4.8c-.2 1.7-.5 3.3-.7 5 .2-1.7.4-3.3.6-5l3.8-4.8 3 3.5c0-.1 0 0 0 0zM20.2 81l-.3 2.6c-.1.9-.2 1.7-.3 2.6 0-.9.1-1.7.3-2.6l.3-2.6z"/><path class="bst2" d="M28.3 75.5L20.2 81v-.1l3.5 2.1v.1l-4.1 3.1v-.1L22 93v.1l-4.4 1h-.1l2.4-2.8-2.7.4 2.7-.5-2.4 2.8v-.1l4.4-1.1v.1l-2.3-6.8V86l4.1-3.1v.1l-3.5-2 8.1-5.5z"/><path class="bst2" d="M10.7 94.4l1.9-1.7 1.8 1.5.7-3.4 4.5-4.7h.1v.1l-2.4 5.5h-.1l-2-.8.1-.1 2.4 3.2-.3-2.4.3 2.4-2.4-3.2v-.1h.1l2 .8h-.1l2.5-5.5.1.1-4.5 4.6-.7 3.4-1.8-1.5-2.2 1.8c.1 0 0 0 0 0z"/><path class="bst2" d="M11.8 87.8l1.1.2-.2 4.8s0 .1-.1.1l-2.7-2.4 2.7 2.4h-.1l.3-4.8-1-.3zm3.3 3L12.9 88l3.4-4h.1c-.2 1.1-.4 2.3-.6 3.4-.2 1.2-.5 2.3-.7 3.4 0 .1 0 .1 0 0 0 .1 0 .1 0 0 .2-1.1.4-2.3.6-3.4.2-1.1.4-2.3.6-3.4h.1L13 88l2.1 2.8z"/><path class="bst2" d="M9.8 85.9l6.5-1.9v.1c-2.1.4-4.1.7-6.2 1.1 2.1-.4 4.1-.8 6.2-1.1h.1v.1l-6.6 1.7z"/><path class="bst2" d="M21.9 93l-2.1-1.8-.3-5-3.2-2.2 3.9-3.1-3.3-3.6 9.5-6.8-4.7-6.1h.1L18 70.2h-.1l-2-1.7c-.7-.6-1.3-1.1-2-1.7l-4.1-3.3h.1l.1 5.3v.1l-4.5 1.4v-.1l.3 2.1 1.9 4h-.1l4.9-1.8 4.4 2.9v.1l-7.1 2.8-.5 2.7 7.1 1.2L9.3 83l.5-2.7 7.1-2.8v.1l-4.4-2.9-4.9 1.8h-.1l-1.9-4-.3-2.1v-.1l4.5-1.4v.1l-.1-5.3v-.1l4.1 3.3c.7.5 1.4 1.1 2 1.7l2 1.7h-.1l3.8-5.6h.1l4.6 6.1-9.5 6.8 3.3 3.6-3.7 2.8 3.3 2.2.3 5 2 1.8z"/><path class="bst2" d="M2.6 74.1l2.9.7 2.1 1.4 2.2 3.9v.1L7 79.9 4.7 78l-2.1-3.9zm0 0l2.1 3.8L7 79.8l2.7.4v.1l-2.2-3.9-2.1-1.5-2.8-.8z"/><path class="bst2" d="M4.3 79.2l.3-1.1c.1-.4.2-.7.3-1.1l.6-2.2-1.4-2.5h1.6l6.8 2.2-2.7 5.7 6.5 3.8h-.1l.6-6.6-1.9-3.8v-.1l3-3.4.1.1-4 .9h-.1l.4-4-4.5 1.7-1.7-1.4 1.7 1.4 4.4-1.7-.3 4h-.1l4-1h.1v.1l-3 3.4v-.1l1.9 3.8-.4 6.7-6.5-3.8 2.7-5.7-6.8-2.2H4.2l1.4 2.5L5 77c-.1.4-.2.7-.3 1.1l-.4 1.1z"/><path class="bst2" d="M5.9 80l-1.2-2.1 2.9-1.7h.1l-.6 3.5c.4.5.7 1 1.1 1.5.4.5.7 1 1.1 1.5-.4-.5-.8-1-1.1-1.5-.4-.5-.8-1-1.1-1.5l.6-3.5h.1l-2.9 1.6 1 2.2zm-.4-5.2l.1-2.5 4.2-3.5 2.6 5.6h-.1l1.5-3.4h.1l1 2.5-2.6.8 2.5-.9-1-2.5h.1l-1.5 3.4h-.1l-2.6-5.6h.1l-4.2 3.4-.1 2.7z"/><path class="bst2" d="M9.9 68.9L12 70c.7.4 1.4.7 2 1.2-.7-.3-1.4-.7-2.1-1.1l-2-1.2c-.1 0-.1 0 0 0-.1 0 0 0 0 0zm19.3-3.5l.9-4.2-3.2-1v-.1c.8-.4 1.5-.8 2.3-1.1l2.4-.9c-.8.3-1.6.6-2.4 1-.7.4-1.5.8-2.3 1.2v-.1l3.2 1-.9 4.2z"/><path class="bst2" d="M26.4 70.6L26 65l1-4.7-4 .2-4.8.8-3.8-2.5v-.1l3.8.5v1.9l-5.7 1V62l1.8 5h-.1l7.4-2.6 1.3-4.1 1.8-3.6-1.7 3.7-1.3 4.2-7.4 2.6h-.1l-1.8-5v-.1l5.7-1v-1.9l-3.8-.5v-.1l3.8 2.5 4.8-.8 4-.2L26 65l.4 5.6z"/><path class="bst2" d="M20.4 58.7l2.6 1.6-.7-4.7h.1l-2 3.1s-.1 0 0 0l-2.2.6h-.1l-1.2-3.9v-.1h.1l3.4 3.4-3.4-3.3.1-.1 1.2 3.9h-.1l2.2-.5 1.9-3.1.7 4.7-2.6-1.6z"/><path class="bst2" d="M23 60.4l3 4.6-4.3-.4c-1.2-1.1-2.4-2.2-3.5-3.4v-.1l2.2-2.5-2.1 2.5V61c1.2 1.1 2.3 2.2 3.5 3.4l4.3.4v.1L23 60.4zm-4.8.8l-1.9 3c-.6 1-1.3 2-2 3 .6-1 1.2-2 1.9-3l2-3zm103.1 2.3l-1 2.6c-.3.9-.7 1.8-1.1 2.6.3-.9.6-1.8 1-2.6l1.1-2.6z"/><g class="bst3"><g class="bst4"><path class="bst5" d="M48 106.7l-1 12.7 7.3-3.4 10.7-2.1 8.6-4.8 9.3-.9 5.1 12 9-12.5L92.8 97l1.4-8.4 2.6-7.2 6.5-6.7-2.6-8.1 5.1 1.1-3.7-7.6.9-4.2-5.1 3 1.7 5.1-4.4 4 1.1 10.9-7 2.1 2.4 3.7-13.5 2.1.2-12.8h4.9L77 69.4l11.2-4.7L84 61l7-5.8 3.5.9 5.1-.9-4.9-7.7-3.5 7.4-8.2-3.4.8 9.4-5.4-5.5-1.9 13.8-4.8-12.1-.7 11.8-8.3-4.9-9.1 8.4-3 8.6 3.7 5.1 2.3 6.5-5.3 6zm40 13.5l-10 10.5-8.8 10-5.3 11.5 8.9-8 6.9-3.2 14.1-4.2z"/></g><path class="bst6" d="M47 119.4l-9.8-8.8 2.4 8.7-4.7-3-6.1 1.9-2.6-.1-5.4.3 4.3 4.4 2.5-.3 3 .4 1.9 1.5 2.5-.2 3.2-.6 6.9 2.9z"/><path class="bst6" d="M121.8 52.7l-1.1-6.9-.2-12.2-4.9 4.7 1.8-7.8-9.5 1.4-4.2-6.9-.1-4.8-7-3.9-8-1.9-6-3.8-4-2-6.6-2-5.5-1L64.9 4l-2.2-2.8L57 4.5l4.1.5-3.4 4.1-6.9-.3-7.1 5.9-5.6 3.3 2.1 6.5-6.3 4.7-1.9 7.4-.1 10.9 2.6 2-.7 5.5-2.1 3.1 3.9 3.2 1.4-3.5 2.1 2.7-1-7.5 8.7 9.6-7.5-1.6-2.8 3.3 1.9 5.4-10.2 6 7.4 7.5-4.4 6.8-.9 6.8 3.3 9.6-4.9 1.6-7.4 1.4-2.6 3.5-2.8.4-1.9-1.6-2.6-1.1 9.4 7.6 4.3 4.4 2.4-.3 3 .4 1.9 1.5 2.5-.3 3.2-.6-1.3 1.9 3.3 1.8 2.4 1.5L39 132l4.2.5 15.4-3.7 8.8-5.3 6.2-8.9 9.1-6.7-4.2 11.1-2.9 9.7-6.5 12-5.3 11.4 9-8-4 9.9 6.9 9.5 5.5-9.9 1.7-9.4 10.6-7.9-5.4-16 17.4-1.5v-2.3l1.6-4-3-2.4 2.5-2.5 1.3-2.4.4-4 .9-3.8.4-2.7 4.2-4-1.3-3.5 3.1-.7-.9-2.4 1.8-1.3 4-5.1v-5.3L122 64l-.2-11.3zm-33.6 12l2.8-9.5.7 9.1-3.5.4z"/><path class="bst6" d="M78.5 119l-10.9 4.7-4.1 9.3-4.4 5.8-7.9 1.4 2.8 16.2-9.8 5.8 3.5 8.8-4.9 10.5 1.6 8.3-17.6 6.5-4.9-1.1-21.8 5.5 8.6-7.9 6-10.4 3.1-4.4 4.4-8.4 4.4-1.4 3.9-2.3 8.4-5.1 2.1-4.9 1.8-4.6-2.1-8.6-.9-5.3 3.6-4.7 15.4-3.7 6.3-15.3 9.3-4.9 8.5-.6z"/><path class="bst6" d="M63.9 152.2l-9.9 4.2 4.9 9-11.2 5.6 11.2 5.7.3-10.9L70 154.5l2.8-10.3z"/><g class="bst4"><path class="bst5" d="M76.5 69.2l-5.5-.3-11 6.4 3.6 11.2-7 6.1 7.3 6-.1-11.9 14.4.1.2-12.8h4.9zm3.8 16.9l7.1 8 6.8-5.5 2.6-7.2 6.5-6.7-2.6-8.1 5.1 1.1-3.3-8.6-4.6-.2 2.8 7.7-5.5 1.4 1.4 13.2-7.3-.2 2.4 3.7zm-6.5 11.8l-9.4 7.4-7.9 1.2-8.5.2-1 12.7-9.8-8.8 2.4 8.7-4.7-3-6.1 1.9-2.6-.1-5.4.3 4.3 4.4 5.5.1 1.9 1.5 2.5-.2 3.2-.6 6.9 2.9 1.9-6.9 7.3-3.6 10.8-2.3 8.5-4.6 9.3-.9z"/></g><path class="bst6" d="M28.3 75.7l10.1-5.9 6.5 2.5 8.7.1 6.4 2.9 11-6.4 5.5.3 6.8 4.8h-4.9l-.2 12.8-14.4-.1.1 11.9-7.3-6-5.3 6-3.3 8.1-1 12.7-9.8-8.8 1.7-9.7-.3-7.8-7.4-3 4.5-6.7zM9.7 90.2l2.8-2 2.5 2.3 4.2-3.9 3 6.3-4.7 1.3-7 .3z"/><g class="bst4"><path class="bst7" d="M11.3 96.5l2.6 2.6 6.5-1.9h2.9l-.2 2.9 3.5 1.1 3.8-4.3 3.3 9.7-4.9 1.5-7.4 1.4-2.6 3.6-2.8.3-4.6-2.6 2.4-1.5-3.1-3.1 2.9-1.1 2.1-1.9-2.7.3-1.5-.3z"/><path class="bst8" d="M11.3 96.5l2.6 2.6 6.5-1.9h2.9l-.2 2.9 3.5 1.1 3.8-4.3 3.3 9.7-4.9 1.5-7.4 1.4-2.6 3.6-2.8.3-4.6-2.6 2.4-1.5-3.1-3.1 2.9-1.1 2.1-1.9-2.7.3-1.5-.3z"/></g><path class="bst9" d="M28.7 57.6l-1.9 2.6 2.4-1.1z"/><path class="bst6" d="M10.5 94.5l2.3-1.7 2.2-2.3 2.4 1.5 2.5-.8 2.3 1.7-4.7 1.3-3.2.3z"/><path class="bst6" d="M10.5 94.5l2.3-1.7 1.5 1.7.7-4 2.5 3.7-3.1.2zM4 79.3l.8-1.4 2.5 1.6 2.6.8-.5 2.5-2.6-2.7h-.9zm25.4-25.2l-2.8 2 .2 4.1 3.2 1.1 1.7-3.2z"/><path class="bst6" d="M29.4 54.1l-1.8 2.1-1.1.3-2.8-5-4.9-3.6-.4 1-.6 3.1-1 3.6-2.5 3-1.9 3.6-2.9 1.6-1.9 4.1-2.5 1.9L4 72.1l-1.5 2.1L4.3 79l1.1 1 1.4.1 2.6 2.8.5-2.5 6.8-3.5-1.5-3.3 2.9-3.9 3.6-4.9 1.4-4.5 3.8-.1 3.6 1.3 1.5-3.4-2.6-4zm-2.4 6l1.7-2.5.4 1.5-2.1 1zm95.2 3.9l-6.3-15.8-4.9-1.3-2-6.2-2.3-5.3-4.9-2-2.3-4.3-6.2-7.6-6.2 1-6.2-1.3-5.9-1.3-2.6-4.3-3.9-2.3-6.9.7-5.3 1.6-8.2 4.6-8 4.3.8 6.8 2 7.9 5.9 6.9 2.3 11.2-4.3 5.3-8.4 7-10.2 6 7.4 7.7-4.4 6.7 7.4 3 .3 7.8-1.7 9.7 2.3 8.7-6.9-3-6.5 1.8-5.4.3 4.3 4.4 5.5.1 1.9 1.5 5.7-.9 6.9 3 1.9-7.1 7.3-3.4L63 114l10.6-4.9 9.4-.9-4.5 10.8 8.4 2-8.3 9.8 1.9 9.8-7.2 3.4-9.4 7.2-4.9 14.2 11.1-11 3.3-9.6 7.9 8.8 1.7-9.4 10.6-7.9-5.4-16 8.2-13.2 9.4-3.8-4.9-7.2 12.9-4.9 3-15.1 3.8-4.2-4-3 5.6-4.9zM96.8 81.4l-7.5-.4 2.3 3.7-10.3 1.4-3.2.7.3-12.8 5 .6-6.9-5.4 11.7-4.5L84 61l7-5.8 4.3 1 2.7 2.7 2.8 7.7-5.6 1.4 1.6 13.4z"/><g class="bst4"><path class="bst10" d="M21.6-48.3l12-10 7.4 1.7 4.6 4.7 4.8 13.2-9.6 2.4L43.6-13l-12.8-.8 4 6.4L17.1-5l-5.5 1.2.4-22 8.6 1.1-12-9.4 20.2-7.8z"/></g><g><g class="bst4"><path class="bst5" d="M88.2 64.7l3.4-.4 3.6 3.7-6 9.2-3.5-2.4 9.4-6.9z"/></g><g class="bst4"><path class="bst5" d="M88.2 64.7L83.3 74l-1.5 4.9 3-2.3 4.4.6 6-9.2.3-4.7-3.9 1z"/></g><g class="bst4"><path class="bst5" d="M40.9 31.4l5.6-1.9 5.2-2.9 5.5-6.2 11.2-3.3 6.2 2.6 13.7 2.7.6 7.3 10 6.1-.4 11.7-3.8 1.1-2.6 6.5-9.5 5.8 4.2 4.8-15.9 3.7-9.6 5.9-5.8-1.6-6.7-27.5-5.9-6.9z"/></g><g class="bst4"><path class="bst5" d="M26.6 56.1l.2 4.1 1.9-2.6-.6-1.6z"/></g><g class="bst4"><path class="bst5" d="M31.9 58l-2.5-3.9-2.8 2-2.8-4.7-4.9-3.6-2 7.8-2.5 3-1.9 3.6-2.8 1.6-1.9 4.1-2.5 1.9L4 72.1l-1.5 2.1L4 79.3l1.9.8h.9l2.6 2.7.5-2.5 3.5-1.4 3.5-2.1.4-3 .6-3.6 4-5.4 4.9-4.6 3.6 1.2z"/></g><g class="bst4"><path class="bst5" d="M31.2 90.1l-.8 6.8 3.3 9.7-12.3 2.9-2.6 3.6-2.8.3-4.6-2.6 9.4 7.6 5.4-.3 6.5-1.8h2.2l4.7 3-2.4-8.7 1.7-9.7-.3-7.8z"/></g><g class="bst4"><path class="bst5" d="M33.9 29.3l-9-5.4-1.2-4.6-2.3 3.2-.4 5.7-4.6 2.1 1.8 4.5-2 4.1.3 1.9-.3 3.2-1.3 3.6.5 3.4 1.5 4.6 2-7.8 4.9 3.6 2.8 4.7 2.8-2 2.5 3.9 1.9-3 .7-5.4-2.6-2-.1-10.7z"/></g></g></g><circle class="bst1" cx="120.5" cy="77.7" r="1.1"/><circle class="bst1" cx="111.8" cy="21.8" r="1.1"/><circle class="bst1" cx="89.8" cy="6.7" r="1.1"/><circle class="bst1" cx="53.1" cy="1.1" r="1.1"/><circle class="bst1" cx="37.4" cy="7.4" r="1.5"/><circle class="bst1" cx="33.9" cy="29.5" r="1.9"/><circle class="bst1" cx="23.3" cy="51.1" r="1.9"/><circle class="bst1" cx="28.7" cy="75.7" r="1.9"/><circle class="bst1" cx="102.5" cy="59.6" r="1.9"/><circle class="bst1" cx="78.4" cy="87" r="1.6"/><circle class="bst1" cx="64.7" cy="113.2" r="2.6"/><circle class="bst1" cx="78.4" cy="130.5" r="1.5"/><circle class="bst1" cx="81.1" cy="153.4" r="1.5"/><circle class="bst1" cx="58.7" cy="165.4" r="1.5"/><circle class="bst1" cx="38.6" cy="160.6" r="2.3"/><circle class="bst1" cx="117.1" cy="164.9" r="2.3"/><circle class="bst1" cx="28.1" cy="180.1" r="1.5"/><circle class="bst1" cx="93.7" cy="136.3" r="3.1"/><circle class="bst1" cx="39.1" cy="119.3" r="1.6"/><circle class="bst1" cx="63.5" cy="97.7" r="1.1"/><circle class="bst1" cx="70.2" cy="68.8" r="3.1"/><circle class="bst1" cx="43.6" cy="39.3" r="3.1"/><circle class="bst1" cx="51.1" cy="57.9" r="1.6"/><circle class="bst1" cx="16.8" cy="77.2" r="1.2"/><circle class="bst1" cx="10.8" cy="94.2" r="1.2"/><circle class="bst1" cx="15.9" cy="103.3" r="1.2"/><circle class="bst1" cx="30.6" cy="97" r="1.2"/><circle class="bst1" cx="96.7" cy="17" r="1.9"/><circle class="bst1" cx="115.7" cy="48.3" r="1.9"/><circle class="bst1" cx="74.6" cy="20.1" r="1.9"/><circle class="bst1" cx="68.8" cy="2" r="1.1"/><circle class="bst1" cx="119.6" cy="34.4" r="2"/><circle class="bst1" cx="121.6" cy="64" r="1.7"/><circle class="bst1" cx="117.4" cy="30.5" r=".7"/><circle class="bst1" cx="115.3" cy="26.6" r=".7"/><circle class="bst1" cx="106.5" cy="18.9" r=".7"/><circle class="bst1" cx="109.3" cy="20.4" r=".4"/><circle class="bst1" cx="102.7" cy="13.9" r=".7"/><g><circle class="bst1" cx="88.3" cy="14.2" r=".9"/><circle class="bst1" cx="88" cy="22.6" r=".9"/><circle class="bst1" cx="80.3" cy="21.5" r=".9"/><circle class="bst1" cx="68.4" cy="17.3" r=".9"/><circle class="bst1" cx="57.3" cy="20.6" r=".9"/><circle class="bst1" cx="47.1" cy="20.2" r=".9"/><circle class="bst1" cx="47.3" cy="29.3" r=".9"/><circle class="bst1" cx="41.2" cy="32.1" r=".9"/><circle class="bst1" cx="37.9" cy="17.9" r=".9"/><circle class="bst1" cx="75.3" cy="44.7" r=".9"/><circle class="bst1" cx="83.1" cy="51.4" r=".9"/><circle class="bst1" cx="88.1" cy="43.5" r=".9"/><circle class="bst1" cx="98.4" cy="40.2" r=".9"/><circle class="bst1" cx="109.1" cy="41.3" r=".9"/><circle class="bst1" cx="105" cy="48" r=".9"/><circle class="bst1" cx="110.9" cy="47.8" r=".9"/><circle class="bst1" cx="111.4" cy="57.1" r=".9"/><circle class="bst1" cx="105.4" cy="67.4" r=".9"/><circle class="bst1" cx="100.7" cy="66.3" r=".9"/><circle class="bst1" cx="95.7" cy="63.4" r=".9"/><circle class="bst1" cx="95.3" cy="68.1" r=".9"/><circle class="bst1" cx="89.1" cy="77" r=".5"/><circle class="bst1" cx="86" cy="75" r=".5"/><circle class="bst1" cx="103.2" cy="75" r=".9"/><circle class="bst1" cx="91.8" cy="84.6" r=".9"/><circle class="bst1" cx="87.4" cy="93.9" r=".9"/><circle class="bst1" cx="93.8" cy="88.4" r=".9"/><circle class="bst1" cx="93.3" cy="96.4" r="1.3"/><circle class="bst1" cx="96.7" cy="107.6" r=".9"/><circle class="bst1" cx="83.1" cy="107.9" r="1.3"/><circle class="bst1" cx="88.2" cy="120.4" r=".9"/><circle class="bst1" cx="79.7" cy="141.3" r=".9"/><circle class="bst1" cx="82.6" cy="144.6" r=".9"/><circle class="bst1" cx="73.2" cy="144.2" r=".9"/><circle class="bst1" cx="63.8" cy="152.3" r=".9"/><circle class="bst1" cx="69.1" cy="154.2" r=".9"/><circle class="bst1" cx="54" cy="156.8" r=".9"/><circle class="bst1" cx="48" cy="171.4" r=".9"/><circle class="bst1" cx="68.9" cy="141.1" r=".9"/><circle class="bst1" cx="78.5" cy="119.1" r=".9"/><circle class="bst1" cx="89" cy="102.7" r=".9"/><circle class="bst1" cx="73.8" cy="97.5" r=".9"/><circle class="bst1" cx="63.7" cy="86.5" r=".9"/><circle class="bst1" cx="45.7" cy="93.5" r=".9"/><circle class="bst1" cx="56.6" cy="92.6" r=".9"/><circle class="bst1" cx="54.2" cy="85.6" r=".9"/><circle class="bst1" cx="50.5" cy="81.8" r=".9"/><circle class="bst1" cx="60.1" cy="74.9" r=".9"/><circle class="bst1" cx="78.8" cy="74.4" r=".9"/><circle class="bst1" cx="54" cy="72.3" r=".9"/><circle class="bst1" cx="62" cy="64.3" r=".9"/><circle class="bst1" cx="57.2" cy="62.2" r=".9"/><circle class="bst1" cx="45.1" cy="72.3" r=".9"/><circle class="bst1" cx="37.7" cy="75.8" r=".9"/><circle class="bst1" cx="35.6" cy="83.3" r=".9"/><circle class="bst1" cx="31.5" cy="90.2" r=".9"/><circle class="bst1" cx="42.2" cy="81.5" r=".9"/><circle class="bst1" cx="39.1" cy="94" r=".9"/><circle class="bst1" cx="51.6" cy="97.9" r=".9"/><circle class="bst1" cx="48.5" cy="106.4" r=".9"/><circle class="bst1" cx="37.4" cy="110.6" r=".9"/><circle class="bst1" cx="34.5" cy="116.4" r=".9"/><circle class="bst1" cx="28.8" cy="118.2" r=".9"/><circle class="bst1" cx="25.2" cy="122.7" r=".9"/><circle class="bst1" cx="30.8" cy="122.7" r=".9"/><circle class="bst1" cx="38.6" cy="123.6" r=".9"/><circle class="bst1" cx="45" cy="126.5" r=".9"/><circle class="bst1" cx="47.2" cy="119.2" r=".9"/><circle class="bst1" cx="54.6" cy="115.8" r=".9"/><circle class="bst1" cx="64.6" cy="105.2" r=".9"/><circle class="bst1" cx="73.7" cy="109" r=".9"/><circle class="bst1" cx="35.4" cy="124" r=".9"/><circle class="bst1" cx="35.9" cy="121.2" r=".9"/><circle class="bst1" cx="21.2" cy="118.6" r=".9"/><circle class="bst1" cx="56.5" cy="106.6" r=".9"/><circle class="bst1" cx="96.7" cy="81.1" r=".9"/><circle class="bst1" cx="95.4" cy="56.1" r=".9"/><circle class="bst1" cx="94.7" cy="48.3" r=".9"/><circle class="bst1" cx="91.1" cy="55.1" r=".9"/><circle class="bst1" cx="99.5" cy="29.2" r=".9"/><circle class="bst1" cx="88.8" cy="29.6" r=".9"/><circle class="bst1" cx="85.6" cy="37.5" r=".9"/><circle class="bst1" cx="107.1" cy="36.1" r=".9"/><circle class="bst1" cx="68.3" cy="32.9" r=".9"/><circle class="bst1" cx="62.1" cy="42.1" r=".9"/><circle class="bst1" cx="68.6" cy="40.5" r=".9"/><circle class="bst1" cx="70.9" cy="47.3" r=".9"/><circle class="bst1" cx="52.1" cy="49.2" r=".9"/><circle class="bst1" cx="61.4" cy="53.4" r=".9"/><circle class="bst1" cx="71.9" cy="57.4" r=".9"/><circle class="bst1" cx="78.2" cy="51.7" r=".9"/><circle class="bst1" cx="87.8" cy="64.7" r=".9"/><circle class="bst1" cx="78.4" cy="55.8" r=".9"/><circle class="bst1" cx="58.8" cy="31.9" r=".9"/><circle class="bst1" cx="50.5" cy="40.7" r=".9"/><circle class="bst1" cx="78.7" cy="35.1" r=".9"/><circle class="bst1" cx="107.5" cy="121.9" r=".9"/><circle class="bst1" cx="102.5" cy="133.3" r=".9"/><circle class="bst1" cx="110" cy="137.7" r="1.1"/><circle class="bst1" cx="95.7" cy="148.4" r="1.1"/><circle class="bst1" cx="113.2" cy="149.8" r=".8"/><circle class="bst1" cx="102.6" cy="160.9" r=".7"/></g><g><circle class="bst1" cx="23.4" cy="19.5" r=".5"/><circle class="bst1" cx="21.8" cy="22.8" r=".5"/><circle class="bst1" cx="25.1" cy="24.5" r=".5"/><circle class="bst1" cx="31.7" cy="21" r=".5"/><circle class="bst1" cx="40.3" cy="24.2" r=".5"/><circle class="bst1" cx="44.1" cy="14.9" r=".5"/><circle class="bst1" cx="49.1" cy="14.3" r=".5"/><circle class="bst1" cx="28.4" cy="15.2" r=".5"/><circle class="bst1" cx="35.6" cy="13.5" r=".5"/><circle class="bst1" cx="34.5" cy="9.3" r=".4"/><circle class="bst1" cx="29.6" cy="13.4" r=".4"/><circle class="bst1" cx="40.6" cy="10.8" r=".5"/><circle class="bst1" cx="20.4" cy="28.4" r=".5"/><circle class="bst1" cx="23.5" cy="30.7" r=".5"/><circle class="bst1" cx="24.8" cy="36.3" r=".5"/><circle class="bst1" cx="28.2" cy="33.3" r=".5"/><circle class="bst1" cx="31.9" cy="36.6" r=".5"/><circle class="bst1" cx="28.2" cy="41.4" r=".5"/><circle class="bst1" cx="21.3" cy="39.6" r=".5"/><circle class="bst1" cx="16.3" cy="38.5" r=".5"/><circle class="bst1" cx="16.2" cy="43.8" r=".5"/><circle class="bst1" cx="21.3" cy="43.2" r=".5"/><circle class="bst1" cx="18.9" cy="47.5" r=".5"/><circle class="bst1" cx="18.2" cy="59.2" r=".5"/><circle class="bst1" cx="18.2" cy="61.2" r=".5"/><circle class="bst1" cx="14.3" cy="67.2" r=".5"/><circle class="bst1" cx="9.8" cy="63.7" r=".5"/><circle class="bst1" cx="5.3" cy="70.1" r=".5"/><circle class="bst1" cx="7.6" cy="76.3" r=".5"/><circle class="bst1" cx="4.7" cy="77.9" r=".3"/><circle class="bst1" cx="4.2" cy="79.1" r=".2"/><circle class="bst1" cx="5.8" cy="80" r=".2"/><circle class="bst1" cx="7.1" cy="79.8" r=".3"/><circle class="bst1" cx="9.8" cy="80.2" r=".3"/><circle class="bst1" cx="5.5" cy="74.8" r=".3"/><circle class="bst1" cx="14" cy="71" r=".3"/><circle class="bst1" cx="17.9" cy="70.2" r=".4"/><circle class="bst1" cx="21.6" cy="64.6" r=".4"/><circle class="bst1" cx="12.5" cy="74.4" r=".5"/><circle class="bst1" cx="2.6" cy="74.1" r=".3"/><circle class="bst1" cx="12.5" cy="62.2" r=".3"/><circle class="bst1" cx="9.9" cy="68.8" r=".3"/><circle class="bst1" cx="8.1" cy="67.4" r=".3"/><circle class="bst1" cx="14.3" cy="58.5" r=".3"/><circle class="bst1" cx="20.3" cy="58.6" r=".5"/><circle class="bst1" cx="25" cy="56.8" r=".5"/><circle class="bst1" cx="18.8" cy="48.7" r=".3"/><circle class="bst1" cx="15.2" cy="47.4" r=".3"/><circle class="bst1" cx="15.5" cy="51.1" r=".3"/><circle class="bst1" cx="18.1" cy="52" r=".3"/><circle class="bst1" cx="17" cy="55.3" r=".4"/><circle class="bst1" cx="22.2" cy="55.6" r=".3"/><circle class="bst1" cx="23" cy="60.4" r=".3"/><circle class="bst1" cx="29.6" cy="53.6" r=".3"/><circle class="bst1" cx="26.7" cy="56.1" r=".3"/><circle class="bst1" cx="16.5" cy="41.3" r=".3"/><circle class="bst1" cx="17.8" cy="34.7" r=".5"/><circle class="bst1" cx="16.8" cy="30.8" r=".5"/></g><g><circle class="bst1" cx="148.8" cy="159.2" r="1.4"/><circle class="bst1" cx="133.8" cy="146.6" r="1.4"/><circle class="bst1" cx="112.4" cy="112.6" r="1.1"/><circle class="bst1" cx="114.2" cy="126" r=".7"/><circle class="bst1" cx="117.8" cy="114.1" r=".7"/><circle class="bst1" cx="123" cy="83.9" r="1"/><circle class="bst1" cx="121.1" cy="46.1" r="1"/><circle class="bst1" cx="126.1" cy="46.1" r="1"/><circle class="bst1" cx="120" cy="24.8" r="1"/><circle class="bst1" cx="110.3" cy="15.8" r="1.4"/><circle class="bst1" cx="99.1" cy="8.6" r="1.6"/><circle class="bst1" cx="119.4" cy="15.5" r="1"/><circle class="bst1" cx="126.6" cy="29.2" r="1"/><circle class="bst1" cx="127" cy="24" r=".8"/><circle class="bst1" cx="132.9" cy="24.3" r=".5"/><circle class="bst1" cx="131.4" cy="46" r=".7"/><circle class="bst1" cx="115.1" cy="84.3" r=".7"/><circle class="bst1" cx="124.3" cy="90.4" r=".4"/><circle class="bst1" cx="113.7" cy="90.8" r=".6"/><circle class="bst1" cx="113" cy="118.1" r=".7"/><circle class="bst1" cx="122.5" cy="106.5" r=".7"/><circle class="bst1" cx="151.8" cy="152" r=".8"/></g></g></svg><svg id="robot" width="185" height="189.7" viewBox="0 0 185 189.7" y="385" xmlns="http://www.w3.org/2000/svg"><style>.cst0{opacity:.16}.cst1{fill:#1da7eb}.cst2{opacity:.19}.cst3{opacity:.36}.cst4{opacity:.75}.cst5{opacity:.25}.cst6{opacity:.34}.cst7{fill:#c3e86a}.cst8{opacity:.26}.cst9{opacity:.39}.cst10{opacity:.55}.cst11{opacity:.33}.cst12{opacity:.14}.cst13{fill:#232323}.cst14{opacity:8e-2}.cst15,.cst16{fill:#e7ed00;enable-background:new}.cst15{display:none;opacity:9e-2}.cst16{opacity:.23}.cst17{opacity:.1;fill:#e7ed00}.cst17,.cst18,.cst19{enable-background:new}.cst18{fill:#e7ed00;opacity:.46}.cst19{opacity:.22}.cst19,.cst20{fill:#e7ed00}.cst21{opacity:.46}.cst22{opacity:.32}.cst23{opacity:.13}.cst24{opacity:.23}.cst25{opacity:.1}.cst26{opacity:.17}.cst27{opacity:.35}.cst28{opacity:.38}.cst29{opacity:.51}.cst30{fill:#424242}</style><g id="cRobotic_hand_-__x3C_Group_x3E_"><g class="cst0"><path class="cst1" d="M69.7 132.5l9.6.2 3.5-13.2-7.9-6.8-7.8 7.1z"/></g><g class="cst2"><path class="cst1" d="M67.1 119.8l12.2 12.9-9.6-.2z"/></g><g class="cst3"><path class="cst1" d="M67.1 119.8h10.2l1.7 12.5z"/></g><g class="cst4"><path class="cst1" d="M77.3 119.8l1.7 12.5 3.8-12.8z"/></g><g class="cst5"><path class="cst1" d="M74.8 113l2.5 6.8 5.5-.3z"/></g><g class="cst6"><path class="cst7" d="M38.5 134.4l9.2-2.7-.7-13.6-9.6-4.1-5.3 9.1z"/></g><g class="cst8"><path class="cst7" d="M38.5 134.4l9.2-2.7-.7-13.6-14.9 5z"/></g><g class="cst9"><path class="cst7" d="M37.5 114.3l-.6 7.1-4.5 1.7z"/></g><path class="cst7" d="M36.9 121.4l-4.5 1.7 6.1 11.3z"/><g class="cst10"><path class="cst7" d="M46.9 118.1l-8.4 16.3-1.6-13z"/></g><g class="cst6"><path class="cst7" d="M14.1 134.7l9.1-2.7-.6-13.6-9.6-4.1-5.3 9.1z"/></g><g class="cst8"><path class="cst7" d="M14.1 134.7l9.1-2.7-.6-13.6-14.9 5z"/></g><g class="cst9"><path class="cst7" d="M13.1 114.6l-.6 7.1-4.6 1.7z"/></g><path class="cst7" d="M12.5 121.7l-4.6 1.7 6.2 11.3z"/><g class="cst10"><path class="cst7" d="M22.4 118.4l-8.3 16.3-1.6-13z"/></g><path class="cst1" d="M77.3 119.8l4.1 4.9-2.4 7.6z"/><g class="cst10"><path class="cst1" d="M73.2 126.3l4.1-6.5 1.7 12.5z"/></g><g class="cst11"><path class="cst1" d="M73.2 126.3l-3.7 6.1 9.5-.1z"/></g><g class="cst12"><path class="cst13" d="M16.4 133.9l4.4-1.3 7 24.5h-4.9z"/></g><g class="cst12"><path class="cst13" d="M16.4 133.9l6.1 4.9-1.7-6.2z"/></g><g class="cst12"><path class="cst13" d="M41.3 133.7l4.2-1.3 7.1 24.6-4.7.1z"/></g><g class="cst12"><path class="cst13" d="M41.3 133.7l4.2-1.3 1.1 3.6z"/></g><g class="cst12"><path class="cst13" d="M71.9 132.6l4.7.1-.9 24.4h-4.8z"/></g><g class="cst12"><path class="cst13" d="M71.9 132.6l-.1 3.6 4.8-3.5z"/></g><g class="cst12"><path class="cst13" d="M71.9 132.6l4.7.1-.3 5.7z"/></g><g class="cst12"><path class="cst13" d="M45.5 132.4l-3 5.4-1.2-4.1z"/></g><g class="cst12"><path class="cst13" d="M20.8 132.6l-2.8 6.7-1.6-5.4z"/></g><g class="cst12"><path class="cst13" d="M65.5 157.1h15.1v11.2H65.5z"/></g><g class="cst12"><path class="cst13" d="M42.5 157.2h15.1v11.2H42.5z"/></g><g class="cst12"><path class="cst13" d="M17.7 157.2h15.1v11.2H17.7z"/></g><g class="cst8"><path class="cst13" d="M8 168.3h171.4v20.6H8z"/></g><g class="cst14"><path class="cst13" d="M92.2 168.1l7.3-7.1h64l8 7.4z"/></g><g class="cst8"><path class="cst13" d="M91.9 153.1l7.6 7.9h64l8.3-7.9z"/></g><g class="cst12"><path class="cst13" d="M91.6 137.8H172v15.1H91.6z"/></g><path class="cst15" d="M124.4 106.1l-17.9-.1-9.4 13.9.2 17.8H166l-.6-18.9-10.9-12.3-10.5 21.4-6.9 5-10-.7-6.9-7.8v-9.7z"/><path class="cst16" d="M97.2 119.5l22.8-1.2.2 6.1 6.9 7.8 10 .7 6.9-5 3.7-8.2 8.6-.8 9.1-.1.6 18.9H97.3z"/><path class="cst17" d="M120 118.3l-22.8 1.2 9.5-13.3 17.9-.4-4.4 8.9z"/><path class="cst18" d="M147.7 119.7l-3.7 8.2-6.9 5-10-.7-6.9-7.8-.2-6.1-8.2 9.4 8.2-3.3-2.5 13.3 9.6-5.4 11 5.7-.6-5.5 22.5 5.3-3.7-18.9z"/><path class="cst19" d="M178.6 30.5l-12-1.3-7.1 6-39.3 79.5v9.6l6.9 7.9 10 .6 6.9-4.9 38.8-79 1.9-9.3-6.1-9.1zm-39.5 92.1l-7.6 1.7-4.3-7.3 3.1-5.4 7.5-1.7 4.2 7.6-2.9 5.1zm35.1-68.8l-8.7-.9-2.6-5 2.7-7 8.4.1 3 5.5-2.8 7.3z"/><g class="cst11"><path class="cst20" d="M93 .3l-8.4 1.3-3.4 6.1 1.6 8.1 68.9 34.6 7.7-15.2 1.8-1.6L93 .3zm2.2 14.9l-4.6.2-3.7-4.1 2.9-5.5 4.1-.1 3.9 3.8-2.6 5.7z"/></g><g class="cst21"><path class="cst20" d="M157.1 39.8l-14.2 6 9.2 4.5z"/></g><g class="cst22"><path class="cst20" d="M153.1 29.4l-10.2 16 14.2-5.6z"/></g><g class="cst23"><path class="cst20" d="M153.1 29.4l4 10.4 2.4-4.6 1.7-1.6z"/></g><g class="cst24"><path class="cst20" d="M142.9 45.8l-6.8-24.2L124 36.4z"/></g><g class="cst24"><path class="cst20" d="M123.7 23.4l-10.8-4.1L124 36.4z"/></g><g class="cst25"><path class="cst20" d="M112.9 19.3l-13.5 5L124 36.4z"/></g><g class="cst26"><path class="cst20" d="M83.7 33.5l-3-2.3-5.4-17.1 1-4.5-1.7-4.9-6.4-1.6-4.7 2.3-2.1 5.5 1.7 4.7L66 17l5 17.4.2 7.3L62 57.2l2.5 1.5 5.8-1.5 7.9-11.8 4.7-2.1L85 38l-1.3-4.5zm-13-20.3l-2.8.1-2.4-2.4 1.9-3.4 2.5-.2 2.6 2.5-1.8 3.4zm9.7 27.4l-3.8.6-1.7-2.2.7-3.4 3.8-.5 1.6 2-.6 3.5z"/></g><g class="cst26"><path class="cst20" d="M57.6 8.7l-5.5-3.6-5.8 1.5-1.9 4.2-16.2 8.8-4.7.9-4.9 3.8.2 6.9 4.6 3.1 5.3 15.1 5.1 2.4 2.8-.8-5.4-18.2 2.1-4.1L49 19.3h4.6l4.4-2.9-.4-7.7zM27.8 30l-3.8.2-1.5-2.3.8-3.3 3.9-.1 1.4 2.1-.8 3.4zM51 15.8l-2.2-1.5-.6-3.5 3.6-1.6 2.1 1.4.5 3.4-3.4 1.8z"/></g><g class="cst26"><path class="cst20" d="M27.2 6.5l-3.6-2.3-5.8.8-2.6 3.2-.7 2.8-10.9 9.8-.7 5.7 1.8 2.1 14.4-10.2 4.5.6 3.8-2.1 4.7.3 9.5-4.9 1.8-5.2-16.2-.6zM24 15l-3.8-.5-1-2.6 1.4-3.1 3.8.7 1 2.3L24 15z"/></g><path class="cst17" d="M165.4 118.8l-9.1.1-8.6.8 6.8-12.7z"/><g><g class="cst27"><path class="cst13" d="M74.7 2.4l9.8-.3L81 7.9l1.8 7.5h-6.1l1.7-2 1.1-4.8L77 3.9z"/></g><g class="cst12"><path class="cst13" d="M77 3.9L70.9.5 47.7 3.7l-4 3-2.1 5.6 2.7-1.4 1.9-4.3 5.9-1.5 5.5 3.6.5 7.7-4.4 2.9h-4.6l-1.9 1.2 2.9 1 16.6-2.4-.6-2-2.9-1.4-1.8-4.8 2.1-5.5 4.7-2.3 6.4 1.5 1.6 5-1 4.5.7 2.2 2.5-2.9 1.1-4.8z"/></g></g><g><g class="cst12"><path class="cst13" d="M134.7 117.5l-4.5-5.8 7.6-1.7z"/></g><g class="cst8"><path class="cst13" d="M134.7 117.5l3.1-7.5 4.1 7.5z"/></g><g class="cst28"><path class="cst13" d="M134.7 117.5l4.5 5 2.8-5z"/></g><g class="cst29"><path class="cst13" d="M134.7 117.5l-3 6.7 7.5-1.8z"/></g><g class="cst28"><path class="cst13" d="M134.7 117.4l-7.4-.4 4.4 7.2z"/></g><g class="cst8"><path class="cst13" d="M130.3 111.7l-3 5.3 7.4.4z"/></g></g><g><path d="M137.2 133.1l-10.2-.5-7.1-8.3.1-9.7v-.1l39.4-79.2 7.1-6.2 12.2 1.3 6.3 9.4-2 9.1-38.9 79.3-6.9 4.9zm-9.9-1l9.8.5 6.6-4.8 38.8-79.2 2-8.8-6.1-9-11.7-1.2-6.8 6-39.3 79.1-.1 9.4 6.8 8z"/><path d="M151.9 50.8L82.8 16.2l-2.1-8.4 3.9-6.4L93.5 0h.1l68 33.3-.2.5L93.4.5 85 1.9l-3.7 6 1.9 8 69 34.4zM33.8 52.1l-5.3-2.5v-.1l-5.3-15-4.7-3.1-.2-7.1 5-4 4.7-.9 16.1-8.8L46 6.4l6.1-1.5 5.7 3.7.5 7.9-4.6 3.1h-4.6l-15.6 9.3-2 3.9L37 51.1l-3.2 1zm-4.9-2.9l4.9 2.3 2.4-.7-5.3-18 2.2-4.2h.1L49 19.2h4.6l4.2-2.8-.5-7.4L52 5.4l-5.6 1.4-1.8 4.2-16.4 8.9-4.6.9-4.7 3.7.2 6.6 4.6 3.1v.1l5.2 14.9zm35.7 9.9l-2.8-1.7 9.3-15.7-.2-7.2-5-17.3-2.9-1.3-1.8-4.9 2.2-5.7 4.8-2.4 6.6 1.6 1.7 5.2-1 4.5 5.4 17 3 2.3 1.6 4.7-2.2 5.5-4.7 2.2-7.9 11.8-6.1 1.4zm-2.1-1.9l2.2 1.3 5.6-1.4 7.9-11.8 4.7-2.1 2.1-5.1-1.4-4.4-3-2.3v-.1L75 14.1l1-4.5-1.6-4.7-6.1-1.5-4.5 2.3-2 5.3 1.7 4.6 2.9 1.5v.1l5.1 17.5.2 7.3-9.2 15.2z"/><path d="M4.6 29l-2-2.4.8-5.9 10.9-9.8.7-2.8 2.7-3.2 6-.9 3.6 2.3 16.2.6-.1.5-16.3-.6-3.5-2.3-5.7.9-2.4 3-.7 2.8L3.9 21l-.7 5.4 1.5 1.9L19 18.2l4.5.6 3.8-2.2 4.8.4v.5l-4.7-.3-3.8 2.1-4.4-.6z"/><path transform="matrix(.9997 -.02343 .02343 .9997 -.029 1.86)" d="M74.2 1.9h10.3v.5H74.2z"/><path d="M50.1 21.8l-3.5-1.3 2.5-1.5h4.6l4.2-2.8-.5-7.4L52 5.4l-5.6 1.4-1.8 4.2-3.4 1.9 2.4-6.3 4.1-3.1L71 .3l6.3 3.4 2.6 4.8-1.2 5-2.9 3.3-.8-2.7 1-4.5-1.6-4.7-6.1-1.5-4.5 2.3-2 5.3 1.7 4.6 2.9 1.5.7 2.4-17 2.3zm-2.3-1.4l2.3.8 16.2-2.4-.5-1.6-2.8-1.3-1.8-4.9 2.2-5.7 4.8-2.4 6.6 1.6 1.7 5.2-1 4.5.5 1.7 2.2-2.5 1.1-4.6-2.4-4.5-6-3.3-23.1 3L44 6.9l-1.8 4.9 2-1.1L46 6.4l6.1-1.5 5.7 3.7.5 7.9-4.6 3.1h-4.6l-1.3.8z"/><path transform="rotate(-.678 79.547 15.46) scale(.99997)" d="M76.4 15.2h6.3v.5h-6.3z"/><path d="M172.4 153.3H91.6l-.2-15.9h80.8l.2 15.9zm-80.3-.5h79.8l-.2-14.8H91.9l.2 14.8z"/><path d="M163.6 161.2H99.4l-7.8-7.9.4-.4 7.6 7.8h63.7l8.6-7.8.4.4z"/><path d="M172.3 168.6H91.5l7.8-7.8.4.3-7 7h78.2l-7.6-6.9.3-.4z"/><path d="M179.6 189H7.8v-20.9h171.9v.5c.1 0 .2-.1.2-.1-.3.7-.4 12.5-.3 20.2v.3zm-171.2-.5H179c0-8.2 0-17.7.3-19.9H8.4v19.9z"/><path d="M80.9 168.6H65.3v-11.7h15.6v11.7zm-15.1-.5h14.6v-10.6H65.8v10.6z"/><path transform="rotate(-87.873 71.432 144.676) scale(.99999)" d="M59.3 144.4h24.3v.5H59.3z"/><path transform="rotate(-87.985 76.119 144.724) scale(1.00002)" d="M63.9 144.5h24.4v.5H63.9z"/><path d="M57.8 168.6H42.1v-11.7h15.6v11.7h.1zm-15.1-.5h14.6v-10.6H42.7v10.6z"/><path transform="rotate(-15.804 44.554 145.3)" d="M44.3 133.3h.5v24h-.5z"/><path transform="rotate(-15.677 49.049 144.551)" d="M48.8 131.7h.5v25.7h-.5z"/><path d="M32.9 168.6H17.3v-11.7h15.6v11.7zm-15.1-.5h14.6v-10.6H17.8v10.6z"/><path transform="rotate(-15.921 19.747 145.452)" d="M19.5 133.3h.5v24.3h-.5z"/><path transform="rotate(-15.656 24.259 144.7)" d="M24 132h.5v25.4H24z"/><path d="M79.5 133l-10-.2-2.7-13.1 8.1-7.3 8.2 7-3.6 13.6zm-9.6-.8l9.2.2 3.4-12.8-7.6-6.5-7.5 6.8 2.5 12.3zM38.4 134.7l-6.6-11.6 5.5-9.4 10 4.2.7 14-9.6 2.8zm-6-11.6l6.2 11 8.8-2.6-.7-13.3-9.2-3.9-5.1 8.8zM13.9 134.9l-6.6-11.6 5.5-9.4 10 4.2.7 14-9.6 2.8zm-6-11.6l6.2 11 8.8-2.6-.7-13.3-9.2-3.9-5.1 8.8zM166.2 138H97.1l-.3-18.3h.1l9.6-13.9h18v.6h-17.7l-9.4 13.5.2 17.6h68l-.4-18.7-11-12 .4-.4 11.1 12.2v.1z"/></g><g><path class="cst30" d="M77.2 119.7c-1.2 2.1-2.5 4.2-3.8 6.3s-2.5 4.2-3.9 6.3c1.2-2.1 2.5-4.2 3.8-6.3 1.4-2.2 2.6-4.3 3.9-6.3z"/><path class="cst30" d="M77.2 119.7l4.2 5.1h.1-.1l-2.8 3.4-5.4-1.8v-.1l-1.2 6.4 4.3 5.7v.1l-4.8 7v-.1l4.5-1.5.3-.1-.3.2-4.7 3.8v-.1l4.5 1.8-4.7 4.9v-.1l4.5 2.5-4.5-2.4v-.1l4.6-4.8h.1l-4.6-1.7-.1-.1h.1l4.8-3.8v.1l-4.5 1.5-.2.1.1-.2 4.8-7v.1l-4.3-5.7v-.1l1.3-6.4 5.4 1.9h-.1l2.9-3.4z"/><path class="cst30" d="M68.7 81.9l9.3 7.6 9.3 7.7.1.1-.1.1-12.5 15.5.1-.1 2.5 6.9-.1-.1 5.4-.2-.1.1-3.5-18.3v-.1h.1l11.4 4.8-11.5-4.6.1-.1 3.6 18.3v.1h-.1l-5.4.2h-.1l-2.6-6.9v-.1l12.6-15.6v.2l-9.3-7.8z"/><path class="cst30" d="M79.3 132.5c-4.1-4.2-8.2-8.5-12.3-12.8l-.1-.1h10.4l1.8 12.7-1.9-12.7H66.9v-.1c4.2 4.5 8.3 8.7 12.4 13zm-3.1.4l-4.4 3.4v-.1l4.4 2.2.1.1h-.1l-4.8 2.8v-.1l4.6 2.7h.1v.1l-4.8 6.9v-.1l4.2 3.4-3.8 2.5 3.8-2.5-4.2-3.3h-.1.1l4.7-7v.1l-4.6-2.7h-.1l.1-.1 4.8-2.8v.1l-4.4-2.2h-.1l.1-.1z"/><path class="cst30" d="M78.6 128.2c-1.1.8-2.2 1.5-3.3 2.3-1.1.7-2.2 1.5-3.3 2.2 1.1-.8 2.2-1.5 3.3-2.3 1-.7 2.1-1.5 3.3-2.2zm-2.1 39.9l4-7.4v.1l-9.6-3.8.1-.1 9.6 9.6-4.1 1.6zm0 0l4.1-1.7v.1L71 157l-.2-.2.3.1 9.6 3.8-4.2 7.4z"/><path class="cst30" d="M70.9 156.9c-1.8 1.5-3.6 2.9-5.3 4.3v-.1c.8 1.2 1.5 2.3 2.3 3.5s1.5 2.4 2.3 3.5c-.8-1.2-1.6-2.3-2.3-3.5-.8-1.2-1.6-2.3-2.3-3.5 1.7-1.4 3.5-2.8 5.3-4.2z"/><path class="cst30" d="M65.8 157.4c.9.7 1.7 1.4 2.6 2.1.9.7 1.7 1.4 2.6 2.2l.2.1H71l-5.4-.6c1.8.1 3.6.3 5.4.5v.1c-.9-.7-1.7-1.5-2.6-2.2-.9-.8-1.8-1.5-2.6-2.2z"/><path class="cst30" d="M70.9 161.7l-5.3 6.5-.1-.1 7.5-3.8 7.5-3.7v.1l-9.6 1zm0 0l9.6-1h.3l-.2.1-7.5 3.7-7.5 3.7-.2.1.1-.2 5.4-6.4z"/><path class="cst30" d="M68.2 165.1c2.8 1 5.5 2 8.3 3l-.1.1c-1.8-2.2-3.7-4.3-5.5-6.5 1.9 2.1 3.7 4.2 5.6 6.4l.2.2-.2-.1c-2.8-1-5.6-2-8.3-3.1zm-14.8 3.2l4-7.4v.1l-9.6-3.8.1-.1 9.6 9.6-4.1 1.6zm0 0l4.1-1.7v.1l-9.6-9.5-.2-.2.3.1 9.6 3.8-4.2 7.4z"/><path class="cst30" d="M47.9 157.1c-1.8 1.5-3.6 2.9-5.3 4.3v-.1c.8 1.2 1.5 2.3 2.3 3.5s1.5 2.4 2.3 3.5c-.8-1.2-1.6-2.3-2.3-3.5-.8-1.2-1.6-2.3-2.3-3.5 1.7-1.4 3.5-2.8 5.3-4.2z"/><path class="cst30" d="M42.8 157.6c.9.7 1.7 1.4 2.6 2.1.9.7 1.7 1.4 2.6 2.2l.2.1H48l-5.4-.6c1.8.1 3.6.3 5.4.5v.1c-.9-.7-1.7-1.5-2.6-2.2-1-.8-1.8-1.5-2.6-2.2z"/><path class="cst30" d="M47.9 161.9l-5.3 6.5-.1-.1 7.5-3.8 7.5-3.7v.1l-9.6 1zm0 0l9.6-1h.3l-.2.1-7.5 3.7-7.5 3.7-.2.1.1-.2 5.4-6.4z"/><path class="cst30" d="M45.2 165.3c2.8 1 5.5 2 8.3 3l-.1.1c-1.8-2.2-3.7-4.3-5.5-6.5 1.9 2.1 3.7 4.2 5.6 6.4l.2.2-.2-.1c-2.8-1-5.6-2-8.3-3.1zm-23.4 3l-4.1-7.4 9.6-3.8.3-.1-.2.2-9.6 9.5v-.1l4 1.7zm0 0l-4.1-1.6 9.6-9.6.1.1-9.6 3.8v-.1l4 7.4z"/><path class="cst30" d="M27.3 157l5.4 4.2c-.8 1.2-1.5 2.3-2.3 3.5s-1.5 2.3-2.3 3.5c.7-1.2 1.5-2.4 2.3-3.5.8-1.2 1.5-2.4 2.3-3.5v.1c-1.9-1.4-3.6-2.8-5.4-4.3z"/><path class="cst30" d="M32.4 157.5c-.8.8-1.7 1.5-2.5 2.2-.9.7-1.7 1.5-2.6 2.2v-.1c1.8-.2 3.6-.4 5.4-.5l-5.4.6h-.2l.2-.1c.9-.7 1.7-1.4 2.6-2.2.8-.7 1.7-1.4 2.5-2.1z"/><path class="cst30" d="M27.3 161.8l5.4 6.4.1.2-.2-.1-7.5-3.7-7.5-3.7-.2-.1h.3l9.6 1zm0 0l-9.6-.9v-.1l7.5 3.7 7.5 3.8-.1.1-5.3-6.6z"/><path class="cst30" d="M30 165.2c-2.7 1.1-5.5 2.1-8.2 3.1l-.2.1.2-.2c1.9-2.1 3.7-4.3 5.6-6.4-1.8 2.2-3.7 4.3-5.5 6.5l-.1-.1c2.7-1 5.5-2 8.2-3zm2.4-42.2l14.3-5 .2-.1-.1.2-8.3 16.2-.2.3v-.3l-1.5-12.8v-.1l.5-7.4v-.1l10.5-9.1v.1l1.1-9.9L50 85l-1 10-1 9.9-.1.1-10.4 9.1h.1l-.6 7.4v-.1l1.5 12.9-.2-.1 8.4-16.2.1.1z"/><path class="cst30" d="M32.2 123.2l2.6 1.5 2.6 1.5h-.1c2.1-.7 4.1-1.4 6.2-2.1h.1v.1c.7 1.2 1.3 2.4 2 3.7.7 1.2 1.3 2.5 1.9 3.7l-2.1-3.6c-.7-1.2-1.4-2.4-2-3.6l.1.1c-2.1.7-4.1 1.4-6.2 2.1l-2.6-1.6-2.5-1.8z"/><path class="cst30" d="M43.6 124.2c-1.2-.4-2.3-.8-3.4-1.3l-3.3-1.5c1.2.4 2.3.8 3.4 1.3 1.2.5 2.3 1 3.3 1.5zm-2.4 9.4l5.5 2.3h.1v.1c-.9 2.4-1.7 4.7-2.6 7.1v-.1l5.7 4 .1.1-.1.1-3.3 5.3v-.1c2 1.5 4 2.9 6 4.4-2.1-1.4-4.1-2.8-6.1-4.3h-.1v-.1l3.3-5.3v.2l-5.7-4-.1-.1v-.1c.9-2.4 1.8-4.7 2.7-7.1v.1l-5.4-2.5z"/><path class="cst30" d="M45.3 132.6l-2.8 5.4-.1-.1 4.2-1.9.1-.1v.1l-.5 6.1c-.2 2-.3 4-.5 6.1l-.2-.1 3.2-3.6.2-.3v.3l-1.4 10.8-.1-.1 4.2-1.5-4.2 1.6h-.1v-.1l1.3-10.8.2.1-3.2 3.6-.3.3v-.4c.2-2 .4-4 .6-6.1l.6-6 .1.1-4.2 1.9-.2.1.1-.2 3-5.2zm-17.8 24l-5.3-2.8-.2-.1h.2l4.1-.7v.2l-4.9-1.7h-.1l.1-.1 2.7-6.6.2.2-4.6.1h-.3l.2-.2 3.5-3.4.1.1-5.2-2.5-.1-.1h.1l2.7-6.2-2.6 6.2v-.1l5.1 2.6h.2l-.1.1-3.6 3.5-.1-.2 4.7-.2h.2l-.1.2-2.8 6.5-.1-.1 4.9 1.7.3.2h-.4l-4.1.6.1-.1zM7.6 123.3l4.9-1.6 1.8 12.6h-.1l8.3-16 .2.1-10.2 3.5h-.2v-.1l.5-7.4L.9 99.8l-.1-.1.1-.1 14.9-15.1 15-15.1-14.9 15.2L1 99.8v-.2l12 14.7v.1l-.4 7.4-.2-.1 10.2-3.5h.2l-.1.2-8.4 15.9-.1.2v-.2l-1.7-12.6z"/><path class="cst30" d="M23.1 131.8l-1.8-3.9-1.8-3.9.1.1c-1.2-.4-2.3-.7-3.5-1.1l-3.5-1.1.1-.1c-.9 1.7-1.9 3.3-2.8 5 .9-1.7 1.7-3.4 2.6-5.1v-.1h.1l3.5 1.1c1.2.4 2.3.8 3.5 1.1h.1c.6 1.3 1.2 2.6 1.7 3.9.5 1.4 1.1 2.7 1.7 4.1zm-15 36.5l4.9 10.4-4.8 9.9-.1-.1 14.3-5.5h.1v.1l6.9 5.4-.2.1.1-20.1h.2l-9.8 19.7-.1.1-.1-.1-6.7-9.5-.1-.1h.2l9.1 4.5-9.2-4.4h.1l6.8 9.4h-.2l9.8-19.7.2-.4v20.9l-.2-.2-6.9-5.5h.1l-14.4 5.5-.2.1.1-.2 4.9-9.9z"/><path class="cst30" d="M13 178.7l8.7-10.5.1-.1v.2l.8 14.8h-.2l17.1-14.7.1-.2.1.3 4.4 20.2.1.3-.2-.2-14.7-11.6h-.1l-7.4-8.9 7.5 8.9 14.8 11.5-.1.1-4.6-20.3.2.1-17.1 14.6-.1.1v-.2l-.7-14.8h.1z"/><path class="cst30" d="M44.1 188.7l13.2-20.3.1.1-28.1 8.8.1-.1 4.6 11.6h-.2l7.1-15.3v-.2l.2.1 17.4 15.2h-.2l9.6-20.3.1.1-12 9.2v-.1l2.4 11.6-2.4-11.5v-.1l11.9-9.3.2-.2-.1.3-9.5 20.4-.1.1h-.1l-17.4-15.2h.2L34 188.9l-.1.2-.1-.2-4.6-11.7-.1-.1h.2l28-8.7.2-.1-.1.2z"/><path class="cst30" d="M49.3 180.7c1.1-.6 2.2-1.1 3.3-1.7 1.1-.6 2.2-1.1 3.3-1.6l-.1.1c.2-1.5.5-3 .7-4.6.2-1.5.5-3 .8-4.5-.2 1.5-.4 3.1-.6 4.6-.2 1.5-.4 3-.7 4.6v.1h-.1c-1.1.5-2.2 1.1-3.4 1.6-.9.4-2.1.9-3.2 1.4z"/><path class="cst30" d="M56 177.5l8.7 11.3h-.1l21.2-20.5.2-.2v.2l3.1 20.3v.4l-.2-.3-21-20.3.1-.1-3.4 20.8 3.3-20.8v-.2l.1.1 21 20.3-.2.1-3-20.2h.2l-21.3 20.5-.1.1v-.1z"/><path class="cst30" d="M76.8 177.2l.4 11.2-.1-.1 8.7-20 .1-.1h.1l13.2 7.1.2.1-.2.1L90 178l-9.2 2.5 9.2-2.6 9.1-2.6v.2l-13.2-7 .1-.1-8.8 20-.1.3v-.3z"/><path class="cst30" d="M87.4 178.6l7.3 5 7.3 5.1-.1.1-2.9-13.4v-.1c2.3-2.3 4.6-4.6 6.9-7l.1-.1.1.1 8.5 9.5.2.2h-.2l-7.7-1.3-7.7-1.3 7.8 1.2 7.8 1.2-.1.1-8.6-9.4h.2c-2.3 2.3-4.6 4.7-6.9 7v-.1l2.8 13.4v.2l-.2-.1-7.3-5.1-7.3-5.2z"/><path class="cst30" d="M102 188.8l1.9-6.2 2-6.1.1-.2.1.2c2 2.9 4.1 5.8 6.1 8.7l.1.1h-.1c-3.3 1.1-6.7 2.2-10 3.3 3.3-1.2 6.6-2.4 9.9-3.5l-.1.2c-2-2.9-4.1-5.8-6.1-8.7h.2l-2 6.1-2.1 6.1z"/><path class="cst30" d="M112.1 185.2l1.2-3.7 1.2-3.7.1-.3.1.3 2 5.4 1.9 5.4.1.3-.3-.2c-2.1-1.2-4.2-2.5-6.3-3.8 2.1 1.2 4.3 2.4 6.4 3.6l-.2.1-2-5.4-1.9-5.4h.2l-1.3 3.6-1.2 3.8zm11.3-13.2c1.1-1.2 2.2-2.5 3.3-3.7l.1-.1h.1l2.8 1.5 2.8 1.5.4.2h-.5c-1.5.1-3.1.2-4.6.3-1.5.1-3.1.2-4.6.2 1.5-.1 3.1-.3 4.6-.4 1.5-.1 3.1-.2 4.6-.3l-.1.2-2.8-1.5-2.8-1.5h.1c-1.2 1.3-2.3 2.5-3.4 3.6z"/><path class="cst30" d="M126.7 168.4l1.8 7.1 8.8 1.4h.1l-.1.1-6.9 7.2h-.1l-11.8 4.5-.3.1.2-.2 10-13.2 3.8-4.2.1-.1.1.1 4.9 5.6h.1v.1l4.1 11.7.1.3-.2-.1-26.9-10.9v-.1l2.6-9.5.1-.1 11.3 7.3h.2l-.2.1-14 2.2 14-2.3v.1l-11.3-7.2.1-.1-2.7 9.6v-.1l26.9 10.8-.2.1-4.2-11.8.1.1-5-5.6h.2l-3.8 4.2-10.1 13.1-.1-.1 11.9-4.5h-.1l7-7.2.1.1-8.8-1.5z"/><path class="cst30" d="M128.7 175.5c.4 1.4.7 2.8.9 4.3.3 1.4.5 2.9.7 4.3-.4-1.4-.7-2.8-.9-4.3-.3-1.4-.6-2.9-.7-4.3zm3.6-4.2l11.9-3.1.2-.1-.2.2-6.9 8.7v-.2l7.6 6 7.5 5.9-.2.1-.8-14.9.1.1-7.1 1.5-7.2 1.5 7.1-1.6 7.2-1.5.1-.1v.1l.8 14.9.1.3-.2-.2-7.6-5.9-7.5-6-.1-.1.1-.1 6.9-8.6.1.1z"/><path class="cst30" d="M141.4 188.7c1.7-2.5 3.3-5 5-7.4l5-7.4v.1c-2.4-1.9-4.9-3.8-7.3-5.7l-.4-.3.5.1 14.2 3h.2l-.2.1-7 2.7 6.9-2.8v.1l-14.2-2.9.1-.2c2.5 1.9 4.9 3.8 7.3 5.7l.1.1-.1.1-5.1 7.4c-1.5 2.4-3.3 4.8-5 7.3z"/><path class="cst30" d="M152.3 188.8l12.2-14.2v.1l-6.2-3.4-.4-.2.5.1 20.7 4v.2l-27.6-1.4.1-.2 21.9 14.7-.2.2-12.7-20.3-2.2 2.8 2.2-2.8 12.9 20.2.2.3-.3-.2-22-14.7-.3-.2h.4l27.6 1.4v.2l-20.8-4.1.1-.1 6.2 3.4v.1z"/><path class="cst30" d="M179.2 168.4c-1.2.6-2.4 1.1-3.6 1.6l-3.7 1.6-3.7 1.5c-1.2.5-2.5 1-3.7 1.5 1.2-.6 2.4-1.1 3.6-1.6l3.7-1.6 3.7-1.5c1.2-.5 2.4-1 3.7-1.5zm-.1 6.9c-1.6.4-3.1.8-4.7 1.2l-4.7 1.2c-3.2.8-6.3 1.5-9.5 2.2l.1-.1.6 8.7c-.3-2.9-.5-5.8-.8-8.7v-.1h.1c3.2-.8 6.3-1.5 9.5-2.2l4.8-1.1c1.4-.5 3-.8 4.6-1.1zM99.5 161l6.5 7.4h-.1l5.7-7.4.1-.1.1.1 5.5 7.3h-.2l5.5-3.7 5.6-3.6.2-.1-.1.3-1.6 7.4v.2l-.1-.1-3.7-3.8-11.1-3.6c3.7 1.2 7.4 2.3 11.1 3.5l3.7 3.8h-.2l1.6-7.4.2.1-5.5 3.7-5.5 3.6-.1.1-.1-.1-5.4-7.3h.2l-5.8 7.4-.1.1-.1-.1-6.3-7.7z"/><path class="cst30" d="M126.7 168.4L139 161l.1-.1v.1l5.1 7.2h-.1l3.5-7.3v-.1h.1l12.6 7h-.2l3.4-6.8v.1l-8.7-8 .1-.1.7 7.9v.1l-.1-.1-6.5-3.9 5.7-4-5.7 4 6.6 3.8-.1.1-.8-7.8v-.3l.2.2 8.7 7.9.1.1v.1l-3.4 6.8v.2l-.1-.1-12.6-7h.2l-3.5 7.3-.1.1-.1-.1-5.1-7.2h.1z"/><path class="cst30" d="M147.7 160.9l1.3-3.9.1.1c-3.3 1.4-6.6 2.7-9.9 4.1l-.2.1v-.2l-.3-7.9v-.2l.2.1 5.1 1.9 5.1 2-5.2-1.8-5.2-1.9.2-.1.3 7.9-.2-.1c3.3-1.3 6.6-2.7 10-4l.1-.1v.1l-1.4 3.9zm-55.9-23.3c1.9 2.5 3.8 5 5.6 7.5l2.8 3.8 2.7 3.8c.2 1.8.3 3.6.4 5.4l-.6-5.4-2.8-3.8-2.8-3.8c-1.7-2.3-3.5-4.9-5.3-7.5z"/><path class="cst30" d="M112.7 153c.3-3 .5-6 .8-9l.1.1-10.7 8.9-.2.2v-.3c0-2.5.1-5.1.2-7.6l.2-7.6v-.1l.1.1 5.1 3.2 5.1 3.2-5.2-3.1-5.1-3.2.1-.1-.1 7.6c0 2.5-.1 5.1-.1 7.6l-.2-.1 10.8-8.8.1-.1v.2c-.3 2.9-.7 5.9-1 8.9z"/><path class="cst30" d="M111.7 161L94 155.4l-.3-.1h.3l8.7-2.3.2-.1-.1.2-3.2 7.4-.1-.1 13.2-7.5.1-.1v.2l-.9 8-.2-.1 9.8-8h.1l.1.1 6.7 7.9h-.2l10.5-7.8v.1l-21.3-15.3.1-.1-3.9 6.3v-.1l8 9-4.1-15.2 4.2 15.2v.2l-.1-.1-8.1-9v-.1l3.9-6.2v-.1h.1l21.3 15.4.1.1h-.1l-10.4 7.9-.1.1-.1-.1-6.7-8h.2l-9.9 8-.2.2v-.3l1-8 .2.1-13.2 7.5-.3.1.1-.2 3.3-7.5v.1l-8.7 2.3v-.1z"/><path class="cst30" d="M138.7 153.2l-.6-15.3v-.2l.1.1 16.6 15.1h-.2c1.7-5.1 3.3-10.1 5-15.2l.1-.2.1.2 11.7 15.3.1.1h-.1l-12.5 3.8-3.6 3.9 3.6-3.9 12.5-3.9v.1L159.8 138h.2c-1.7 5.1-3.3 10.1-5 15.2l-.1.2-.1-.1-16.6-15.3.1-.1.4 15.3zm-35.5-15.6l-6.1-7.1-.1-.1h.1l11.4-6.1c3.8-2 7.6-4.1 11.4-6.1l.6-.3-.4.5-8.5 9.7-8.4 9.5zm0 0l8.4-9.7 8.3-9.7.1.2c-3.8 2.1-7.6 4.1-11.4 6.1l-11.4 6.1v-.1l6 7.1z"/><path class="cst30" d="M117.4 137.8l-3.8-4.6c-1.3-1.5-2.6-3.1-3.9-4.6l-.1-.1.1-.1c3.4-1.4 6.8-2.8 10.2-4.1l.2-.1v.2c-.4 2.2-.9 4.5-1.4 6.7l-1.3 6.7zm0 0l1.3-6.8c.4-2.2.8-4.4 1.3-6.7l.2.1c-3.4 1.4-6.8 2.8-10.2 4.1v-.2c1.3 1.5 2.5 3.1 3.7 4.6l3.7 4.9z"/><path class="cst30" d="M97.1 130.5l12.8-2-.1.1-12.7-9-.2-.2h.3l22.7-1.2 7.4-1.2-.1.1-3-10.5-.1-.4.3.2 6 5.1-.2.1 1-19.5v-.2l.1.1 17.9 6 .2.1-.3.1-18 3.5v-.1l6.7 8.3-6.8-8.2v-.1h.1l18-3.6v.1l-17.9-5.9.2-.1-1 19.5v.3l-.2-.2-6-5.1.2-.1 3 10.5.1.2h-.2l-7.3 1.2-22.8 1.2v-.2l12.7 9.1.1.1h-.1z"/><path class="cst30" d="M106.5 106.2l6.8 4.1 6.9 4.2.2.1-.2.1c-3.1 1.4-6.3 2.8-9.4 4.2l-.1.1v-.1c-.7-2.1-1.4-4.3-2-6.4l-2.2-6.3zm0 0l2.1 6.3c.7 2.1 1.4 4.2 2.1 6.2l-.2-.1c3.1-1.4 6.3-2.8 9.4-4.2v.2c-2.2-1.4-4.5-2.8-6.7-4.2l-6.7-4.2zm4.1 12.6c-.7 1.2-1.5 2.4-2.3 3.6s-1.6 2.3-2.5 3.4c.7-1.2 1.5-2.4 2.3-3.6.9-1.1 1.7-2.3 2.5-3.4zm16.7-1.7c1.5 2.4 3 4.7 4.4 7.1h-.1l7.5-1.7-.1.1 2.8-5.1v.1l-4.1-7.5h.1l-7.5 1.7-3 5.3zm0 0l3-5.5 7.5-1.7h.1v.1l4.2 7.5v.2l-2.8 5.1-7.5 1.7h-.1c-1.6-2.6-3-5-4.4-7.4z"/><path class="cst30" d="M120.1 124.4c1.9-.1 3.8-.2 5.8-.2 1.9 0 3.8-.1 5.8-.1h.2l-.1.2c-.8 1.3-1.6 2.7-2.4 4-.8 1.3-1.6 2.7-2.4 4 .7-1.4 1.5-2.7 2.2-4.1.8-1.4 1.5-2.7 2.3-4l.1.2c-1.9 0-3.8.1-5.8.1-1.9-.1-3.8-.1-5.7-.1zm17.7-14.5l5.6-5.9 5.7-6 .2-.3-.1.4-7.1 19.4-.1-.2 6 2.4h-.1l8.4-.9h.1v.1l1.8 9.5 1.7 9.5-1.9-9.5-1.8-9.5.1.1-8.4.9-6-2.3-.1-.1.1-.1L149 98l.2.1-5.7 5.9z"/><path class="cst30" d="M131.6 124.2c1.9 2.7 3.9 5.5 5.8 8.2h-.1l1.7-9.9v-.2l.2.2 4.8 5.5h-.2l12.4-9.1c3 0 6 0 9-.1-3 .1-6 .2-9 .2l-12.3 9.2-.1.1-.1-.1-4.8-5.5.2-.1-1.8 9.9v.2l-.1-.2c-1.8-2.7-3.7-5.5-5.6-8.3z"/><path class="cst30" d="M142 117.5l12.3-10.6.1-.1.1.1 1.9 12v-.1l9 11v.2l-5.4 8h-.2l-22.4-5.4.1-.1.8 5.4.1.1h-.2l-11.3-5.7h.1l-9.6 5.5 9.5-5.6h.1l11.3 5.6-.1.1-.9-5.4v-.1h.1l22.5 5.4h-.2l5.5-7.9v.1l-8.9-11.1h-.1l-1.9-11.9h.1z"/><path class="cst30" d="M154.4 107l-5.3-8.8v-.1h.1l13-7.6v.2c-4.2-1.6-8.4-3.3-12.5-4.9l-12.5-5 .1-.1 5.9 8.8 5.9 8.8-6-8.7-6-8.7-.2-.2.3.1 12.5 4.9c4.2 1.6 8.4 3.3 12.5 5l.2.1-.2.1-13 7.5v-.1l5.2 8.7z"/><path class="cst30" d="M137.1 80.7l6.3-3.3 6.3-3.3 12.6-6.6.2-.1v.2l-.1 11.5c0 3.8-.1 7.7-.1 11.5 0-3.8-.1-7.7-.1-11.5V67.6l.2.1c-4.2 2.2-8.4 4.3-12.6 6.5l-6.3 3.3-6.4 3.2z"/><path class="cst30" d="M162.2 67.6L147.4 60l-.2-.1.2-.1 9-3.5c3-1.2 6-2.3 9-3.5l.2-.1v.2l-1.7 7.3-1.7 7.4zm0 0l1.6-7.3 1.6-7.3.1.1c-3 1.2-6 2.4-9 3.5l-9 3.4v-.2l14.7 7.8z"/><path class="cst30" d="M165.6 52.9l8.5.7h.1v.1l2.2 8.1.1.4-.3-.3-5.4-4.5-5.2-4.5zm0 0l5.5 4.4c1.8 1.4 3.6 2.9 5.4 4.4l-.2.1-2.2-8.1.1.1-8.6-.9z"/><path class="cst30" d="M176.3 61.8c-1.2.5-2.3 1-3.5 1.5l-3.5 1.5-3.5 1.4c-1.2.5-2.4.9-3.6 1.3 1.2-.5 2.3-1 3.5-1.5l3.5-1.5 3.5-1.4c1.2-.4 2.4-.8 3.6-1.3zm-10.7-8.9l-2.6-5 2.7-7.2v-.1h.1l8.4.4h.1v.1c.9 1.8 1.9 3.6 2.8 5.4v.2l-2.9 7.2-.1-.1 8.9-5.5v.1l-6-1.5 6 1.4h.1l-.1.1-8.8 5.5-.2.2.1-.3 2.8-7.2v.1c-.9-1.8-1.9-3.6-2.8-5.4l.1.1-8.4-.4.1-.1-2.7 7.2 2.4 4.8z"/><path class="cst30" d="M176.9 46.5c2.6-2.3 5.2-4.6 7.8-6.8l.1.1-10.6 1.4h-.2l.1-.2c1.3-3.5 2.7-7.1 4-10.6l.2.1-12.5 10.1-.1.1v-.2c.3-3.8.6-7.5.9-11.3-.2 3.8-.5 7.5-.7 11.3l-.1-.1 12.4-10.2.4-.3-.2.4c-1.3 3.5-2.7 7-4.1 10.6l-.1-.1 10.6-1.3h.2l-.2.2c-2.6 2.4-5.3 4.6-7.9 6.8zm-11.2-5.8c-2.9-.3-5.8-.5-8.7-.8l.1-.2 6 8.1.1.1-.1.1-7.2 5.6c-2.4 1.9-4.8 3.7-7.3 5.6 2.4-1.9 4.8-3.8 7.1-5.7l7.2-5.7v.2l-5.9-8.1-.1-.2h.2c2.8.3 5.7.7 8.6 1z"/><path class="cst30" d="M157 39.8l-7.1 3-7.2 3-.3.1.2-.3 2.6-4.1 2.7-4 5.3-8.1.1-.1.1.2 1.8 5.2 1.8 5.1zm0 0l-1.9-5.2-1.9-5.1h.1l-5.3 8.1-2.6 4-2.7 4-.1-.2 7.2-2.9 7.2-2.7z"/><path class="cst30" d="M142.6 45.7l-3.3-12-3.2-12.1.1.1L124 36.3l-.1.1-.1-.1-10.9-17-.2-.3.3.1 10.9 4.2-.1 12.9V23.3v.1l-10.9-4.1.1-.1 11 17h-.2l12.3-14.6.1-.2v.2l3.2 12z"/><path class="cst30" d="M113.1 19.4l-13.3 5.1-.3.1.2-.2 12.7-14.9.2-.3.1.3.4 9.7-.1-.1 17.8-.4h.3l-.3.2-6.9 4.5v-.1l12.2-1.7-12.2 1.8-.3.1.2-.2 6.9-4.6.1.2-17.8.5h-.2v-.2l-.4-9.7.2.1-12.8 14.9-.1-.1zM95 15l2.7-5.4v.1l-4-4h.1l-4 .3.1-.1-3 5.4v-.1l4 4.1h-.1L95 15zm0 0l-4.2.3-4.1-4-.1-.1v-.1l3-5.4v-.1h.1l4-.3h.1l4 4.1v.1c-.9 2-1.9 3.8-2.8 5.5z"/><path class="cst30" d="M89.8 5.9L93.5.2l.1-.1v.1l.2 5.4v-.1l5.5-2.2.1-.1v.2l-1.6 6.2v-.1l14.7-.1h.7l-.6.2L95 15.1l.1-.1 4.8 9.4.3.7-.5-.6-9-9.2.1.1-7.6.7H83l.1-.1 3.6-4.8v.1l-5.9-3.5-.2-.1.2-.1 9-1.8v.1l-4.9-4.2 4.9 4.1v.1l-9 1.9v-.2l6 3.6h.1l-.1.1-3.5 4.8-.1-.2 7.6-.7h.1l8.9 9.1-.1.2-4.8-9.4-.1-.2h.1l17.6-5.5v.2l-14.7.1h-.1v-.1l1.5-6.3.1.1-5.5 2.2-.1.1v-.1L93.5.2l.1.1zM69.9 7.3c.8.8 1.7 1.6 2.6 2.4v.1c-.6 1.2-1.1 2.3-1.7 3.5v.1h-.1l-2.7.1h-.1L65.3 11v-.1c.7-1.2 1.4-2.3 2.1-3.5l2.5-.1zm0 0l-2.4.1h.1c-.7 1.2-1.3 2.4-2 3.5v-.1l2.5 2.4H68h2.7l-.1.1c.6-1.2 1.2-2.3 1.8-3.5v.1c-.9-.8-1.7-1.7-2.5-2.6zm5.6 28.3l3.9-.5 1.5 2-.5 3.5-3.8.5-1.7-2.1.6-3.4zm0 0l-.6 3.4 1.7 2.2 3.8-.6-.1.1.5-3.5-1.5-2-3.8.4zm0 0l-1.2-5.1v-.1h.1l3.2.4 3.2.4h.1l-.1.1-5.3 4.3zm0 0l5.1-4.3v.1l-3.2-.4-3.2-.5.1-.1 1.2 5.2z"/><path class="cst30" d="M80.6 31.4l-1.2 3.8 4.2-1.7v.1l-2.7 3.6 4.3 1h.2-.1l-4.9 2.5v-.1l2.3 2.4.1.1h-.1l-6.1-1.8.1-.1 1.4 4 .1.1H78L71.4 42l.1-.1 4.2 7.4.1.2-.1-.1L71 47h.1l1.1 7.2h-.1L64.8 53h.1l-.1 5.6V53l7.3 1.1v.1L71 47v-.1h.1l4.6 2.4-.1.1-4.2-7.4-.1-.2.2.1 6.6 3.2-.1.1-1.4-4-.1-.1.1.1 6.1 1.8-.1.1-2.2-2.4-.1-.1h.1l4.8-2.4-4.3-1 2.6-3.6h.1l-4.2 1.6z"/><path class="cst30" d="M68.2 46.9l3.8-3.3.2-.1-.1.2c-.3 1.1-.7 2.2-1 3.3l-2.9-.1zm0 0H71c.3-1.1.6-2.2 1-3.3l.1.1-3.9 3.2z"/><path class="cst30" d="M64.8 53l3.1-3.1c1.1-1 2.1-2 3.2-3L68 50c-1.1 1-2.1 2-3.2 3zm11.8-11.8L71.2 40H71l.2-.1 3.6-.9v.1c-1.2-1.5-2.3-3.1-3.5-4.6 1.2 1.5 2.4 3 3.5 4.5h.2-.1l-3.6.9v-.1c1.7.5 3.5 1 5.3 1.4zM67.4 21l3.2-7.7-4.4 3.7h-.1l1.8-3.7v.1l-4.6 1.9v-.1l2.1-4.3v.1h-4.1l.1-.1 6-3.5.7-4.1v-.2l.1.2 1.7 4 4.5-2.5h.1v.1l-2 5-.1-.1 3.8-.2h.2l-.2.1-5.5 3.7-.1-.2 4.2.8.2.1-.1.1-7.5 6.8v-.1l9.1-1.5h.1v.1l-6.8 9.8v-.1l4.5 1.3-1.7-5.4h-.1.1l6 .1-7.2 9.2 4.1 1.2-4.1-1.2 7.2-9.2-6-.1 1.7 5.4v.1-.1l-4.5-1.2h-.1l.1-.1 6.7-9.8.1.1-9.2 1.6h-.2l.2-.1 7.4-6.9v.1l-4.2-.8-.1-.1.1-.1 5.5-3.6.1.1-3.8.2h-.1l.1-.1 2-4.9h.1l-4.6 2.5h-.1l-1.7-4.1h.1l-.7 4.1v.1l-6 3.5-.1-.1h4.1l-2.2 4.3 4.6-1.9v.1L66.2 17h-.1l4.5-3.7h.1-.1zm-20.6 97.3l-4.5-16v-.1l16.3-25.5-16.2 25.6.1-.1 4.5 16zm-24.3.1L16.6 104l.2.1-13.9 10.5-.2.1.1-.2 16.3-61.6-16.2 61.6-.1-.1 13.8-10.5.1-.1.1.1 5.9 14.4zM48.3 10.9c1.2-.6 2.3-1.2 3.5-1.7l2.1 1.5.5 3.3v.1h-.1L51 15.9h-.2l-2.3-1.5c0-1.2-.1-2.4-.2-3.5zm0 0c.2 1.2.4 2.3.6 3.4v-.1l2.3 1.5h-.1l3.3-1.8-.1.1-.5-3.3v.1l-2-1.6h.1c-1.2.6-2.4 1.1-3.6 1.7zM23.5 24.6c1.3-.1 2.5-.2 3.8-.2l1.3 2.1-.6 3.6v.1h-.1l-3.9.2h-.1v-.1L22.5 28c.3-1.2.7-2.3 1-3.4zm0 0c-.3 1.1-.6 2.3-.9 3.4v-.1l1.4 2.3-.1-.1 3.9-.3-.1.2.8-3.4v.1l-1.3-2.2h.1c-1.2.1-2.5.1-3.8.1z"/><path class="cst30" d="M52.1 5.1l-.2 4.1-7.3 1.6.1-.1-.8 11.5v.2l-.1-.1c-3.5-1.8-6.9-3.5-10.4-5.3l.2-.2 6.2 7.8.2.2h-.2l-10-1.5h.1l-.9 3.3v-.1l4.9 2-4.9-1.9.9-3.3v-.1h.1l10 1.4-.1.2-6.7-7.8-.4-.5.5.3c3.5 1.8 6.9 3.6 10.3 5.3l-.2.1.8-11.5v-.1h.1l7.3-1.5.5-4z"/><path class="cst30" d="M57.9 16.5L54.4 14l-.7 5.4v.1l-.1-.1-9.4-4.4-10.8 2.1V17l-3.8 6.4h-.1l-6 1.3-4.9-.3.1-.1 3.9 3.6-3.6 3.2 3.5-3.2-3.9-3.5-.2-.1h.2l4.9.2 6-1.3h-.1l3.8-6.3h.1v-.1l10.9-2h.1l9.4 4.5-.1.1.8-5.4zM27.8 30c-.8 3-1.6 5.9-2.4 8.9l-.1-.1 8.1 1.1.5.1-.5.2-7.1 2.8v-.2l5.2 4 5.2 4-5.3-3.9-5.2-3.9-.2-.2.2-.1 7.1-2.8v.2l-8-1.1h-.1v-.1c.9-3 1.8-5.9 2.6-8.9zM20.7 8.9c1.3.2 2.5.3 3.8.5l1.1 2.2-1.5 3.3v.1H24l-3.8-.5h-.1v-.1l-1-2.6c.5-.9 1-1.9 1.6-2.9zm0 0c-.5 1-1 2.1-1.5 3.1v-.1l1.1 2.5-.1-.1 3.8.5-.1.2 1.5-3.3v.1l-1-2.2h.1c-1.3-.2-2.6-.5-3.8-.7z"/><path class="cst30" d="M41.3 12.2c-2-1.8-3.9-3.6-5.9-5.4h.2l-1.3 5.1-1.2 5.1-.1.3-.2-.3c-1.9-3.4-3.8-6.9-5.7-10.3h.1l-2.7 2.8 2.6-2.9.1-.1v.1c2 3.4 3.9 6.8 5.9 10.2h-.2l1.3-5.1 1.3-5.1v-.2l.1.1c1.9 2 3.8 3.8 5.7 5.7zM17.8 5.2l2.9 3.6.1.1h-.1l-5.9 2.4.1-.1c.4 3 .8 6.1 1.2 9.1v.1H16c-2.1.1-4.1.2-6.2.3l-6.2.3 6.1-.4c2-.1 4.1-.3 6.1-.4l-.1.1c-.4-3-.8-6.1-1.2-9.1v-.1h.1l6-2.3v.1l-2.8-3.7z"/></g><g><circle cx="77.2" cy="119.7" r="1"/><circle cx="78.6" cy="127.9" r=".5"/><circle cx="76.5" cy="129.6" r=".5"/><circle cx="81.4" cy="124.8" r=".5"/><circle cx="72.1" cy="132.6" r=".5"/><circle cx="79.3" cy="132.4" r="1"/><circle cx="69.6" cy="132.3" r="1"/><circle cx="74.9" cy="112.7" r="1"/><circle cx="37.3" cy="114" r="1.6"/><circle cx="47.1" cy="117.7" r=".8"/><circle cx="43.6" cy="124.3" r=".6"/><circle cx="47.7" cy="131.7" r=".8"/><circle cx="41.3" cy="133.7" r=".7"/><circle cx="45.4" cy="132.5" r=".7"/><circle cx="42.6" cy="137.9" r=".7"/><circle cx="46.7" cy="136" r=".7"/><circle cx="21" cy="132.7" r=".7"/><circle cx="17.9" cy="139.1" r=".7"/><circle cx="23.3" cy="141.3" r="1"/><circle cx="19.5" cy="145" r=".7"/><circle cx="24.4" cy="144.8" r=".7"/><circle cx="21.3" cy="151.4" r=".8"/><circle cx="26.7" cy="153.1" r=".7"/><circle cx="22.1" cy="153.7" r=".5"/><circle cx="44" cy="134.9" r=".4"/><circle cx="44" cy="143.2" r=".6"/><circle cx="45.9" cy="144.4" r=".4"/><circle cx="45.5" cy="148.3" r=".6"/><circle cx="49.8" cy="147.1" r=".6"/><circle cx="49" cy="144.2" r=".6"/><circle cx="46.5" cy="152.2" r=".7"/><circle cx="47.7" cy="153.3" r=".4"/><circle cx="47.4" cy="155.2" r=".4"/><circle cx="49.4" cy="154.5" r=".4"/><circle cx="51.6" cy="153.6" r=".4"/><circle cx="48.1" cy="149.6" r=".4"/><circle cx="48.6" cy="146.1" r=".3"/><circle cx="47.7" cy="145.6" r=".3"/><circle cx="37.4" cy="126.3" r=".8"/><circle cx="37" cy="121.2" r="1.1"/><circle cx="12.8" cy="114.1" r="1.3"/><circle cx="16.7" cy="103.9" r="1.2"/><circle cx="3" cy="114.6" r="1.1"/><circle cx=".8" cy="99.8" r=".8"/><circle cx="44" cy="107.8" r="1.1"/><circle cx="42.4" cy="102.1" r=".7"/><circle cx="12.5" cy="121.7" r="1.1"/><circle cx="14" cy="134.4" r="1.1"/><circle cx="22.6" cy="118.3" r=".9"/><circle cx="19.6" cy="124.2" r="1.3"/><circle cx="9.8" cy="126.9" r=".7"/><circle cx="7.8" cy="123.1" r=".7"/><circle cx="23.4" cy="131.7" r=".7"/><circle cx="38.6" cy="134.2" r="1"/><circle cx="31.9" cy="123.2" r=".7"/><circle cx="87.2" cy="97.4" r=".7"/><circle cx="79.1" cy="101" r=".8"/><circle cx="67" cy="119.8" r=".7"/><circle cx="73.3" cy="126.2" r=".6"/><circle cx="73.6" cy="134.8" r=".4"/><circle cx="76.3" cy="143.8" r=".7"/><circle cx="76.2" cy="138.5" r=".6"/><circle cx="71.3" cy="147.6" r=".6"/><circle cx="71.1" cy="154.4" r=".6"/><circle cx="70.7" cy="157" r=".9"/><circle cx="99.3" cy="175.3" r=".9"/><circle cx="130.4" cy="184.6" r=".9"/><circle cx="114.7" cy="177.9" r=".9"/><circle cx="117.3" cy="168.4" r=".9"/><circle cx="137.4" cy="176.9" r=".9"/><circle cx="151.5" cy="173.8" r=".9"/><circle cx="158.4" cy="171.1" r=".6"/><circle cx="164.6" cy="174.7" r=".9"/><circle cx="160.2" cy="179.8" r="1.1"/><circle cx="144.1" cy="168.3" r=".9"/><circle cx="126.8" cy="168.4" r=".6"/><circle cx="123.2" cy="172.2" r=".6"/><circle cx="128.6" cy="175.5" r=".6"/><circle cx="123.8" cy="181.5" r=".6"/><circle cx="111.9" cy="185.3" r="1.1"/><circle cx="106.2" cy="176.5" r="1.1"/><circle cx="87.5" cy="178.5" r=".9"/><circle cx="86" cy="168.3" r=".9"/><circle cx="99.5" cy="161.2" r="1.3"/><circle cx="113.5" cy="144.5" r="1.3"/><circle cx="103.3" cy="153" r="1.3"/><circle cx="139" cy="153.2" r="1.3"/><circle cx="128.3" cy="160.7" r="1.3"/><circle cx="159.7" cy="137.6" r="1.5"/><circle cx="138.3" cy="137.9" r="1.5"/><circle cx="117.5" cy="137.4" r="1.5"/><circle cx="110.6" cy="128.9" r="1.1"/><circle cx="110.6" cy="118.7" r="1.1"/><circle cx="120.4" cy="118.5" r="1.1"/><circle cx="120.2" cy="124.4" r="1.2"/><circle cx="144" cy="128" r="1.2"/><circle cx="156.3" cy="118.9" r="1.2"/><circle cx="165.6" cy="129.9" r="1.1"/><circle cx="141.9" cy="117.4" r="1.1"/><circle cx="130.8" cy="101.7" r="1.1"/><circle cx="137.1" cy="80.8" r="1.1"/><circle cx="162.2" cy="67.2" r="2.2"/><circle cx="161.9" cy="90.5" r="2.9"/><circle cx="147.9" cy="59.6" r="1.7"/><circle cx="165.7" cy="53.1" r="1.4"/><circle cx="177.1" cy="46.7" r="1.4"/><circle cx="166.6" cy="29.3" r="1.4"/><circle cx="166" cy="40.4" r="1.4"/><circle cx="157.5" cy="39.9" r="1.4"/><circle cx="142.9" cy="45.8" r="1.4"/><circle cx="136.3" cy="21" r="1.8"/><circle cx="124" cy="23.2" r="1.8"/><circle cx="113.2" cy="18.9" r="2.4"/><circle cx="99.9" cy="24.3" r="2.6"/><circle cx="99.8" cy="3.5" r="1.6"/><circle cx="81.1" cy="7.8" r="1.4"/><circle cx="83.6" cy="16.1" r="1.4"/><circle cx="95" cy="14.6" r="1.1"/><circle cx="131.6" cy="124.4" r="1.1"/><circle cx="130.4" cy="111.6" r="1.1"/><circle cx="148.8" cy="98.5" r="2.1"/><circle cx="97.3" cy="130.6" r="1"/><circle cx="106" cy="125.7" r=".7"/><circle cx="77" cy="177" r=".9"/><circle cx="80.9" cy="180.3" r=".9"/><circle cx="64.9" cy="188.7" r=".9"/><circle cx="58.4" cy="188.7" r=".9"/><circle cx="56.1" cy="177.6" r=".9"/><circle cx="29.4" cy="177.2" r=".9"/><circle cx="40.7" cy="173.4" r=".9"/><circle cx="44.2" cy="188.8" r=".9"/><circle cx="34.1" cy="188.7" r=".9"/><circle cx="29.3" cy="188.5" r=".9"/><circle cx="22.4" cy="183" r=".9"/><circle cx="12.8" cy="178.7" r=".9"/><circle cx="19.7" cy="188.6" r=".9"/><circle cx="65.5" cy="161.3" r=".7"/><circle cx="65.7" cy="168.3" r=".8"/><circle cx="76.5" cy="168.1" r=".8"/><circle cx="80.7" cy="166.5" r=".6"/><circle cx="76.7" cy="162.7" r=".6"/><circle cx="70.8" cy="161.7" r=".6"/><circle cx="70.3" cy="165.9" r=".6"/><circle cx="68.2" cy="165.1" r=".5"/><circle cx="75.4" cy="161.2" r=".5"/><circle cx="73.2" cy="164.4" r=".4"/><circle cx="68" cy="159.2" r=".4"/><circle cx="65.7" cy="157.3" r=".7"/><circle cx="70" cy="168.1" r=".6"/><circle cx="52.5" cy="156.9" r=".5"/><circle cx="47.7" cy="156.9" r=".9"/><circle cx="57.7" cy="160.7" r=".9"/><circle cx="42.5" cy="161.2" r=".7"/><circle cx="42.7" cy="168.2" r=".8"/><circle cx="53.5" cy="168.1" r=".8"/><circle cx="57.7" cy="166.4" r=".6"/><circle cx="53.7" cy="162.7" r=".6"/><circle cx="47.8" cy="161.7" r=".6"/><circle cx="47.3" cy="165.8" r=".6"/><circle cx="45.2" cy="165" r=".5"/><circle cx="52.3" cy="161.2" r=".5"/><circle cx="50.2" cy="164.3" r=".4"/><circle cx="45" cy="159.2" r=".4"/><circle cx="42.7" cy="157.2" r=".7"/><circle cx="47" cy="168.1" r=".6"/><circle cx="27.5" cy="156.9" r=".9"/><circle cx="17.5" cy="160.7" r=".9"/><circle cx="32.7" cy="161.2" r=".7"/><circle cx="32.5" cy="168.2" r=".8"/><circle cx="21.8" cy="168.1" r=".8"/><circle cx="17.5" cy="166.4" r=".6"/><circle cx="21.5" cy="162.7" r=".6"/><circle cx="27.4" cy="161.7" r=".6"/><circle cx="27.9" cy="165.8" r=".6"/><circle cx="30" cy="165" r=".5"/><circle cx="22.9" cy="161.2" r=".5"/><circle cx="25.1" cy="164.3" r=".4"/><circle cx="30.2" cy="159.2" r=".4"/><circle cx="32.5" cy="157.2" r=".7"/><circle cx="28.2" cy="168.1" r=".6"/><g><circle cx="75.9" cy="149.4" r=".6"/></g><g><circle cx="75.6" cy="154.2" r=".6"/></g><g><circle cx="71.2" cy="150.9" r=".6"/></g><g><circle cx="71.5" cy="141.3" r=".6"/></g><g><circle cx="82.8" cy="119.5" r=".7"/></g></g><g><g class="cst12"><path class="cst13" d="M169.6 47l7.3-.5-2.9 7.3z"/></g><g class="cst8"><path class="cst13" d="M169.6 47l4.4 6.7-8.5-.8z"/></g><g class="cst28"><path class="cst13" d="M169.6 47l-6.7.9 2.5 5.1z"/></g><g class="cst29"><path class="cst13" d="M169.6 47l-3.9-6.3-2.8 7.2z"/></g><g class="cst28"><path class="cst13" d="M169.6 47l4.6-5.9-8.5-.4z"/></g><g class="cst8"><path class="cst13" d="M176.8 46.5l-2.6-5.4-4.6 5.9z"/></g></g><g><g class="cst12"><path class="cst13" d="M92.5 10.4l-1.8 5-4-4z"/></g><g class="cst8"><path class="cst13" d="M92.5 10.4l-5.7 1 3-5.5z"/></g><g class="cst28"><path class="cst13" d="M92.5 10.4l1.4-4.7-4.2.2z"/></g><g class="cst29"><path class="cst13" d="M92.5 10.4l5.4-.7-4.1-4z"/></g><g class="cst28"><path class="cst13" d="M92.5 10.4l2.6 4.8 2.7-5.5z"/></g><g class="cst8"><path class="cst13" d="M90.7 15.3l4.4-.1-2.6-4.8z"/></g></g><g><g class="cst12"><path class="cst13" d="M69.1 10.3L68 13.4l-2.5-2.5z"/></g><g class="cst8"><path class="cst13" d="M69.1 10.3l-3.6.6 1.9-3.4z"/></g><g class="cst28"><path class="cst13" d="M69.1 10.3l.8-2.9-2.5.1z"/></g><g class="cst29"><path class="cst13" d="M69.1 10.3l3.3-.4-2.5-2.5z"/></g><g class="cst28"><path class="cst13" d="M69.1 10.3l1.6 3 1.7-3.4z"/></g><g class="cst8"><path class="cst13" d="M68 13.4l2.7-.1-1.6-3z"/></g></g><g><g class="cst12"><path class="cst13" d="M51.5 12.5l-2.7 1.8-.5-3.4z"/></g><g class="cst8"><path class="cst13" d="M51.5 12.5l-3.2-1.6 3.5-1.6z"/></g><g class="cst28"><path class="cst13" d="M51.5 12.5l2.4-1.9-2.1-1.4z"/></g><g class="cst29"><path class="cst13" d="M51.5 12.5l3 1.6-.6-3.5z"/></g><g class="cst28"><path class="cst13" d="M51.5 12.5l-.4 3.3 3.4-1.7z"/></g><g class="cst8"><path class="cst13" d="M48.8 14.3l2.3 1.5.4-3.3z"/></g></g><g><g class="cst12"><path class="cst13" d="M25.8 27.4l-3.3.6.9-3.4z"/></g><g class="cst8"><path class="cst13" d="M25.8 27.4l-2.4-2.8 3.9-.1z"/></g><g class="cst28"><path class="cst13" d="M25.8 27.4l2.9-.8-1.4-2.2z"/></g><g class="cst29"><path class="cst13" d="M25.8 27.4l2 2.6.9-3.4z"/></g><g class="cst28"><path class="cst13" d="M25.7 27.4L24 30.2l3.8-.2z"/></g><g class="cst8"><path class="cst13" d="M22.6 28l1.4 2.2 1.8-2.8z"/></g></g><g><g class="cst12"><path class="cst13" d="M22.5 12h-3.3l1.5-3.2z"/></g><g class="cst8"><path class="cst13" d="M22.5 12l-1.8-3.1 3.8.6z"/></g><g class="cst28"><path class="cst13" d="M22.5 12l3-.2-1-2.3z"/></g><g class="cst29"><path class="cst13" d="M22.5 12l1.5 3 1.5-3.2z"/></g><g class="cst28"><path class="cst13" d="M22.4 12l-2.2 2.5 3.8.5z"/></g><g class="cst8"><path class="cst13" d="M19.2 12l1 2.5 2.3-2.5z"/></g></g><g><g class="cst12"><path class="cst13" d="M78.1 38.2l-3.2.9.6-3.5z"/></g><g class="cst8"><path class="cst13" d="M78.1 38.2l-2.6-2.5 3.9-.5z"/></g><g class="cst28"><path class="cst13" d="M78.1 38.2l2.9-1-1.6-2z"/></g><g class="cst29"><path class="cst13" d="M78.1 38.2l2.3 2.5.6-3.5z"/></g><g class="cst28"><path class="cst13" d="M78.1 38.2l-1.5 3 3.8-.5z"/></g><g class="cst8"><path class="cst13" d="M75 39.1l1.6 2.1 1.5-3z"/></g></g></g></svg></svg>