<?xml version="1.0" encoding="utf-8"?>
<!-- Generator: Adobe Illustrator 21.1.0, SVG Export Plug-In . SVG Version: 6.00 Build 0)  -->
<svg version="1.1" id="Layer_1" xmlns="http://www.w3.org/2000/svg" xmlns:xlink="http://www.w3.org/1999/xlink" x="0px" y="0px"
	 width="37.7px" height="37.7px" viewBox="0 0 37.7 37.7" style="enable-background:new 0 0 37.7 37.7;" xml:space="preserve">
<style type="text/css">
	.st0{fill:#FFFFFF;}
	.st1{fill:none;}
</style>
<g>
	<g>
		<circle class="st0" cx="5" cy="32.7" r="5"/>
		<circle class="st0" cx="18.9" cy="32.7" r="5"/>
		<circle class="st0" cx="18.9" cy="18.9" r="5"/>
		<circle class="st0" cx="32.7" cy="32.7" r="5"/>
		<circle class="st0" cx="32.7" cy="18.9" r="5"/>
		<circle class="st0" cx="32.7" cy="5" r="5"/>
	</g>
	<polygon class="st0" points="33.5,9.9 32.7,13.9 32,9.9 	"/>
	<line class="st1" x1="29.3" y1="8.5" x2="22.4" y2="15.4"/>
	<polygon class="st0" points="29.7,9 22.4,15.4 28.8,8 	"/>
	<polygon class="st0" points="16.3,22.5 8.5,29.3 15.3,21.5 	"/>
	<polygon class="st0" points="33.5,23.2 32.7,28.2 32,23.2 	"/>
	<polygon class="st0" points="22.2,29.3 28.9,21.6 29.9,22.6 	"/>
	<polygon class="st0" points="19.6,23.2 18.9,28.2 18.2,23.2 	"/>
</g>
</svg>
