<?xml version="1.0" encoding="utf-8"?>
<!-- Generator: Adobe Illustrator 21.1.0, SVG Export Plug-In . SVG Version: 6.00 Build 0)  -->
<svg version="1.1" id="Layer_1" xmlns="http://www.w3.org/2000/svg" xmlns:xlink="http://www.w3.org/1999/xlink" x="0px" y="0px"
	 width="215.7px" height="65.2px" viewBox="0 0 215.7 65.2" style="enable-background:new 0 0 215.7 65.2;" xml:space="preserve">
<style type="text/css">
	.st0{fill:#232020;}
</style>
<path class="st0" d="M215.7,58.5c0-0.9-0.2-1.8-0.6-2.6c-0.4-0.8-0.9-1.5-1.5-2.2c-0.6-0.6-1.4-1.1-2.2-1.5
	c-0.9-0.4-1.7-0.6-2.7-0.6c-1.9,0-3.6,0.7-4.9,2c-1.3,1.3-2,2.9-2,4.8c0,1.9,0.7,3.4,2,4.7c1.3,1.3,3,2,4.8,2c2,0,3.7-0.7,5.1-2
	C215.1,61.9,215.7,60.4,215.7,58.5 M161.6,31h-0.2c0.2-3.4,0.8-6.1,1.8-8.2c1.1-2.1,2.4-3.7,3.9-5c1.6-1.2,3.3-2.1,5.2-2.7
	c1.9-0.6,3.8-1,5.7-1.3l6.9-1c1.6-0.2,3.1-0.6,4.6-1.1c1.5-0.5,2.8-1.2,4-2.2c1.2-1,2.2-2.2,3.1-3.8c0.9-1.6,1.5-3.5,1.8-5.8h-4.9
	c-0.4,1.1-1.2,1.9-2.6,2.3c-1.4,0.4-2.9,0.7-4.4,0.8L179.7,4c-1.3,0.2-2.7,0.4-4.1,0.7c-1.4,0.3-2.8,0.7-4.3,1.2
	c-1.4,0.5-2.9,1.3-4.3,2.2c-1.4,0.9-2.8,2-4,3.4c-1.5,1.6-2.8,3.6-3.9,5.9c-1.1,2.3-1.9,4.6-2.6,7.2c-0.6,2.5-1.1,5.1-1.4,7.7
	c-0.3,2.6-0.4,5.2-0.4,7.6c0,1.6,0.1,3.2,0.3,4.9c0.2,1.7,0.5,3.4,1,5.1c0.5,1.7,1.2,3.3,2.1,4.8c0.9,1.6,2.1,3,3.6,4.3
	c1.4,1.2,3.2,2.3,5.7,3.5c2.5,1.1,5.6,1.7,9.5,1.7c2.5,0,5.1-0.3,7.8-0.9c2.7-0.6,5.1-1.7,7.3-3.4c2.2-1.6,4-3.8,5.4-6.5
	c1.4-2.7,2.2-6.2,2.2-10.4c0-3.7-0.6-6.9-1.8-9.5c-1.2-2.6-2.8-4.8-4.9-6.5c-1.3-1.2-3.2-2.3-5.4-3.3c-2.3-1-5.2-1.5-8.6-1.5
	c-3.5,0-6.8,0.8-9.8,2.4C166,25.9,163.5,28.2,161.6,31 M166.8,42.9c0-3.1,0.3-5.5,0.7-7.3c0.5-1.8,1-3.2,1.6-4.3
	c0.7-1.3,1.7-2.4,2.9-3.4c1.3-1,2.9-1.4,5-1.4c2.1,0,3.8,0.5,5.2,1.5c1.3,1,2.4,2.3,3.2,3.9c0.8,1.6,1.3,3.4,1.5,5.4
	c0.3,2,0.4,4,0.4,5.9c0,1-0.1,2.4-0.2,4.2c-0.1,1.8-0.6,3.6-1.2,5.3c-0.7,1.8-1.7,3.3-3.1,4.6c-1.4,1.3-3.3,2-5.8,2
	c-2.4,0-4.3-0.6-5.6-1.9c-1.3-1.3-2.4-2.8-3-4.6c-0.7-1.8-1.1-3.6-1.3-5.5C166.9,45.6,166.8,44.1,166.8,42.9 M147.7,53.1
	c1.4-2.8,2.2-6.3,2.2-10.6c0-2.2-0.2-4.2-0.7-5.9c-0.4-1.7-1-3.3-1.7-4.6c-0.7-1.4-1.4-2.5-2.3-3.5c-0.9-1-1.7-1.8-2.4-2.5
	c-1.7-1.5-3.8-2.7-6.2-3.6c-2.5-0.9-5.3-1.4-8.5-1.4c-3,0-6,0.4-8.7,1.2c-2.8,0.8-5.2,2.1-7.3,3.8c-2.1,1.7-3.8,4-5.1,6.7
	c-1.3,2.7-1.9,6.1-1.9,10c0,3.7,0.6,6.9,1.8,9.5c1.2,2.7,2.8,4.9,4.8,6.7c2,1.8,4.4,3,7.1,3.9c2.7,0.8,5.6,1.3,8.6,1.3
	c2.4,0,4.9-0.3,7.6-1c2.7-0.6,5.1-1.8,7.3-3.4C144.4,58.1,146.3,55.9,147.7,53.1 M137.7,42.7c0,1.4-0.1,3.1-0.4,5
	c-0.3,1.9-0.8,3.8-1.6,5.5c-0.8,1.7-1.8,3.2-3.2,4.4c-1.3,1.2-3.1,1.8-5.2,1.8c-2,0-3.7-0.6-5.1-1.8c-1.3-1.2-2.4-2.7-3.1-4.4
	c-0.8-1.8-1.3-3.6-1.6-5.6c-0.3-2-0.4-3.7-0.4-5.2c0-3.1,0.3-5.5,0.7-7.4c0.5-1.9,1-3.4,1.6-4.5c0.2-0.5,0.6-1,1-1.6
	c0.4-0.6,1-1.1,1.6-1.6c0.6-0.5,1.3-0.9,2.2-1.3c0.8-0.3,1.9-0.5,3-0.5c2.2,0,3.9,0.7,5.3,2c1.4,1.3,2.4,2.9,3.2,4.8
	c0.7,1.9,1.2,3.8,1.5,5.7C137.6,39.9,137.7,41.5,137.7,42.7 M104.3,25.8V22H81.9l0,3.8c3.6,0.1,5.7,0.8,5.7,5v2.6v6l-5.9,0h-1.9
	h-1.1h-1.9l-5.9,0v-2.7v-0.1l0-5.7c0-4.2,2-4.9,5.6-5l0.1,0V22l-22.4,0v3.8c3.6,0.1,5.9,0.8,5.9,5v2.3l0,0l0,21.3
	c0,4.2-2.3,4.9-5.9,5v3.8h22.4v-3.8c-3.6-0.1-5.7-0.8-5.7-5v-4.8v0v-5.5h16.7l0,1.8V51l0,3.5c0,4.2-2.1,4.9-5.7,5v3.8h22.4v-3.8
	c-3.6-0.1-5.9-0.8-5.9-5v-6.3l0,0l0-13.2v0v-4.1C98.4,26.6,100.7,25.9,104.3,25.8 M50.4,39.7c0.3-1.8,0.4-3.6,0.3-5.3
	c-0.1-5.2-1.2-9.7-3.2-13.4c-2-3.7-4.5-6.8-7.5-9.1c-2.7-2.1-5.9-3.7-9.5-4.8C21.1,4.1,6,6.2,1.2,15.5c-0.6,0.9-1,1.9-1.1,3
	c0,0,0,0,0,0.1l0,0C0,19,0,19.4,0,19.8c0,2.1,0.8,3.9,2.3,5.3c1.5,1.4,3.3,2.1,5.4,2.1c2.2,0,4.1-0.8,5.6-2.3
	c1.5-1.5,2.2-3.3,2.2-5.4c0-1-0.3-2-0.7-2.9c-0.4-0.9-1-1.7-1.8-2.4c-0.6-0.5-1.2-1-1.9-1.3l0,0c4.3-2,9.1-2.4,13.5-0.7
	c2.2,0.9,4.2,2,5.9,3.5c0.8,0.8,1.7,1.7,2.5,2.8c0.8,1.1,1.5,2.4,2.2,3.9c0.6,1.5,1.2,3.3,1.6,5.2c0.4,2,0.7,4.2,0.8,6.7
	c0.1,3.2-0.2,6.3-0.9,9.2c-0.7,2.9-1.8,5.5-3.4,7.8C29.6,56.5,24,59,17.7,59c-6.3,0-11.4-1.8-14.8-3.9l-2.1,5.5
	c5.5,2.7,12.8,3.9,18.8,3.8c2.1,0,4.2-0.2,6.1-0.5c2-0.3,3.9-0.8,5.8-1.4c1.9-0.6,3.7-1.5,5.4-2.5c1.7-1.1,3.4-2.4,5-4
	c1.7-1.7,3.1-3.4,4.2-5.3c1.1-1.8,2-3.7,2.7-5.5C49.7,43.3,50.1,41.5,50.4,39.7"/>
</svg>
